NotoSerifTamilSlanted-SemiCondensedExtraBold.ufo
<glyph name="exclam" format="2">
  <advance width="394.75079365079364"/>
  <unicode hex="0021"/>
  <outline>
    <contour>
      <point x="153.21111111111114" y="232.64682539682542" type="line"/>
      <point x="223.94126984126987" y="232.64682539682542" type="line"/>
      <point x="397.4738095238095" y="714.0" type="line"/>
      <point x="209.96587301587303" y="714.0" type="line"/>
    </contour>
    <contour>
      <point x="162.81587301587302" y="-8.0" type="curve" smooth="yes"/>
      <point x="206.61507936507937" y="-8.0"/>
      <point x="254.12777777777777" y="16.095238095238095"/>
      <point x="254.12777777777777" y="86.74285714285715" type="curve" smooth="yes"/>
      <point x="254.12777777777777" y="136.9793650793651"/>
      <point x="219.15714285714287" y="160.88888888888889"/>
      <point x="171.39761904761906" y="160.88888888888889" type="curve" smooth="yes"/>
      <point x="116.03571428571429" y="160.88888888888889"/>
      <point x="80.2515873015873" y="122.69841269841271"/>
      <point x="80.2515873015873" y="66.27698412698412" type="curve" smooth="yes"/>
      <point x="80.2515873015873" y="16.191269841269843"/>
      <point x="113.93571428571428" y="-8.0"/>
    </contour>
  </outline>
</glyph>
<glyph name="quotedbl" format="2">
  <advance width="495.2809523809524"/>
  <unicode hex="0022"/>
  <outline>
    <contour>
      <point x="134.63095238095238" y="427.9555555555555" type="line"/>
      <point x="204.94285714285715" y="427.9555555555555" type="line"/>
      <point x="329.8309523809524" y="714.0" type="line"/>
      <point x="162.67460317460313" y="714.0" type="line"/>
    </contour>
    <contour>
      <point x="351.22301587301587" y="427.9555555555555" type="line"/>
      <point x="421.3690476190476" y="427.9555555555555" type="line"/>
      <point x="545.7095238095238" y="714.0" type="line"/>
      <point x="379.2666666666667" y="714.0" type="line"/>
    </contour>
  </outline>
</glyph>
<glyph name="numbersign" format="2">
  <advance width="520.5698412698413"/>
  <unicode hex="0023"/>
  <outline>
    <contour>
      <point x="57.33412698412699" y="0.0" type="line"/>
      <point x="128.28015873015875" y="0.0" type="line"/>
      <point x="186.18015873015875" y="199.27142857142857" type="line"/>
      <point x="286.79206349206345" y="199.27142857142857" type="line"/>
      <point x="230.23888888888885" y="0.0" type="line"/>
      <point x="301.21984126984125" y="0.0" type="line"/>
      <point x="357.57222222222225" y="199.27142857142857" type="line"/>
      <point x="469.51111111111106" y="199.27142857142857" type="line"/>
      <point x="476.87777777777774" y="270.80396825396826" type="line"/>
      <point x="379.3007936507937" y="270.80396825396826" type="line"/>
      <point x="429.55793650793646" y="447.6484126984127" type="line"/>
      <point x="527.1444444444446" y="447.6484126984127" type="line"/>
      <point x="536.6063492063491" y="520.7285714285714" type="line"/>
      <point x="451.834126984127" y="520.7285714285714" type="line"/>
      <point x="507.18650793650795" y="714.0" type="line"/>
      <point x="436.4063492063492" y="714.0" type="line"/>
      <point x="381.05396825396826" y="520.7285714285714" type="line"/>
      <point x="279.89444444444445" y="520.7285714285714" type="line"/>
      <point x="334.08095238095234" y="714.0" type="line"/>
      <point x="262.6674603174603" y="714.0" type="line"/>
      <point x="209.31507936507936" y="520.7285714285714" type="line"/>
      <point x="98.00396825396825" y="520.7285714285714" type="line"/>
      <point x="88.54206349206349" y="447.6484126984127" type="line"/>
      <point x="187.03888888888892" y="447.6484126984127" type="line"/>
      <point x="135.5809523809524" y="270.80396825396826" type="line"/>
      <point x="38.823015873015876" y="270.80396825396826" type="line"/>
      <point x="31.45634920634921" y="199.27142857142857" type="line"/>
      <point x="115.39999999999999" y="199.27142857142857" type="line"/>
    </contour>
    <contour>
      <point x="205.64761904761903" y="270.80396825396826" type="line"/>
      <point x="257.4523809523809" y="447.6484126984127" type="line"/>
      <point x="359.6119047619047" y="447.6484126984127" type="line"/>
      <point x="307.8071428571429" y="270.80396825396826" type="line"/>
    </contour>
  </outline>
</glyph>
<glyph name="percent" format="2">
  <advance width="859.0396825396825"/>
  <unicode hex="0025"/>
  <outline>
    <contour>
      <point x="184.53571428571428" y="0.0" type="line"/>
      <point x="259.04523809523806" y="0.0" type="line"/>
      <point x="726.2571428571429" y="714.0" type="line"/>
      <point x="654.7459603174603" y="714.0" type="line"/>
    </contour>
    <contour>
      <point x="210.01825396825396" y="279.45238095238096" type="curve" smooth="yes"/>
      <point x="369.49365079365083" y="279.45238095238096"/>
      <point x="441.3634920634921" y="463.66666666666674"/>
      <point x="441.3634920634921" y="581.5111111111112" type="curve" smooth="yes"/>
      <point x="441.3634920634921" y="662.1801587301588"/>
      <point x="399.2214285714285" y="724.547619047619"/>
      <point x="303.00238095238103" y="724.547619047619" type="curve" smooth="yes"/>
      <point x="145.44682539682537" y="724.547619047619"/>
      <point x="75.4563492063492" y="546.6"/>
      <point x="75.4563492063492" y="418.7603174603175" type="curve"/>
      <point x="75.4563492063492" y="329.18650793650795"/>
      <point x="128.04603174603176" y="279.45238095238096"/>
    </contour>
    <contour>
      <point x="225.00238095238095" y="333.53253968253966" type="curve" smooth="yes"/>
      <point x="199.18650793650792" y="333.53253968253966"/>
      <point x="188.834126984127" y="364.4230158730159"/>
      <point x="188.834126984127" y="411.097619047619" type="curve" smooth="yes"/>
      <point x="188.834126984127" y="488.0976190476191"/>
      <point x="229.65317460317456" y="668.5531746031745"/>
      <point x="299.81666666666666" y="668.5531746031745" type="curve" smooth="yes"/>
      <point x="326.97936507936504" y="668.5531746031745"/>
      <point x="335.9849206349207" y="639.7428571428571"/>
      <point x="335.9849206349207" y="593.2888888888888" type="curve" smooth="yes"/>
      <point x="335.9849206349207" y="514.3746031746031"/>
      <point x="295.165873015873" y="333.53253968253966"/>
    </contour>
    <contour>
      <point x="606.4341269841269" y="-10.18095238095238" type="curve" smooth="yes"/>
      <point x="765.9095238095239" y="-10.18095238095238"/>
      <point x="837.6134920634921" y="173.48571428571427"/>
      <point x="837.6134920634921" y="291.1642857142857" type="curve" smooth="yes"/>
      <point x="837.6134920634921" y="371.6325396825397"/>
      <point x="795.6373015873015" y="434.0"/>
      <point x="699.252380952381" y="434.0" type="curve" smooth="yes"/>
      <point x="541.8626984126983" y="434.0"/>
      <point x="471.8722222222222" y="256.4190476190476"/>
      <point x="471.8722222222222" y="128.41349206349207" type="curve"/>
      <point x="471.8722222222222" y="39.5531746031746"/>
      <point x="524.2960317460318" y="-10.18095238095238"/>
    </contour>
    <contour>
      <point x="620.3380952380953" y="43.35158730158731" type="curve" smooth="yes"/>
      <point x="594.8888888888888" y="43.35158730158731"/>
      <point x="584.5365079365079" y="74.07619047619048"/>
      <point x="584.5365079365079" y="120.91666666666666" type="curve" smooth="yes"/>
      <point x="584.5365079365079" y="197.55"/>
      <point x="625.3555555555555" y="378.3722222222222"/>
      <point x="695.5190476190477" y="378.3722222222222" type="curve" smooth="yes"/>
      <point x="722.6817460317461" y="378.3722222222222"/>
      <point x="731.6873015873016" y="349.19523809523804"/>
      <point x="731.6873015873016" y="303.0880952380953" type="curve" smooth="yes"/>
      <point x="731.6873015873016" y="224.37460317460318"/>
      <point x="691.034126984127" y="43.35158730158731"/>
    </contour>
  </outline>
</glyph>
<glyph name="quotesingle" format="2">
  <advance width="287.99444444444447"/>
  <unicode hex="0027"/>
  <outline>
    <contour>
      <point x="145.94603174603174" y="427.9555555555555" type="line"/>
      <point x="216.2579365079365" y="427.9555555555555" type="line"/>
      <point x="326.965873015873" y="714.0" type="line"/>
      <point x="160.72380952380954" y="714.0" type="line"/>
    </contour>
  </outline>
</glyph>
<glyph name="parenleft" format="2">
  <advance width="396.1333333333334"/>
  <unicode hex="0028"/>
  <outline>
    <contour>
      <point x="271.6380952380952" y="-142.08015873015873" type="curve"/>
      <point x="286.1" y="-73.19603174603174" type="line"/>
      <point x="229.50873015873015" y="-28.00952380952381"/>
      <point x="210.05555555555554" y="54.65555555555556"/>
      <point x="210.05555555555554" y="133.36031746031748" type="curve" smooth="yes"/>
      <point x="210.05555555555554" y="265.74444444444447"/>
      <point x="258.5079365079365" y="591.8103174603174"/>
      <point x="453.1857142857143" y="707.5428571428572" type="curve"/>
      <point x="463.552380952381" y="775.2611111111112" type="line"/>
      <point x="179.95079365079366" y="707.3166666666667"/>
      <point x="41.63333333333333" y="428.1936507936508"/>
      <point x="41.63333333333333" y="179.6357142857143" type="curve" smooth="yes"/>
      <point x="41.63333333333333" y="36.91111111111111"/>
      <point x="109.32301587301586" y="-86.79841269841269"/>
    </contour>
  </outline>
</glyph>
<glyph name="parenright" format="2">
  <advance width="396.1333333333334"/>
  <unicode hex="0029"/>
  <outline>
    <contour>
      <point x="-41.25714285714285" y="-138.18095238095236" type="line"/>
      <point x="243.05793650793652" y="-70.78412698412698"/>
      <point x="380.66190476190474" y="209.05238095238093"/>
      <point x="380.66190476190474" y="456.89682539682536" type="curve" smooth="yes"/>
      <point x="380.66190476190474" y="599.6214285714286"/>
      <point x="313.1730158730159" y="723.1650793650794"/>
      <point x="151.2047619047619" y="778.6126984126983" type="curve"/>
      <point x="136.90873015873015" y="709.7285714285714" type="line"/>
      <point x="192.78650793650792" y="665.0896825396827"/>
      <point x="211.87301587301587" y="582.2436507936507"/>
      <point x="211.87301587301587" y="503.37301587301585" type="curve" smooth="yes"/>
      <point x="211.87301587301587" y="371.1547619047619"/>
      <point x="164.50079365079364" y="44.72222222222223"/>
      <point x="-30.890476190476193" y="-70.29682539682538" type="curve"/>
    </contour>
  </outline>
</glyph>
<glyph name="asterisk" format="2">
  <advance width="578.6730158730159"/>
  <unicode hex="002A"/>
  <outline>
    <contour>
      <point x="368.85079365079366" y="354.0103174603175" type="line"/>
      <point x="367.5134920634921" y="521.4674603174602" type="line"/>
      <point x="478.9761904761904" y="385.56825396825406" type="line"/>
      <point x="547.2325396825398" y="478.0" type="line"/>
      <point x="418.74444444444447" y="546.9198412698412" type="line"/>
      <point x="561.0420634920637" y="551.1158730158731" type="line"/>
      <point x="538.8198412698413" y="664.623015873016" type="line"/>
      <point x="382.8603174603175" y="590.5428571428572" type="line"/>
      <point x="452.9460317460318" y="740.376984126984" type="line"/>
      <point x="340.2912698412699" y="765.0" type="line"/>
      <point x="338.447619047619" y="597.376984126984" type="line"/>
      <point x="228.784126984127" y="737.623015873016" type="line"/>
      <point x="161.07539682539684" y="642.0103174603174" type="line"/>
      <point x="290.1111111111111" y="574.8190476190476" type="line"/>
      <point x="145.71825396825395" y="567.9095238095239" type="line"/>
      <point x="169.14126984126986" y="456.115873015873" type="line"/>
      <point x="324.447619047619" y="532.5428571428572" type="line"/>
      <point x="257.19603174603174" y="378.46746031746034" type="line"/>
    </contour>
  </outline>
</glyph>
<glyph name="plus" format="2">
  <advance width="513.3349206349206"/>
  <unicode hex="002B"/>
  <outline>
    <contour>
      <point x="230.41746031746032" y="140.2253968253968" type="line"/>
      <point x="305.6984126984127" y="140.2253968253968" type="line"/>
      <point x="305.6984126984127" y="320.7436507936508" type="line"/>
      <point x="472.4793650793651" y="320.7436507936508" type="line"/>
      <point x="472.4793650793651" y="394.2563492063492" type="line"/>
      <point x="305.6984126984127" y="394.2563492063492" type="line"/>
      <point x="305.6984126984127" y="574.7746031746032" type="line"/>
      <point x="230.41746031746032" y="574.7746031746032" type="line"/>
      <point x="230.41746031746032" y="394.2563492063492" type="line"/>
      <point x="64.26984126984127" y="394.2563492063492" type="line"/>
      <point x="64.26984126984127" y="320.7436507936508" type="line"/>
      <point x="230.41746031746032" y="320.7436507936508" type="line"/>
    </contour>
  </outline>
</glyph>
<glyph name="comma" format="2">
  <advance width="306.53253968253966"/>
  <unicode hex="002C"/>
  <outline>
    <contour>
      <point x="-11.839682539682538" y="-152.62301587301585" type="line"/>
      <point x="135.1873015873016" y="-123.18095238095236"/>
      <point x="212.7904761904762" y="-37.242063492063494"/>
      <point x="212.7904761904762" y="68.03888888888889" type="curve" smooth="yes"/>
      <point x="212.7904761904762" y="126.72777777777777"/>
      <point x="175.82936507936512" y="159.88888888888889"/>
      <point x="129.30555555555557" y="159.88888888888889" type="curve" smooth="yes"/>
      <point x="88.96825396825396" y="159.88888888888889"/>
      <point x="52.69682539682539" y="131.69841269841268"/>
      <point x="52.69682539682539" y="86.68888888888888" type="curve" smooth="yes"/>
      <point x="52.69682539682539" y="29.1"/>
      <point x="99.94603174603174" y="29.713492063492065"/>
      <point x="99.94603174603174" y="-12.442857142857143" type="curve" smooth="yes"/>
      <point x="99.94603174603174" y="-52.17619047619048"/>
      <point x="66.94523809523811" y="-79.82936507936508"/>
      <point x="2.0642857142857154" y="-96.54285714285714" type="curve"/>
    </contour>
  </outline>
</glyph>
<glyph name="hyphen" format="2">
  <advance width="288.76825396825393"/>
  <unicode hex="002D"/>
  <outline>
    <contour>
      <point x="10.923809523809524" y="216.01031746031745" type="line"/>
      <point x="252.99206349206352" y="216.01031746031745" type="line"/>
      <point x="278.8960317460317" y="328.9896825396825" type="line"/>
      <point x="36.66190476190476" y="328.9896825396825" type="line"/>
    </contour>
  </outline>
</glyph>
<glyph name="period" format="2">
  <advance width="306.53253968253966"/>
  <unicode hex="002E"/>
  <outline>
    <contour>
      <point x="118.75" y="-8.0" type="curve" smooth="yes"/>
      <point x="162.34841269841272" y="-8.0"/>
      <point x="210.0619047619048" y="16.095238095238095"/>
      <point x="210.0619047619048" y="86.74285714285713" type="curve" smooth="yes"/>
      <point x="210.0619047619048" y="136.9793650793651"/>
      <point x="175.09126984126985" y="160.88888888888889"/>
      <point x="127.13095238095238" y="160.88888888888889" type="curve" smooth="yes"/>
      <point x="71.9698412698413" y="160.88888888888889"/>
      <point x="35.984920634920634" y="122.69841269841271"/>
      <point x="35.984920634920634" y="66.27698412698412" type="curve" smooth="yes"/>
      <point x="35.984920634920634" y="16.191269841269843"/>
      <point x="69.86984126984127" y="-8.0"/>
    </contour>
  </outline>
</glyph>
<glyph name="slash" format="2">
  <advance width="268.2349206349207"/>
  <unicode hex="002F"/>
  <outline>
    <contour>
      <point x="-102.41349206349206" y="-121.0" type="line"/>
      <point x="-23.357142857142854" y="-121.0" type="line"/>
      <point x="392.69920634920635" y="760.0" type="line"/>
      <point x="313.4769841269841" y="760.0" type="line"/>
    </contour>
  </outline>
</glyph>
<glyph name="zero" format="2">
  <advance width="539.5166666666668"/>
  <unicode hex="0030"/>
  <outline>
    <contour>
      <point x="240.0936507936508" y="-11.0" type="curve" smooth="yes"/>
      <point x="457.047619047619" y="-11.0"/>
      <point x="554.2539682539684" y="302.93095238095236"/>
      <point x="554.2539682539684" y="502.03253968253966" type="curve" smooth="yes"/>
      <point x="554.2539682539684" y="656.4666666666667"/>
      <point x="470.13015873015877" y="725.0"/>
      <point x="361.64444444444445" y="725.0" type="curve" smooth="yes"/>
      <point x="144.34365079365077" y="725.0"/>
      <point x="43.50396825396825" y="429.802380952381"/>
      <point x="43.50396825396825" y="224.43492063492064" type="curve" smooth="yes"/>
      <point x="43.50396825396825" y="71.00079365079365"/>
      <point x="122.36111111111111" y="-11.0"/>
    </contour>
    <contour>
      <point x="245.565873015873" y="60.97460317460318" type="curve" smooth="yes"/>
      <point x="210.38174603174605" y="60.97460317460318"/>
      <point x="187.48015873015873" y="99.64920634920635"/>
      <point x="187.48015873015873" y="177.1896825396825" type="curve" smooth="yes"/>
      <point x="187.48015873015873" y="344.1698412698413"/>
      <point x="262.42301587301586" y="654.0253968253969"/>
      <point x="357.71984126984125" y="654.0253968253969" type="curve" smooth="yes"/>
      <point x="395.45158730158727" y="654.0253968253969"/>
      <point x="416.7198412698413" y="615.3507936507937"/>
      <point x="416.7198412698413" y="539.8103174603174" type="curve" smooth="yes"/>
      <point x="416.7198412698413" y="376.0912698412698"/>
      <point x="346.3246031746032" y="60.97460317460318"/>
    </contour>
  </outline>
</glyph>
<glyph name="one" format="2">
  <advance width="539.5166666666668"/>
  <unicode hex="0031"/>
  <outline>
    <contour>
      <point x="44.385714285714286" y="0.0" type="line"/>
      <point x="446.4452380952381" y="0.0" type="line"/>
      <point x="458.54047619047617" y="56.08015873015873" type="line"/>
      <point x="414.6492063492064" y="56.08015873015873" type="line" smooth="yes"/>
      <point x="375.1150793650793" y="56.08015873015873"/>
      <point x="344.2198412698413" y="59.532539682539685"/>
      <point x="344.2198412698413" y="86.54285714285714" type="curve" smooth="yes"/>
      <point x="344.2198412698413" y="95.09047619047618"/>
      <point x="348.747619047619" y="115.34682539682541"/>
      <point x="351.4809523809523" y="127.34523809523809" type="curve" smooth="yes"/>
      <point x="477.2198412698413" y="718.0" type="line"/>
      <point x="352.3912698412699" y="718.0" type="line"/>
      <point x="276.32380952380953" y="666.0" type="line" smooth="yes"/>
      <point x="204.72380952380954" y="617.0"/>
      <point x="157.11984126984126" y="601.0"/>
      <point x="114.0531746031746" y="589.0" type="curve"/>
      <point x="113.31984126984126" y="537.2968253968254"/>
      <point x="135.10396825396825" y="509.3873015873016"/>
      <point x="161.27063492063493" y="509.3873015873016" type="curve" smooth="yes"/>
      <point x="201.17142857142858" y="509.3873015873016"/>
      <point x="238.72460317460315" y="547.4531746031746"/>
      <point x="296.98253968253965" y="613.3873015873017" type="curve"/>
      <point x="300.61587301587304" y="613.3873015873017" type="line"/>
      <point x="287.3150793650794" y="570.5182539682539"/>
      <point x="277.74206349206344" y="527.6539682539683"/>
      <point x="268.12380952380954" y="482.0960317460317" type="curve" smooth="yes"/>
      <point x="191.8722222222222" y="118.9095238095238" type="line" smooth="yes"/>
      <point x="182.60079365079363" y="75.43174603174602"/>
      <point x="158.59920634920633" y="56.08015873015873"/>
      <point x="114.3515873015873" y="56.08015873015873" type="curve" smooth="yes"/>
      <point x="56.480952380952374" y="56.08015873015873" type="line"/>
    </contour>
  </outline>
</glyph>
<glyph name="two" format="2">
  <advance width="539.5166666666668"/>
  <unicode hex="0032"/>
  <outline>
    <contour>
      <point x="-11.854761904761903" y="0.0" type="line"/>
      <point x="446.1714285714286" y="0.0" type="line"/>
      <point x="499.170634920635" y="221.04444444444442" type="line"/>
      <point x="436.5873015873016" y="221.04444444444442" type="line"/>
      <point x="429.934126984127" y="202.31587301587302" type="line" smooth="yes"/>
      <point x="414.9944444444444" y="159.52698412698413"/>
      <point x="390.87301587301596" y="118.51190476190477"/>
      <point x="329.26349206349204" y="118.51190476190477" type="curve" smooth="yes"/>
      <point x="112.36190476190478" y="118.51190476190477" type="line"/>
      <point x="291.60396825396833" y="265.44682539682543" type="line" smooth="yes"/>
      <point x="489.37777777777785" y="417.53253968253966"/>
      <point x="554.1698412698413" y="488.4071428571429"/>
      <point x="554.1698412698413" y="588.8031746031745" type="curve" smooth="yes"/>
      <point x="554.1698412698413" y="672.4619047619047"/>
      <point x="479.7761904761905" y="724.0"/>
      <point x="348.6619047619048" y="724.0" type="curve" smooth="yes"/>
      <point x="201.3674603174603" y="724.0"/>
      <point x="121.49126984126985" y="657.447619047619"/>
      <point x="121.49126984126985" y="575.5484126984127" type="curve" smooth="yes"/>
      <point x="121.49126984126985" y="513.8396825396825"/>
      <point x="174.62222222222223" y="484.48809523809524"/>
      <point x="246.37619047619052" y="484.48809523809524" type="curve"/>
      <point x="250.20555555555555" y="584.0103174603174"/>
      <point x="283.3825396825397" y="658.7388888888888"/>
      <point x="335.93888888888887" y="658.7388888888888" type="curve" smooth="yes"/>
      <point x="371.2984126984127" y="658.7388888888888"/>
      <point x="390.6468253968255" y="621.9341269841269"/>
      <point x="390.6468253968255" y="570.6111111111111" type="curve" smooth="yes"/>
      <point x="390.6468253968255" y="486.370634920635"/>
      <point x="360.92698412698417" y="418.3"/>
      <point x="228.43253968253967" y="301.80396825396826" type="curve" smooth="yes"/>
      <point x="9.18015873015873" y="109.16031746031746" type="line"/>
    </contour>
  </outline>
</glyph>
<glyph name="three" format="2">
  <advance width="539.5166666666668"/>
  <unicode hex="0033"/>
  <outline>
    <contour>
      <point x="207.3952380952381" y="-10.0" type="curve" smooth="yes"/>
      <point x="338.8753968253968" y="-10.0"/>
      <point x="499.33571428571435" y="48.733333333333334"/>
      <point x="499.33571428571435" y="227.93333333333334" type="curve" smooth="yes"/>
      <point x="499.33571428571435" y="311.934126984127"/>
      <point x="446.102380952381" y="360.9246031746032"/>
      <point x="361.60158730158736" y="370.7587301587302" type="curve"/>
      <point x="488.102380952381" y="394.9246031746032"/>
      <point x="552.1690476190475" y="489.83333333333326"/>
      <point x="552.1690476190475" y="582.9992063492064" type="curve" smooth="yes"/>
      <point x="552.1690476190475" y="672.7333333333333"/>
      <point x="472.78492063492064" y="724.0"/>
      <point x="353.85714285714283" y="724.0" type="curve" smooth="yes"/>
      <point x="219.93492063492064" y="724.0"/>
      <point x="112.78730158730158" y="655.5230158730159"/>
      <point x="112.78730158730158" y="573.5230158730159" type="curve" smooth="yes"/>
      <point x="112.78730158730158" y="525.7539682539683"/>
      <point x="165.53650793650795" y="510.91984126984124"/>
      <point x="234.02936507936508" y="510.91984126984124" type="curve"/>
      <point x="247.13492063492063" y="589.9198412698412"/>
      <point x="272.6880952380953" y="659.9198412698412"/>
      <point x="332.3904761904762" y="659.9198412698412" type="curve" smooth="yes"/>
      <point x="375.02619047619055" y="659.9198412698412"/>
      <point x="390.59523809523813" y="625.9690476190476"/>
      <point x="390.59523809523813" y="579.1134920634921" type="curve" smooth="yes"/>
      <point x="390.59523809523813" y="472.481746031746"/>
      <point x="311.6285714285715" y="401.6230158730159"/>
      <point x="202.44523809523807" y="401.6230158730159" type="curve" smooth="yes"/>
      <point x="172.64523809523806" y="401.6230158730159" type="line"/>
      <point x="162.44444444444443" y="336.5428571428571" type="line"/>
      <point x="202.9126984126984" y="336.5428571428571" type="line" smooth="yes"/>
      <point x="288.32777777777784" y="336.5428571428571"/>
      <point x="335.7619047619048" y="295.4865079365079"/>
      <point x="335.7619047619048" y="222.34047619047618" type="curve" smooth="yes"/>
      <point x="335.7619047619048" y="118.72777777777777"/>
      <point x="276.45873015873013" y="65.7031746031746"/>
      <point x="222.75158730158728" y="65.7031746031746" type="curve" smooth="yes"/>
      <point x="155.1452380952381" y="65.7031746031746"/>
      <point x="122.06349206349208" y="120.53253968253968"/>
      <point x="123.36428571428573" y="203.78333333333333" type="curve"/>
      <point x="46.78174603174603" y="203.78333333333333"/>
      <point x="4.8769841269841265" y="168.97936507936507"/>
      <point x="4.8769841269841265" y="114.56825396825398" type="curve" smooth="yes"/>
      <point x="4.8769841269841265" y="58.387301587301586"/>
      <point x="57.28571428571429" y="-10.0"/>
    </contour>
  </outline>
</glyph>
<glyph name="four" format="2">
  <advance width="539.5166666666668"/>
  <unicode hex="0034"/>
  <outline>
    <contour>
      <point x="125.2920634920635" y="0.0" type="line"/>
      <point x="462.647619047619" y="0.0" type="line"/>
      <point x="474.9087301587302" y="56.08015873015873" type="line"/>
      <point x="460.018253968254" y="56.08015873015873" type="line" smooth="yes"/>
      <point x="424.2126984126984" y="56.08015873015873"/>
      <point x="402.22142857142865" y="61.71349206349206"/>
      <point x="402.22142857142865" y="94.61349206349207" type="curve" smooth="yes"/>
      <point x="402.22142857142865" y="101.34682539682541"/>
      <point x="404.22142857142865" y="119.4420634920635"/>
      <point x="406.22142857142865" y="127.80873015873017" type="curve" smooth="yes"/>
      <point x="530.9603174603176" y="714.0" type="line"/>
      <point x="377.11111111111114" y="714.0" type="line"/>
      <point x="30.32063492063492" y="251.08015873015873" type="line"/>
      <point x="14.130158730158733" y="183.63333333333333" type="line"/>
      <point x="505.36746031746037" y="183.63333333333333" type="line"/>
      <point x="519.9150793650795" y="251.834126984127" type="line"/>
      <point x="67.71904761904761" y="251.834126984127" type="line"/>
      <point x="83.00079365079365" y="228.3468253968254" type="line"/>
      <point x="247.9944444444444" y="448.51746031746035" type="line" smooth="yes"/>
      <point x="278.63253968253974" y="489.54603174603176"/>
      <point x="328.0706349206349" y="563.0079365079365"/>
      <point x="357.60873015873017" y="615.1912698412698" type="curve"/>
      <point x="338.97539682539684" y="553.1912698412698"/>
      <point x="321.68888888888887" y="475.11587301587304"/>
      <point x="310.68888888888887" y="423.7388888888889" type="curve" smooth="yes"/>
      <point x="247.784126984127" y="128.08015873015873" type="line" smooth="yes"/>
      <point x="232.88968253968255" y="58.457142857142856"/>
      <point x="190.3611111111111" y="56.08015873015873"/>
      <point x="156.83174603174604" y="56.08015873015873" type="curve" smooth="yes"/>
      <point x="136.5531746031746" y="56.08015873015873" type="line"/>
    </contour>
  </outline>
</glyph>
<glyph name="five" format="2">
  <advance width="539.5166666666668"/>
  <unicode hex="0035"/>
  <outline>
    <contour>
      <point x="201.83571428571432" y="-10.0" type="curve" smooth="yes"/>
      <point x="387.8595238095238" y="-10.0"/>
      <point x="496.4952380952381" y="103.38095238095237"/>
      <point x="496.4952380952381" y="251.74206349206347" type="curve" smooth="yes"/>
      <point x="496.4952380952381" y="370.7230158730159"/>
      <point x="411.57777777777784" y="435.80396825396826"/>
      <point x="280.01111111111106" y="435.80396825396826" type="curve" smooth="yes"/>
      <point x="233.03492063492064" y="435.80396825396826"/>
      <point x="203.32063492063494" y="427.35158730158736"/>
      <point x="179.69206349206348" y="419.80396825396826" type="curve"/>
      <point x="229.96507936507936" y="597.0357142857143" type="line"/>
      <point x="424.49285714285713" y="597.0357142857143" type="line" smooth="yes"/>
      <point x="460.45396825396824" y="597.0357142857143"/>
      <point x="470.9214285714286" y="587.402380952381"/>
      <point x="470.9214285714286" y="572.2214285714286" type="curve" smooth="yes"/>
      <point x="470.9214285714286" y="564.5880952380953"/>
      <point x="468.9015873015873" y="540.6738095238096"/>
      <point x="467.18809523809523" y="523.3071428571429" type="curve"/>
      <point x="532.3190476190476" y="523.3071428571429" type="line"/>
      <point x="563.3484126984125" y="714.0" type="line"/>
      <point x="191.91349206349207" y="714.0" type="line"/>
      <point x="94.26904761904761" y="370.03015873015875" type="line"/>
      <point x="136.6214285714286" y="345.0904761904762" type="line"/>
      <point x="159.52698412698413" y="356.0904761904762"/>
      <point x="187.06031746031746" y="367.0904761904762"/>
      <point x="230.2984126984127" y="367.0904761904762" type="curve" smooth="yes"/>
      <point x="292.1904761904762" y="367.0904761904762"/>
      <point x="337.61507936507934" y="326.552380952381"/>
      <point x="337.61507936507934" y="244.37539682539682" type="curve" smooth="yes"/>
      <point x="337.61507936507934" y="125.48095238095239"/>
      <point x="288.80873015873016" y="63.98968253968254"/>
      <point x="212.89603174603172" y="63.98968253968254" type="curve" smooth="yes"/>
      <point x="130.04920634920637" y="63.98968253968254"/>
      <point x="113.16349206349207" y="138.9595238095238"/>
      <point x="112.8968253968254" y="198.13015873015874" type="curve"/>
      <point x="47.46904761904762" y="198.13015873015874"/>
      <point x="17.579365079365083" y="158.51746031746032"/>
      <point x="17.579365079365083" y="111.24682539682539" type="curve" smooth="yes"/>
      <point x="17.579365079365083" y="45.28174603174603"/>
      <point x="69.46984126984127" y="-10.0"/>
    </contour>
  </outline>
</glyph>
<glyph name="six" format="2">
  <advance width="539.5166666666668"/>
  <unicode hex="0036"/>
  <outline>
    <contour>
      <point x="253.3801587301587" y="-10.0" type="curve" smooth="yes"/>
      <point x="432.0166666666667" y="-10.0"/>
      <point x="518.4349206349207" y="124.28015873015873"/>
      <point x="518.4349206349207" y="265.21428571428584" type="curve" smooth="yes"/>
      <point x="518.4349206349207" y="359.56190476190477"/>
      <point x="469.8349206349206" y="438.9095238095238"/>
      <point x="363.7" y="438.9095238095238" type="curve" smooth="yes"/>
      <point x="298.29126984126987" y="438.9095238095238"/>
      <point x="255.58095238095243" y="413.3515873015873"/>
      <point x="227.41428571428574" y="389.4571428571429" type="curve"/>
      <point x="265.14365079365075" y="573.452380952381"/>
      <point x="322.497619047619" y="661.9198412698412"/>
      <point x="396.1095238095238" y="661.9198412698412" type="curve" smooth="yes"/>
      <point x="441.9912698412699" y="661.9198412698412"/>
      <point x="446.52460317460316" y="596.115873015873"/>
      <point x="445.4246031746032" y="529.6587301587301" type="curve"/>
      <point x="529.8317460317461" y="529.6587301587301"/>
      <point x="579.9873015873017" y="563.3015873015875"/>
      <point x="579.9873015873017" y="618.1603174603175" type="curve" smooth="yes"/>
      <point x="579.9873015873017" y="675.2761904761905"/>
      <point x="525.1968253968254" y="724.0"/>
      <point x="420.97777777777776" y="724.0" type="curve" smooth="yes"/>
      <point x="194.44603174603174" y="724.0"/>
      <point x="53.70079365079365" y="474.6357142857143"/>
      <point x="53.70079365079365" y="225.83650793650793" type="curve" smooth="yes"/>
      <point x="53.70079365079365" y="67.17142857142858"/>
      <point x="142.79920634920634" y="-10.0"/>
    </contour>
    <contour>
      <point x="270.831746031746" y="57.36666666666666" type="curve" smooth="yes"/>
      <point x="228.11031746031745" y="57.36666666666666"/>
      <point x="201.1134920634921" y="99.64920634920635"/>
      <point x="201.1134920634921" y="194.5515873015873" type="curve" smooth="yes"/>
      <point x="201.1134920634921" y="235.79444444444445"/>
      <point x="205.334126984127" y="275.2817460317461"/>
      <point x="213.86666666666665" y="325.0" type="curve"/>
      <point x="236.12936507936507" y="349.27142857142854"/>
      <point x="272.397619047619" y="375.5428571428571"/>
      <point x="308.4650793650794" y="375.5428571428571" type="curve" smooth="yes"/>
      <point x="348.73412698412693" y="375.5428571428571"/>
      <point x="368.99682539682533" y="334.1246031746032"/>
      <point x="368.99682539682533" y="259.80079365079365" type="curve" smooth="yes"/>
      <point x="368.99682539682533" y="146.52539682539683"/>
      <point x="328.8095238095238" y="57.36666666666666"/>
    </contour>
  </outline>
</glyph>
<glyph name="seven" format="2">
  <advance width="539.5166666666668"/>
  <unicode hex="0037"/>
  <outline>
    <contour>
      <point x="104.79841269841269" y="0.0" type="line"/>
      <point x="190.4531746031746" y="0.0" type="line"/>
      <point x="589.8626984126984" y="646.4880952380953" type="line"/>
      <point x="602.5404761904762" y="714.0" type="line"/>
      <point x="150.05555555555557" y="714.0" type="line"/>
      <point x="103.47857142857144" y="496.0357142857143" type="line"/>
      <point x="168.6095238095238" y="496.0357142857143" type="line"/>
      <point x="182.4436507936508" y="546.0357142857143" type="line" smooth="yes"/>
      <point x="191.4436507936508" y="579.0357142857143"/>
      <point x="213.97698412698415" y="597.2015873015873"/>
      <point x="247.4103174603175" y="597.2015873015873" type="curve" smooth="yes"/>
      <point x="485.5492063492064" y="597.2015873015873" type="line"/>
    </contour>
  </outline>
</glyph>
<glyph name="eight" format="2">
  <advance width="539.5166666666668"/>
  <unicode hex="0038"/>
  <outline>
    <contour>
      <point x="251.9880952380952" y="-10.0" type="curve" smooth="yes"/>
      <point x="403.97539682539684" y="-10.0"/>
      <point x="510.02857142857147" y="57.46666666666667"/>
      <point x="510.02857142857147" y="204.93333333333334" type="curve" smooth="yes"/>
      <point x="510.02857142857147" y="284.46666666666664"/>
      <point x="462.96111111111105" y="339.9142857142858"/>
      <point x="399.8626984126984" y="380.8595238095238" type="curve"/>
      <point x="493.5134920634921" y="427.9142857142858"/>
      <point x="559.3944444444445" y="478.1"/>
      <point x="559.3944444444445" y="579.9992063492064" type="curve" smooth="yes"/>
      <point x="559.3944444444445" y="662.7333333333333"/>
      <point x="487.8095238095238" y="724.0"/>
      <point x="367.8912698412699" y="724.0" type="curve" smooth="yes"/>
      <point x="191.43015873015875" y="724.0"/>
      <point x="123.71507936507938" y="634.6793650793651"/>
      <point x="123.71507936507938" y="535.8960317460318" type="curve" smooth="yes"/>
      <point x="123.71507936507938" y="464.2119047619048"/>
      <point x="159.59603174603174" y="403.53809523809525"/>
      <point x="209.65396825396823" y="361.27142857142854" type="curve"/>
      <point x="105.32936507936509" y="317.90476190476187"/>
      <point x="23.634126984126986" y="272.9349206349206"/>
      <point x="23.634126984126986" y="159.46825396825398" type="curve" smooth="yes"/>
      <point x="23.634126984126986" y="61.10079365079365"/>
      <point x="115.7420634920635" y="-10.0"/>
    </contour>
    <contour>
      <point x="254.952380952381" y="50.532539682539685" type="curve" smooth="yes"/>
      <point x="199.26031746031748" y="50.532539682539685"/>
      <point x="166.17777777777778" y="90.17619047619047"/>
      <point x="166.17777777777778" y="154.51904761904763" type="curve" smooth="yes"/>
      <point x="166.17777777777778" y="235.08650793650796"/>
      <point x="205.4309523809524" y="289.00555555555553"/>
      <point x="271.24285714285713" y="320.0103174603175" type="curve"/>
      <point x="332.57380952380953" y="279.65317460317453"/>
      <point x="365.3698412698413" y="237.38650793650794"/>
      <point x="365.3698412698413" y="175.65714285714287" type="curve" smooth="yes"/>
      <point x="365.3698412698413" y="92.72301587301587"/>
      <point x="314.5634920634921" y="50.532539682539685"/>
    </contour>
    <contour>
      <point x="339.3087301587302" y="416.53253968253966" type="curve"/>
      <point x="294.5968253968254" y="448.88968253968255"/>
      <point x="270.88650793650794" y="492.3373015873016"/>
      <point x="270.88650793650794" y="541.6142857142856" type="curve" smooth="yes"/>
      <point x="270.88650793650794" y="616.2571428571428"/>
      <point x="310.9285714285715" y="663.6484126984127"/>
      <point x="361.26349206349204" y="663.6484126984127" type="curve" smooth="yes"/>
      <point x="403.99523809523816" y="663.6484126984127"/>
      <point x="425.84603174603177" y="624.8436507936507"/>
      <point x="425.84603174603177" y="573.9333333333334" type="curve" smooth="yes"/>
      <point x="425.84603174603177" y="511.0238095238095"/>
      <point x="402.6690476190476" y="456.55714285714294"/>
    </contour>
  </outline>
</glyph>
<glyph name="nine" format="2">
  <advance width="539.5166666666668"/>
  <unicode hex="0039"/>
  <outline>
    <contour>
      <point x="175.25396825396828" y="-10.0" type="curve" smooth="yes"/>
      <point x="441.5072142857143" y="-10.0"/>
      <point x="546.7468253968254" y="338.9968253968254"/>
      <point x="546.7468253968254" y="532.0634920634922" type="curve" smooth="yes"/>
      <point x="546.7468253968254" y="654.7984126984127"/>
      <point x="474.9904761904762" y="724.0"/>
      <point x="360.87142857142857" y="724.0" type="curve" smooth="yes"/>
      <point x="212.28326190476193" y="724.0"/>
      <point x="84.19206349206348" y="606.0007936507936"/>
      <point x="84.19206349206348" y="437.33333333333326" type="curve" smooth="yes"/>
      <point x="84.19206349206348" y="342.5333333333333"/>
      <point x="139.38571428571427" y="275.0"/>
      <point x="238.6261904761905" y="275.0" type="curve" smooth="yes"/>
      <point x="302.16587301587305" y="275.0"/>
      <point x="346.1920634920635" y="308.0"/>
      <point x="378.0119047619048" y="343.0" type="curve"/>
      <point x="328.97142857142853" y="159.5126984126984"/>
      <point x="276.96031746031747" y="56.80873015873016"/>
      <point x="187.51507936507937" y="56.80873015873016" type="curve" smooth="yes"/>
      <point x="132.97539682539684" y="56.80873015873016"/>
      <point x="112.25555555555557" y="116.76349206349205"/>
      <point x="111.9888888888889" y="169.552380952381" type="curve"/>
      <point x="60.49603174603174" y="169.552380952381"/>
      <point x="29.726984126984128" y="141.8793650793651"/>
      <point x="29.726984126984128" y="95.50793650793652" type="curve" smooth="yes"/>
      <point x="29.726984126984128" y="36.81428571428571"/>
      <point x="76.83333333333334" y="-10.0"/>
    </contour>
    <contour>
      <point x="294.16666666666663" y="351.88412698412696" type="curve" smooth="yes"/>
      <point x="257.54603174603176" y="351.88412698412696"/>
      <point x="235.27777777777777" y="383.3420634920635"/>
      <point x="235.27777777777777" y="444.11746031746026" type="curve" smooth="yes"/>
      <point x="235.27777777777777" y="544.7857142857143"/>
      <point x="281.6714285714285" y="653.9047619047619"/>
      <point x="344.2730158730159" y="653.9047619047619" type="curve" smooth="yes"/>
      <point x="378.8936507936508" y="653.9047619047619"/>
      <point x="403.50873015873015" y="620.1"/>
      <point x="403.50873015873015" y="539.434126984127" type="curve" smooth="yes"/>
      <point x="403.50873015873015" y="508.7476190476191"/>
      <point x="396.8555555555555" y="459.9039682539683"/>
      <point x="388.3230158730159" y="427.53253968253966" type="curve"/>
      <point x="368.49285714285713" y="390.8087301587301"/>
      <point x="337.2396825396825" y="352.05"/>
    </contour>
  </outline>
</glyph>
<glyph name="colon" format="2">
  <advance width="365.05000000000007"/>
  <unicode hex="003A"/>
  <outline>
    <contour>
      <point x="216.19761904761904" y="372.11111111111114" type="curve" smooth="yes"/>
      <point x="259.9968253968254" y="372.11111111111114"/>
      <point x="307.50952380952384" y="396.75396825396825"/>
      <point x="307.50952380952384" y="467.05476190476185" type="curve" smooth="yes"/>
      <point x="307.50952380952384" y="517.6380952380953"/>
      <point x="272.5388888888889" y="541.0"/>
      <point x="224.77936507936508" y="541.0" type="curve" smooth="yes"/>
      <point x="169.41746031746032" y="541.0"/>
      <point x="133.63333333333335" y="502.8095238095238"/>
      <point x="133.63333333333335" y="446.3880952380952" type="curve" smooth="yes"/>
      <point x="133.63333333333335" y="396.85"/>
      <point x="167.31746031746033" y="372.11111111111114"/>
    </contour>
    <contour>
      <point x="129.65952380952382" y="-8.0" type="curve" smooth="yes"/>
      <point x="173.4587301587302" y="-8.0"/>
      <point x="220.9714285714286" y="16.095238095238095"/>
      <point x="220.9714285714286" y="86.74285714285715" type="curve" smooth="yes"/>
      <point x="220.9714285714286" y="136.9793650793651"/>
      <point x="186.00079365079364" y="160.88888888888889"/>
      <point x="138.24126984126983" y="160.88888888888889" type="curve" smooth="yes"/>
      <point x="82.87936507936509" y="160.88888888888889"/>
      <point x="47.095238095238095" y="122.69841269841271"/>
      <point x="47.095238095238095" y="66.27698412698412" type="curve" smooth="yes"/>
      <point x="47.095238095238095" y="16.191269841269843"/>
      <point x="80.98015873015873" y="-8.0"/>
    </contour>
  </outline>
</glyph>
<glyph name="semicolon" format="2">
  <advance width="364.6833333333334"/>
  <unicode hex="003B"/>
  <outline>
    <contour>
      <point x="-13.561904761904763" y="-152.62301587301585" type="line"/>
      <point x="133.46507936507936" y="-123.18095238095236"/>
      <point x="210.70158730158732" y="-37.242063492063494"/>
      <point x="210.70158730158732" y="68.03888888888889" type="curve" smooth="yes"/>
      <point x="210.70158730158732" y="126.72777777777777"/>
      <point x="174.10714285714286" y="159.88888888888889"/>
      <point x="127.58333333333333" y="159.88888888888889" type="curve" smooth="yes"/>
      <point x="86.8793650793651" y="159.88888888888889"/>
      <point x="50.80873015873016" y="132.06507936507936"/>
      <point x="50.80873015873016" y="86.68888888888888" type="curve" smooth="yes"/>
      <point x="50.80873015873016" y="29.1"/>
      <point x="97.51031746031747" y="29.713492063492065"/>
      <point x="97.51031746031747" y="-12.442857142857143" type="curve" smooth="yes"/>
      <point x="97.51031746031747" y="-52.17619047619048"/>
      <point x="64.5095238095238" y="-79.82936507936508"/>
      <point x="0.1761904761904767" y="-96.54285714285714" type="curve"/>
    </contour>
    <contour>
      <point x="216.19761904761904" y="372.11111111111114" type="curve" smooth="yes"/>
      <point x="259.7960317460317" y="372.11111111111114"/>
      <point x="307.50952380952384" y="396.75396825396825"/>
      <point x="307.50952380952384" y="467.05476190476185" type="curve" smooth="yes"/>
      <point x="307.50952380952384" y="517.6380952380953"/>
      <point x="272.33809523809526" y="541.0"/>
      <point x="224.57857142857142" y="541.0" type="curve" smooth="yes"/>
      <point x="169.41746031746032" y="541.0"/>
      <point x="133.4325396825397" y="502.8095238095238"/>
      <point x="133.4325396825397" y="446.3880952380952" type="curve" smooth="yes"/>
      <point x="133.4325396825397" y="396.85"/>
      <point x="167.31746031746033" y="372.11111111111114"/>
    </contour>
  </outline>
</glyph>
<glyph name="less" format="2">
  <advance width="513.3349206349206"/>
  <unicode hex="003C"/>
  <outline>
    <contour>
      <point x="472.4793650793651" y="99.27539682539683" type="line"/>
      <point x="472.4793650793651" y="181.35555555555555" type="line"/>
      <point x="169.57857142857142" y="357.0" type="line"/>
      <point x="472.4793650793651" y="534.6444444444445" type="line"/>
      <point x="472.4793650793651" y="616.7246031746032" type="line"/>
      <point x="64.26984126984127" y="378.72857142857146" type="line"/>
      <point x="64.26984126984127" y="336.27142857142854" type="line"/>
    </contour>
  </outline>
</glyph>
<glyph name="equal" format="2">
  <advance width="513.3349206349206"/>
  <unicode hex="003D"/>
  <outline>
    <contour>
      <point x="61.722222222222236" y="417.69603174603174" type="line"/>
      <point x="475.37380952380954" y="417.69603174603174" type="line"/>
      <point x="475.37380952380954" y="490.5753968253968" type="line"/>
      <point x="61.722222222222236" y="490.5753968253968" type="line"/>
    </contour>
    <contour>
      <point x="61.722222222222236" y="223.4246031746032" type="line"/>
      <point x="475.37380952380954" y="223.4246031746032" type="line"/>
      <point x="475.37380952380954" y="296.30396825396826" type="line"/>
      <point x="61.722222222222236" y="296.30396825396826" type="line"/>
    </contour>
  </outline>
</glyph>
<glyph name="greater" format="2">
  <advance width="513.3349206349206"/>
  <unicode hex="003E"/>
  <outline>
    <contour>
      <point x="64.26984126984127" y="99.27539682539683" type="line"/>
      <point x="472.4793650793651" y="336.27142857142854" type="line"/>
      <point x="472.4793650793651" y="378.72857142857146" type="line"/>
      <point x="64.26984126984127" y="616.7246031746032" type="line"/>
      <point x="64.26984126984127" y="534.6444444444445" type="line"/>
      <point x="366.9698412698413" y="357.0" type="line"/>
      <point x="64.26984126984127" y="181.35555555555555" type="line"/>
    </contour>
  </outline>
</glyph>
<glyph name="question" format="2">
  <advance width="513.470634920635"/>
  <unicode hex="003F"/>
  <outline>
    <contour>
      <point x="187.61666666666667" y="232.81269841269844" type="line"/>
      <point x="258.49285714285713" y="232.81269841269844" type="line"/>
      <point x="293.07539682539687" y="317.0" type="line"/>
      <point x="428.1039682539683" y="368.69841269841265"/>
      <point x="529.4380952380952" y="443.431746031746"/>
      <point x="529.4380952380952" y="562.1293650793651" type="curve" smooth="yes"/>
      <point x="529.4380952380952" y="673.5674603174604"/>
      <point x="449.4038968253968" y="724.0"/>
      <point x="318.85476190476186" y="724.0" type="curve" smooth="yes"/>
      <point x="179.665873015873" y="724.0"/>
      <point x="89.42380952380952" y="666.5428571428572"/>
      <point x="89.42380952380952" y="593.447619047619" type="curve" smooth="yes"/>
      <point x="89.42380952380952" y="539.5531746031745"/>
      <point x="134.3936507936508" y="513.0103174603174"/>
      <point x="225.3936507936508" y="513.0103174603174" type="curve"/>
      <point x="233.31825396825397" y="589.0103174603174"/>
      <point x="254.77619047619046" y="659.9198412698412"/>
      <point x="304.66428571428565" y="659.9198412698412" type="curve" smooth="yes"/>
      <point x="335.84285714285716" y="659.9198412698412"/>
      <point x="359.74444444444435" y="624.7682539682539"/>
      <point x="359.74444444444435" y="562.9777777777779" type="curve" smooth="yes"/>
      <point x="359.74444444444435" y="449.5674603174603"/>
      <point x="287.70714285714286" y="395.91428571428577"/>
      <point x="177.38253968253966" y="352.72857142857146" type="curve"/>
    </contour>
    <contour>
      <point x="196.56825396825394" y="-8.0" type="curve" smooth="yes"/>
      <point x="240.36746031746034" y="-8.0"/>
      <point x="287.8801587301587" y="16.095238095238095"/>
      <point x="287.8801587301587" y="86.74285714285715" type="curve" smooth="yes"/>
      <point x="287.8801587301587" y="136.9793650793651"/>
      <point x="252.9095238095238" y="160.88888888888889"/>
      <point x="205.14999999999998" y="160.88888888888889" type="curve" smooth="yes"/>
      <point x="149.78809523809525" y="160.88888888888889"/>
      <point x="114.00396825396825" y="122.69841269841271"/>
      <point x="114.00396825396825" y="66.27698412698412" type="curve" smooth="yes"/>
      <point x="114.00396825396825" y="16.191269841269843"/>
      <point x="147.68809523809526" y="-8.0"/>
    </contour>
  </outline>
</glyph>
<glyph name="bracketleft" format="2">
  <advance width="409.03333333333336"/>
  <unicode hex="005B"/>
  <outline>
    <contour>
      <point x="24.6031746031746" y="-128.0" type="line"/>
      <point x="306.33571428571435" y="-128.0" type="line"/>
      <point x="317.8833333333334" y="-71.91984126984126" type="line"/>
      <point x="277.8166666666667" y="-71.91984126984126" type="line" smooth="yes"/>
      <point x="244.55873015873013" y="-71.91984126984126"/>
      <point x="215.5777777777778" y="-65.91984126984126"/>
      <point x="215.5777777777778" y="-24.215873015873015" type="curve" smooth="yes"/>
      <point x="215.5777777777778" y="-15.934920634920635"/>
      <point x="216.23095238095243" y="-9.19126984126984"/>
      <point x="218.23095238095243" y="0.9896825396825414" type="curve"/>
      <point x="350.8396825396826" y="631.9198412698412" type="line"/>
      <point x="363.8396825396826" y="694.9198412698412"/>
      <point x="402.6547619047619" y="703.9198412698412"/>
      <point x="442.8071428571429" y="703.9198412698412" type="curve" smooth="yes"/>
      <point x="483.0746031746032" y="703.9198412698412" type="line"/>
      <point x="495.33571428571435" y="760.0" type="line"/>
      <point x="213.6031746031746" y="760.0" type="line"/>
    </contour>
  </outline>
</glyph>
<glyph name="backslash" format="2">
  <advance width="268.2349206349207"/>
  <unicode hex="005C"/>
  <outline>
    <contour>
      <point x="153.7642857142857" y="-121.0" type="line"/>
      <point x="223.54444444444445" y="-121.0" type="line"/>
      <point x="178.80873015873016" y="760.0" type="line"/>
      <point x="108.31507936507937" y="760.0" type="line"/>
    </contour>
  </outline>
</glyph>
<glyph name="bracketright" format="2">
  <advance width="409.03333333333336"/>
  <unicode hex="005D"/>
  <outline>
    <contour>
      <point x="-54.43730158730159" y="-128.0" type="line"/>
      <point x="226.29523809523812" y="-128.0" type="line"/>
      <point x="415.1293650793651" y="760.0" type="line"/>
      <point x="133.5626984126984" y="760.0" type="line"/>
      <point x="122.01507936507936" y="703.9198412698412" type="line"/>
      <point x="162.08174603174606" y="703.9198412698412" type="line" smooth="yes"/>
      <point x="195.33968253968257" y="703.9198412698412"/>
      <point x="224.13968253968252" y="697.9198412698412"/>
      <point x="224.13968253968252" y="656.2158730158731" type="curve" smooth="yes"/>
      <point x="224.13968253968252" y="647.9349206349208"/>
      <point x="223.32063492063492" y="641.1912698412698"/>
      <point x="221.32063492063492" y="631.0103174603174" type="curve" smooth="yes"/>
      <point x="89.42539682539682" y="0.08015873015873232" type="line"/>
      <point x="76.42539682539682" y="-62.91984126984126"/>
      <point x="38.99206349206349" y="-71.91984126984126"/>
      <point x="-1.908730158730159" y="-71.91984126984126" type="curve" smooth="yes"/>
      <point x="-41.97539682539683" y="-71.91984126984126" type="line"/>
    </contour>
  </outline>
</glyph>
<glyph name="asciicircum" format="2">
  <advance width="513.3349206349206"/>
  <unicode hex="005E"/>
  <outline>
    <contour>
      <point x="44.380158730158726" y="254.1539682539683" type="line"/>
      <point x="121.42698412698412" y="254.1539682539683" type="line"/>
      <point x="266.8746031746032" y="600.3166666666667" type="line"/>
      <point x="413.7746031746032" y="254.1539682539683" type="line"/>
      <point x="491.02222222222224" y="254.1539682539683" type="line"/>
      <point x="289.21666666666664" y="714.0" type="line"/>
      <point x="245.69841269841274" y="714.0" type="line"/>
    </contour>
  </outline>
</glyph>
<glyph name="underscore" format="2">
  <advance width="427.3357142857143"/>
  <unicode hex="005F"/>
  <outline>
    <contour>
      <point x="-86.96666666666667" y="-142.0" type="line"/>
      <point x="349.002380952381" y="-142.0" type="line"/>
      <point x="362.002380952381" y="-83.0" type="line"/>
      <point x="-73.96666666666667" y="-83.0" type="line"/>
    </contour>
  </outline>
</glyph>
<glyph name="braceleft" format="2">
  <advance width="417.61031746031745"/>
  <unicode hex="007B"/>
  <outline>
    <contour>
      <point x="223.1031746031746" y="-124.27142857142857" type="curve" smooth="yes"/>
      <point x="323.5357142857143" y="-124.27142857142857" type="line"/>
      <point x="336.6309523809524" y="-68.02539682539681" type="line"/>
      <point x="296.9119047619048" y="-68.02539682539681" type="line" smooth="yes"/>
      <point x="261.2214285714286" y="-68.02539682539681"/>
      <point x="248.76349206349207" y="-50.83412698412699"/>
      <point x="248.76349206349207" y="-20.104761904761904" type="curve" smooth="yes"/>
      <point x="248.76349206349207" y="-5.256349206349206"/>
      <point x="250.13015873015877" y="10.457142857142857"/>
      <point x="254.13015873015874" y="27.457142857142863" type="curve" smooth="yes"/>
      <point x="289.0960317460318" y="187.44841269841268" type="line" smooth="yes"/>
      <point x="291.8293650793651" y="199.7031746031746"/>
      <point x="294.6626984126985" y="214.6595238095238"/>
      <point x="294.6626984126985" y="227.01428571428568" type="curve" smooth="yes"/>
      <point x="294.6626984126985" y="269.3515873015873"/>
      <point x="269.4103174603175" y="297.7436507936508"/>
      <point x="213.99603174603172" y="315.54761904761904" type="curve"/>
      <point x="216.52380952380952" y="323.68888888888887" type="line"/>
      <point x="293.1388888888889" y="342.5984126984127"/>
      <point x="329.1103174603175" y="380.88968253968255"/>
      <point x="341.92936507936514" y="440.0" type="curve" smooth="yes"/>
      <point x="377.0611111111112" y="601.4119047619048" type="line" smooth="yes"/>
      <point x="392.38174603174605" y="671.8944444444446"/>
      <point x="407.302380952381" y="704.4674603174602"/>
      <point x="459.00793650793656" y="704.4674603174602" type="curve" smooth="yes"/>
      <point x="499.4404761904762" y="704.4674603174602" type="line"/>
      <point x="511.70158730158727" y="760.0" type="line"/>
      <point x="418.26428571428573" y="760.0" type="line" smooth="yes"/>
      <point x="294.2738095238095" y="760.0"/>
      <point x="230.6222222222222" y="720.6007936507937"/>
      <point x="208.34126984126982" y="613.8190476190476" type="curve" smooth="yes"/>
      <point x="172.52222222222224" y="441.45238095238096" type="line" smooth="yes"/>
      <point x="157.41666666666666" y="368.4571428571429"/>
      <point x="107.99761904761905" y="353.53253968253966"/>
      <point x="46.563492063492056" y="352.08015873015876" type="curve"/>
      <point x="31.7547619047619" y="285.6484126984127" type="line"/>
      <point x="83.3547619047619" y="283.6484126984127"/>
      <point x="122.88888888888887" y="273.2714285714286"/>
      <point x="122.88888888888887" y="221.9190476190476" type="curve" smooth="yes"/>
      <point x="122.88888888888887" y="214.4468253968254"/>
      <point x="122.40158730158728" y="204.7484126984127"/>
      <point x="120.2357142857143" y="194.9095238095238" type="curve" smooth="yes"/>
      <point x="93.30555555555556" y="69.7063492063492" type="line" smooth="yes"/>
      <point x="81.96904761904763" y="15.430952380952384"/>
      <point x="80.78333333333333" y="-0.6031746031746028"/>
      <point x="80.78333333333333" y="-14.788095238095234" type="curve" smooth="yes"/>
      <point x="80.78333333333333" y="-82.38174603174602"/>
      <point x="128.35238095238097" y="-124.27142857142857"/>
    </contour>
  </outline>
</glyph>
<glyph name="bar" format="2">
  <advance width="526.7095238095238"/>
  <unicode hex="007C"/>
  <outline>
    <contour>
      <point x="236.38888888888886" y="-240.0" type="line"/>
      <point x="308.71666666666664" y="-240.0" type="line"/>
      <point x="308.71666666666664" y="760.0" type="line"/>
      <point x="236.38888888888886" y="760.0" type="line"/>
    </contour>
  </outline>
</glyph>
<glyph name="braceright" format="2">
  <advance width="417.61031746031745"/>
  <unicode hex="007D"/>
  <outline>
    <contour>
      <point x="-53.97539682539683" y="-123.0904761904762" type="line"/>
      <point x="38.74841269841271" y="-123.0904761904762" type="line" smooth="yes"/>
      <point x="163.60317460317458" y="-123.0904761904762"/>
      <point x="226.5761904761905" y="-82.75714285714285"/>
      <point x="249.03809523809522" y="23.457142857142863" type="curve" smooth="yes"/>
      <point x="285.03809523809525" y="194.9095238095238" type="line" smooth="yes"/>
      <point x="300.49047619047616" y="268.27142857142854"/>
      <point x="349.72857142857146" y="282.6484126984127"/>
      <point x="411.16269841269843" y="284.46746031746034" type="curve"/>
      <point x="425.97142857142853" y="350.53253968253966" type="line"/>
      <point x="374.37142857142857" y="352.53253968253966"/>
      <point x="334.6714285714286" y="363.09047619047624"/>
      <point x="334.6714285714286" y="414.8095238095238" type="curve" smooth="yes"/>
      <point x="334.6714285714286" y="422.6134920634921"/>
      <point x="335.4904761904762" y="432.1460317460317"/>
      <point x="337.4904761904762" y="441.61825396825395" type="curve" smooth="yes"/>
      <point x="367.3888888888889" y="583.1793650793651" type="line" smooth="yes"/>
      <point x="376.3095238095238" y="625.063492063492"/>
      <point x="376.59603174603177" y="640.2103174603176"/>
      <point x="376.59603174603177" y="652.0293650793651" type="curve" smooth="yes"/>
      <point x="376.59603174603177" y="718.8285714285714"/>
      <point x="329.6904761904762" y="761.547619047619"/>
      <point x="234.9547619047619" y="761.547619047619" type="curve" smooth="yes"/>
      <point x="133.47698412698415" y="761.547619047619" type="line"/>
      <point x="120.38174603174602" y="705.4674603174602" type="line"/>
      <point x="160.81428571428572" y="705.4674603174602" type="line" smooth="yes"/>
      <point x="196.5047619047619" y="705.4674603174602"/>
      <point x="208.24920634920636" y="688.4420634920635"/>
      <point x="208.24920634920636" y="658.0444444444444" type="curve" smooth="yes"/>
      <point x="208.24920634920636" y="642.3666666666667"/>
      <point x="206.8825396825397" y="626.8190476190476"/>
      <point x="202.8825396825397" y="609.8190476190476" type="curve" smooth="yes"/>
      <point x="168.11746031746034" y="447.2261904761904" type="line" smooth="yes"/>
      <point x="165.58492063492065" y="435.6634920634921"/>
      <point x="163.06349206349205" y="421.0388888888889"/>
      <point x="163.06349206349205" y="409.71428571428567" type="curve" smooth="yes"/>
      <point x="163.06349206349205" y="367.88968253968255"/>
      <point x="187.60238095238094" y="338.80396825396826"/>
      <point x="243.38333333333335" y="321.54761904761904" type="curve"/>
      <point x="240.8357142857143" y="312.27142857142854" type="line"/>
      <point x="163.87380952380954" y="292.6484126984127"/>
      <point x="128.08333333333334" y="255.2714285714286"/>
      <point x="115.43015873015874" y="196.72857142857143" type="curve" smooth="yes"/>
      <point x="78.43015873015874" y="27.457142857142863" type="line" smooth="yes"/>
      <point x="64.81190476190477" y="-34.58333333333333"/>
      <point x="50.79047619047619" y="-67.19126984126984"/>
      <point x="-1.8293650793650784" y="-67.19126984126984" type="curve" smooth="yes"/>
      <point x="-41.71428571428572" y="-67.19126984126984" type="line"/>
    </contour>
  </outline>
</glyph>
<glyph name="asciitilde" format="2">
  <advance width="513.3349206349206"/>
  <unicode hex="007E"/>
  <outline>
    <contour>
      <point x="42.18492063492063" y="260.19603174603174" type="curve"/>
      <point x="117.16031746031744" y="260.19603174603174" type="line"/>
      <point x="117.94444444444444" y="343.8642857142857"/>
      <point x="136.65873015873015" y="376.52777777777777"/>
      <point x="170.5642857142857" y="376.52777777777777" type="curve" smooth="yes"/>
      <point x="192.5904761904762" y="376.52777777777777"/>
      <point x="204.51031746031745" y="363.7031746031746"/>
      <point x="244.7579365079365" y="325.5428571428572" type="curve" smooth="yes"/>
      <point x="298.2666666666666" y="274.4634920634921"/>
      <point x="326.5134920634921" y="260.19603174603174"/>
      <point x="369.8031746031746" y="260.19603174603174" type="curve" smooth="yes"/>
      <point x="464.1309523809524" y="260.19603174603174"/>
      <point x="491.94523809523804" y="339.09841269841274"/>
      <point x="494.463492063492" y="452.80396825396826" type="curve"/>
      <point x="418.34206349206346" y="452.80396825396826" type="line"/>
      <point x="417.1507936507937" y="369.77460317460316"/>
      <point x="401.31666666666666" y="336.6380952380952"/>
      <point x="369.3912698412699" y="336.6380952380952" type="curve" smooth="yes"/>
      <point x="347.6571428571429" y="336.6380952380952"/>
      <point x="332.9119047619048" y="351.6833333333334"/>
      <point x="295.05079365079365" y="385.6031746031746" type="curve" smooth="yes"/>
      <point x="238.57142857142858" y="436.0349206349206"/>
      <point x="215.08492063492062" y="452.80396825396826"/>
      <point x="171.11825396825395" y="452.80396825396826" type="curve" smooth="yes"/>
      <point x="73.71349206349207" y="452.80396825396826"/>
      <point x="42.516666666666666" y="367.6738095238095"/>
    </contour>
  </outline>
</glyph>
<glyph name="twosuperior" format="2">
  <advance width="372.715873015873"/>
  <unicode hex="00B2"/>
  <outline>
    <contour>
      <point x="60.5015873015873" y="386.0" type="line"/>
      <point x="367.1531746031746" y="386.0" type="line"/>
      <point x="394.98730158730154" y="531.6126984126983" type="line"/>
      <point x="356.91111111111115" y="531.6126984126983" type="line"/>
      <point x="349.27777777777777" y="510.61269841269836" type="line" smooth="yes"/>
      <point x="341.64444444444445" y="488.6126984126984"/>
      <point x="328.1769841269841" y="469.6126984126984"/>
      <point x="299.3769841269841" y="469.6126984126984" type="curve" smooth="yes"/>
      <point x="158.11190476190475" y="469.6126984126984" type="line"/>
      <point x="277.8380952380952" y="558.2055555555555" type="line" smooth="yes"/>
      <point x="386.965873015873" y="639.1952380952381"/>
      <point x="422.8007936507937" y="681.2507936507936"/>
      <point x="422.8007936507937" y="736.723015873016" type="curve" smooth="yes"/>
      <point x="422.8007936507937" y="788.9142857142857"/>
      <point x="373.81904761904764" y="824.0"/>
      <point x="295.24365079365083" y="824.0" type="curve" smooth="yes"/>
      <point x="203.89444444444447" y="824.0"/>
      <point x="147.09920634920633" y="783.2563492063492"/>
      <point x="147.09920634920633" y="728.5126984126985" type="curve" smooth="yes"/>
      <point x="147.09920634920633" y="697.784126984127"/>
      <point x="176.0896825396825" y="676.9698412698411"/>
      <point x="222.1611111111111" y="676.9698412698411" type="curve"/>
      <point x="227.81428571428572" y="730.0301587301587"/>
      <point x="249.07142857142858" y="777.376984126984"/>
      <point x="280.0531746031746" y="777.376984126984" type="curve" smooth="yes"/>
      <point x="305.94920634920635" y="777.376984126984"/>
      <point x="315.46746031746034" y="754.552380952381"/>
      <point x="315.46746031746034" y="729.6825396825396" type="curve" smooth="yes"/>
      <point x="315.46746031746034" y="677.0444444444445"/>
      <point x="291.2357142857143" y="630.4261904761904"/>
      <point x="214.11825396825398" y="572.1603174603175" type="curve" smooth="yes"/>
      <point x="79.03333333333333" y="470.43650793650795" type="line"/>
    </contour>
  </outline>
</glyph>
<glyph name="threesuperior" format="2">
  <advance width="372.715873015873"/>
  <unicode hex="00B3"/>
  <outline>
    <contour>
      <point x="210.2595238095238" y="380.0" type="curve" smooth="yes"/>
      <point x="318.34285714285716" y="380.0"/>
      <point x="400.5840555555555" y="428.73333333333335"/>
      <point x="400.58571428571423" y="519.1349206349206" type="curve" smooth="yes"/>
      <point x="400.58571428571423" y="572.8690476190476"/>
      <point x="364.0515873015873" y="603.0"/>
      <point x="307.81825396825394" y="610.0" type="curve"/>
      <point x="308.81825396825394" y="614.834126984127" type="line"/>
      <point x="377.78492063492064" y="630.3666666666667"/>
      <point x="427.3039682539682" y="663.7333333333333"/>
      <point x="427.3039682539682" y="734.4666666666667" type="curve" smooth="yes"/>
      <point x="427.3039682539682" y="783.5325396825397"/>
      <point x="386.42301587301586" y="824.0"/>
      <point x="297.4952380952381" y="824.0" type="curve" smooth="yes"/>
      <point x="204.43253968253964" y="824.0"/>
      <point x="148.18492063492062" y="784.0857142857143"/>
      <point x="148.18492063492062" y="736.9198412698413" type="curve" smooth="yes"/>
      <point x="148.18492063492062" y="705.452380952381"/>
      <point x="179.80873015873019" y="690.376984126984"/>
      <point x="229.3420634920635" y="690.376984126984" type="curve"/>
      <point x="234.88015873015874" y="735.8095238095237"/>
      <point x="250.67063492063497" y="776.4428571428571"/>
      <point x="289.09920634920644" y="776.4428571428571" type="curve" smooth="yes"/>
      <point x="310.5626984126984" y="776.4428571428571"/>
      <point x="321.613492063492" y="758.3571428571428"/>
      <point x="321.613492063492" y="733.7079365079364" type="curve" smooth="yes"/>
      <point x="321.613492063492" y="668.3865079365079"/>
      <point x="276.6571428571428" y="630.0"/>
      <point x="224.13809523809525" y="630.0" type="curve" smooth="yes"/>
      <point x="192.15714285714284" y="630.0" type="line"/>
      <point x="183.7904761904762" y="581.5428571428572" type="line"/>
      <point x="214.59047619047618" y="581.5428571428572" type="line" smooth="yes"/>
      <point x="272.9896825396825" y="581.5428571428572"/>
      <point x="298.78968253968253" y="551.336507936508"/>
      <point x="298.78968253968253" y="514.934126984127" type="curve" smooth="yes"/>
      <point x="298.78968253968253" y="456.9896825396826"/>
      <point x="262.7182539682539" y="433.80396825396826"/>
      <point x="219.64126984126986" y="433.80396825396826" type="curve" smooth="yes"/>
      <point x="163.32777777777775" y="433.80396825396826"/>
      <point x="143.70873015873016" y="482.3515873015873"/>
      <point x="144.4420634920635" y="519.8039682539683" type="curve"/>
      <point x="100.0952380952381" y="519.8039682539683"/>
      <point x="67.02460317460316" y="497.90952380952376"/>
      <point x="67.02460317460316" y="461.34206349206346" type="curve" smooth="yes"/>
      <point x="67.02460317460316" y="411.1460317460317"/>
      <point x="114.4531746031746" y="380.0"/>
    </contour>
  </outline>
</glyph>
<glyph name="multiply" format="2">
  <advance width="513.3349206349206"/>
  <unicode hex="00D7"/>
  <outline>
    <contour>
      <point x="131.62936507936507" y="159.23015873015873" type="line"/>
      <point x="267.8396825396825" y="305.11587301587304" type="line"/>
      <point x="404.11587301587304" y="160.1642857142857" type="line"/>
      <point x="456.8341269841269" y="210.15" type="line"/>
      <point x="317.99126984126985" y="358.5674603174603" type="line"/>
      <point x="456.8341269841269" y="506.61825396825395" type="line"/>
      <point x="403.1158730158731" y="557.0365079365079" type="line"/>
      <point x="267.8396825396825" y="412.7984126984127" type="line"/>
      <point x="131.83015873015873" y="557.3373015873016" type="line"/>
      <point x="77.76507936507936" y="507.552380952381" type="line"/>
      <point x="216.7079365079365" y="359.2007936507936" type="line"/>
      <point x="77.76507936507936" y="209.84920634920633" type="line"/>
    </contour>
  </outline>
</glyph>
<glyph name="divide" format="2">
  <advance width="513.3349206349206"/>
  <unicode hex="00F7"/>
  <outline>
    <contour>
      <point x="64.26984126984127" y="320.7436507936508" type="line"/>
      <point x="472.4793650793651" y="320.7436507936508" type="line"/>
      <point x="472.4793650793651" y="394.2563492063492" type="line"/>
      <point x="64.26984126984127" y="394.2563492063492" type="line"/>
    </contour>
    <contour>
      <point x="268.8746031746032" y="102.27539682539683" type="curve" smooth="yes"/>
      <point x="299.1365079365079" y="102.27539682539683"/>
      <point x="323.584126984127" y="118.62222222222222"/>
      <point x="323.584126984127" y="164.53174603174602" type="curve" smooth="yes"/>
      <point x="323.584126984127" y="211.44126984126981"/>
      <point x="299.1365079365079" y="226.78809523809522"/>
      <point x="268.8746031746032" y="226.78809523809522" type="curve" smooth="yes"/>
      <point x="236.6984126984127" y="226.78809523809522"/>
      <point x="213.6174603174603" y="211.44126984126981"/>
      <point x="213.6174603174603" y="164.53174603174602" type="curve" smooth="yes"/>
      <point x="213.6174603174603" y="118.62222222222222"/>
      <point x="236.6984126984127" y="102.27539682539683"/>
    </contour>
    <contour>
      <point x="268.8746031746032" y="488.21190476190475" type="curve" smooth="yes"/>
      <point x="299.1365079365079" y="488.21190476190475"/>
      <point x="323.584126984127" y="504.55873015873016"/>
      <point x="323.584126984127" y="550.468253968254" type="curve" smooth="yes"/>
      <point x="323.584126984127" y="597.3777777777779"/>
      <point x="299.1365079365079" y="612.7246031746032"/>
      <point x="268.8746031746032" y="612.7246031746032" type="curve" smooth="yes"/>
      <point x="236.6984126984127" y="612.7246031746032"/>
      <point x="213.6174603174603" y="597.3777777777779"/>
      <point x="213.6174603174603" y="550.468253968254" type="curve" smooth="yes"/>
      <point x="213.6174603174603" y="504.55873015873016"/>
      <point x="236.6984126984127" y="488.21190476190475"/>
    </contour>
  </outline>
</glyph>
<glyph name="udatta-deva" format="2">
  <unicode hex="0951"/>
  <anchor x="62.98968253968254" y="573.2253968253967" name="_vedic"/>
  <outline>
    <contour>
      <point x="104.72698412698414" y="950.254761904762" type="line"/>
      <point x="181.52857142857147" y="950.254761904762" type="line"/>
      <point x="225.5436507936508" y="1156.0333333333333" type="line"/>
      <point x="148.62142857142857" y="1156.0333333333333" type="line"/>
    </contour>
  </outline>
</glyph>
<glyph name="anudatta-deva" format="2">
  <unicode hex="0952"/>
  <anchor x="-59.0" y="0.0" name="_bottom"/>
  <outline>
    <contour>
      <point x="-374.1103174603175" y="-592.3873015873016" type="line"/>
      <point x="4.844444444444442" y="-592.3873015873016" type="line"/>
      <point x="24.753968253968253" y="-498.7349206349207" type="line"/>
      <point x="-354.54761904761904" y="-498.7349206349207" type="line"/>
    </contour>
  </outline>
</glyph>
<glyph name="danda-deva" format="2">
  <advance width="332.6198412698413"/>
  <unicode hex="0964"/>
  <outline>
    <contour>
      <point x="15.844444444444443" y="0.0" type="line"/>
      <point x="194.78571428571428" y="0.0" type="line"/>
      <point x="316.7753968253968" y="573.2253968253967" type="line"/>
      <point x="137.63333333333333" y="573.2253968253967" type="line"/>
    </contour>
  </outline>
</glyph>
<glyph name="dbldanda-deva" format="2">
  <advance width="618.5444444444445"/>
  <unicode hex="0965"/>
  <outline>
    <contour>
      <point x="302.0555555555556" y="0.0" type="line"/>
      <point x="480.71031746031747" y="0.0" type="line"/>
      <point x="602.7" y="573.2253968253967" type="line"/>
      <point x="423.5579365079365" y="573.2253968253967" type="line"/>
    </contour>
    <contour>
      <point x="15.844444444444443" y="0.0" type="line"/>
      <point x="194.78571428571428" y="0.0" type="line"/>
      <point x="316.7753968253968" y="573.2253968253967" type="line"/>
      <point x="137.63333333333333" y="573.2253968253967" type="line"/>
    </contour>
  </outline>
</glyph>
<glyph name="anusvara-tamil" format="2">
  <unicode hex="0B82"/>
  <note>
uni0B82
</note>
  <anchor x="62.98968253968254" y="573.2253968253967" name="_top"/>
  <outline>
    <contour>
      <point x="102.9952380952381" y="624.9047619047619" type="curve" smooth="yes"/>
      <point x="182.74920634920636" y="624.9047619047619"/>
      <point x="247.15634920634923" y="686.6936507936508"/>
      <point x="247.15634920634923" y="768.9499999999999" type="curve" smooth="yes"/>
      <point x="247.15634920634923" y="851.352380952381"/>
      <point x="182.74920634920636" y="912.4277777777778"/>
      <point x="102.9952380952381" y="912.4277777777778" type="curve" smooth="yes"/>
      <point x="23.241269841269844" y="912.4277777777778"/>
      <point x="-41.16587301587302" y="851.352380952381"/>
      <point x="-41.16587301587302" y="768.9499999999999" type="curve" smooth="yes"/>
      <point x="-41.16587301587302" y="686.6936507936508"/>
      <point x="23.241269841269844" y="624.9047619047619"/>
    </contour>
    <contour>
      <point x="102.9952380952381" y="706.5119047619047" type="curve" smooth="yes"/>
      <point x="70.62777777777778" y="706.5119047619047"/>
      <point x="42.511904761904766" y="733.9142857142856"/>
      <point x="42.511904761904766" y="768.7492063492064" type="curve" smooth="yes"/>
      <point x="42.511904761904766" y="802.9507936507937"/>
      <point x="70.62777777777778" y="830.3531746031746"/>
      <point x="102.9952380952381" y="830.3531746031746" type="curve" smooth="yes"/>
      <point x="135.36269841269842" y="830.3531746031746"/>
      <point x="163.47857142857143" y="802.9507936507937"/>
      <point x="163.47857142857143" y="768.7492063492064" type="curve" smooth="yes"/>
      <point x="163.47857142857143" y="733.9142857142856"/>
      <point x="135.36269841269842" y="706.5119047619047"/>
    </contour>
  </outline>
</glyph>
<glyph name="visarga-tamil" format="2">
  <advance width="855.5531746031746"/>
  <unicode hex="0B83"/>
  <note>
uni0B83
</note>
  <outline>
    <contour>
      <point x="162.54285714285714" y="-5.0" type="curve" smooth="yes"/>
      <point x="280.5706349206349" y="-5.0"/>
      <point x="368.597619047619" y="88.57777777777777"/>
      <point x="368.59761904761905" y="220.11190476190473" type="curve" smooth="yes"/>
      <point x="368.597619047619" y="321.52539682539685"/>
      <point x="308.031746031746" y="376.2309523809524"/>
      <point x="213.97619047619045" y="376.2309523809524" type="curve" smooth="yes"/>
      <point x="95.90476190476193" y="376.2309523809524"/>
      <point x="18.66111111111111" y="267.96031746031747"/>
      <point x="18.66111111111111" y="151.09047619047618" type="curve" smooth="yes"/>
      <point x="18.66111111111111" y="63.87857142857143"/>
      <point x="67.61746031746033" y="-5.0"/>
    </contour>
    <contour>
      <point x="147.29603174603176" y="67.5515873015873" type="curve" smooth="yes"/>
      <point x="105.21190476190478" y="67.5515873015873"/>
      <point x="87.00317460317461" y="103.48968253968253"/>
      <point x="87.00317460317461" y="156.75396825396822" type="curve" smooth="yes"/>
      <point x="87.00317460317461" y="229.2761904761905"/>
      <point x="127.3063492063492" y="303.6293650793651"/>
      <point x="185.49999999999997" y="303.6293650793651" type="curve" smooth="yes"/>
      <point x="227.2920634920635" y="303.6293650793651"/>
      <point x="243.52063492063493" y="274.7293650793651"/>
      <point x="243.52063492063493" y="222.30873015873016" type="curve" smooth="yes"/>
      <point x="243.52063492063493" y="137.45158730158732"/>
      <point x="204.26746031746032" y="67.5515873015873"/>
    </contour>
    <contour>
      <point x="589.6222222222221" y="-5.0" type="curve" smooth="yes"/>
      <point x="707.6499999999999" y="-5.0"/>
      <point x="795.6769841269842" y="88.57777777777777"/>
      <point x="795.6769841269842" y="220.11190476190473" type="curve" smooth="yes"/>
      <point x="795.6769841269842" y="321.52539682539685"/>
      <point x="735.1111111111112" y="376.2309523809524"/>
      <point x="641.0555555555555" y="376.2309523809524" type="curve" smooth="yes"/>
      <point x="522.984126984127" y="376.2309523809524"/>
      <point x="445.74047619047616" y="267.96031746031747"/>
      <point x="445.74047619047616" y="151.09047619047618" type="curve" smooth="yes"/>
      <point x="445.74047619047616" y="63.87857142857143"/>
      <point x="494.69682539682543" y="-5.0"/>
    </contour>
    <contour>
      <point x="574.3753968253968" y="67.5515873015873" type="curve" smooth="yes"/>
      <point x="532.2912698412699" y="67.5515873015873"/>
      <point x="514.0825396825397" y="103.48968253968253"/>
      <point x="514.0825396825397" y="156.75396825396822" type="curve" smooth="yes"/>
      <point x="514.0825396825397" y="229.2761904761905"/>
      <point x="554.3857142857142" y="303.6293650793651"/>
      <point x="612.5793650793651" y="303.6293650793651" type="curve" smooth="yes"/>
      <point x="654.3714285714286" y="303.6293650793651"/>
      <point x="670.6" y="274.7293650793651"/>
      <point x="670.6" y="222.30873015873016" type="curve" smooth="yes"/>
      <point x="670.6" y="137.45158730158732"/>
      <point x="631.3468253968255" y="67.5515873015873"/>
    </contour>
    <contour>
      <point x="465.9722222222222" y="436.4063492063492" type="curve" smooth="yes"/>
      <point x="584.0" y="436.4063492063492"/>
      <point x="672.0269841269843" y="529.7833333333334"/>
      <point x="672.0269841269843" y="661.3174603174602" type="curve" smooth="yes"/>
      <point x="672.0269841269843" y="762.9317460317459"/>
      <point x="611.4611111111111" y="817.6373015873016"/>
      <point x="517.4055555555555" y="817.6373015873016" type="curve" smooth="yes"/>
      <point x="399.33412698412695" y="817.6373015873016"/>
      <point x="322.0904761904762" y="709.3666666666667"/>
      <point x="322.0904761904762" y="592.4968253968253" type="curve" smooth="yes"/>
      <point x="322.0904761904762" y="505.2849206349207"/>
      <point x="371.0468253968254" y="436.4063492063492"/>
    </contour>
    <contour>
      <point x="450.7253968253968" y="508.95793650793644" type="curve" smooth="yes"/>
      <point x="408.64126984126983" y="508.95793650793644"/>
      <point x="390.43253968253975" y="544.8960317460318"/>
      <point x="390.43253968253975" y="598.1603174603175" type="curve" smooth="yes"/>
      <point x="390.43253968253975" y="670.6825396825395"/>
      <point x="430.7357142857143" y="745.0357142857142"/>
      <point x="488.92936507936514" y="745.0357142857142" type="curve" smooth="yes"/>
      <point x="530.7214285714285" y="745.0357142857142"/>
      <point x="546.9499999999999" y="716.1357142857144"/>
      <point x="546.9499999999999" y="663.7150793650794" type="curve" smooth="yes"/>
      <point x="546.9499999999999" y="578.8579365079365"/>
      <point x="507.6968253968253" y="508.95793650793644"/>
    </contour>
  </outline>
</glyph>
<glyph name="a-tamil" format="2">
  <advance width="1304.2238095238095"/>
  <unicode hex="0B85"/>
  <note>
uni0B85
</note>
  <anchor x="560.4444444444443" y="0.0" name="bottom"/>
  <anchor x="342.46031746031747" y="-164.052380952381" name="nukta"/>
  <anchor x="678.8190476190478" y="573.2253968253967" name="top"/>
  <anchor x="679.1507936507938" y="573.2253968253967" name="vedic"/>
  <outline>
    <contour>
      <point x="944.3436507936508" y="-235.62698412698415" type="line"/>
      <point x="1121.324603174603" y="-235.62698412698415" type="line"/>
      <point x="1293.4055555555558" y="573.2253968253967" type="line"/>
      <point x="1116.3896825396826" y="573.2253968253967" type="line"/>
      <point x="1027.9325396825398" y="157.331746031746" type="line"/>
      <point x="85.58650793650794" y="157.331746031746" type="line" smooth="yes"/>
      <point x="19.72063492063492" y="157.331746031746"/>
      <point x="-22.275396825396825" y="116.61507936507938"/>
      <point x="-22.275396825396825" y="51.46269841269841" type="curve" smooth="yes"/>
      <point x="-22.275396825396825" y="-65.63809523809525"/>
      <point x="137.12063492063493" y="-164.052380952381"/>
      <point x="359.01746031746035" y="-164.052380952381" type="curve" smooth="yes"/>
      <point x="674.4111111111109" y="-164.052380952381"/>
      <point x="938.2119047619047" y="-13.224603174603182"/>
      <point x="938.2119047619047" y="284.0809523809524" type="curve" smooth="yes"/>
      <point x="938.2119047619047" y="475.60396825396833"/>
      <point x="797.3261904761904" y="578.2253968253967"/>
      <point x="618.0801587301588" y="578.2253968253967" type="curve" smooth="yes"/>
      <point x="460.18253968253975" y="578.2253968253967"/>
      <point x="341.26666666666665" y="487.77460317460316"/>
      <point x="341.26666666666665" y="355.8261904761905" type="curve" smooth="yes"/>
      <point x="341.26666666666665" y="277.5301587301587"/>
      <point x="399.4079365079365" y="214.8904761904762"/>
      <point x="491.8190476190476" y="214.8904761904762" type="curve" smooth="yes"/>
      <point x="597.970634920635" y="214.8904761904762"/>
      <point x="673.8277777777778" y="278.1492063492064"/>
      <point x="673.8277777777778" y="384.76746031746035" type="curve" smooth="yes"/>
      <point x="673.8277777777778" y="455.35793650793653"/>
      <point x="628.3722222222223" y="508.8896825396826"/>
      <point x="568.854761904762" y="535.8738095238094" type="curve"/>
      <point x="507.36269841269836" y="526.2555555555555" type="line"/>
      <point x="546.7515873015874" y="500.25555555555553"/>
      <point x="572.0753968253968" y="454.4365079365079"/>
      <point x="572.0753968253968" y="406.4650793650794" type="curve" smooth="yes"/>
      <point x="572.0753968253968" y="346.4904761904763"/>
      <point x="539.163492063492" y="300.29761904761904"/>
      <point x="482.81746031746025" y="300.29761904761904" type="curve" smooth="yes"/>
      <point x="448.8007936507937" y="300.29761904761904"/>
      <point x="420.5190476190477" y="324.52460317460316"/>
      <point x="420.5190476190477" y="367.35793650793653" type="curve" smooth="yes"/>
      <point x="420.5190476190477" y="450.86587301587304"/>
      <point x="493.1992063492063" y="509.9095238095238"/>
      <point x="594.1666666666666" y="509.9095238095238" type="curve" smooth="yes"/>
      <point x="696.3841269841271" y="509.9095238095238"/>
      <point x="774.6666666666666" y="442.73015873015873"/>
      <point x="774.6666666666666" y="314.22301587301587" type="curve" smooth="yes"/>
      <point x="774.6666666666666" y="55.94603174603174"/>
      <point x="604.8904761904762" y="-95.9373015873016"/>
      <point x="347.9428571428571" y="-95.9373015873016" type="curve" smooth="yes"/>
      <point x="180.19841269841268" y="-95.9373015873016"/>
      <point x="55.5436507936508" y="-21.880952380952387"/>
      <point x="55.5436507936508" y="49.547619047619044" type="curve" smooth="yes"/>
      <point x="55.5436507936508" y="76.07539682539682"/>
      <point x="66.46349206349207" y="89.17619047619046"/>
      <point x="94.85714285714286" y="89.17619047619046" type="curve" smooth="yes"/>
      <point x="1013.4904761904761" y="89.17619047619046" type="line"/>
    </contour>
  </outline>
</glyph>
<glyph name="aa-tamil" format="2">
  <advance width="1545.8825396825398"/>
  <unicode hex="0B86"/>
  <note>
uni0B86
</note>
  <anchor x="700.2134920634923" y="0.0" name="bottom"/>
  <anchor x="335.9563492063492" y="-164.052380952381" name="nukta"/>
  <anchor x="823.3801587301588" y="573.2253968253967" name="top"/>
  <anchor x="823.686507936508" y="573.2253968253967" name="vedic"/>
  <outline>
    <contour>
      <point x="889.2841269841269" y="-451.8309523809524" type="curve" smooth="yes"/>
      <point x="1179.613492063492" y="-451.8309523809524"/>
      <point x="1455.2555555555555" y="-299.97619047619054"/>
      <point x="1455.2555555555555" y="-45.932539682539684" type="curve" smooth="yes"/>
      <point x="1455.2555555555555" y="51.68333333333334"/>
      <point x="1396.5198412698412" y="102.16111111111111"/>
      <point x="1318.6785714285713" y="102.16111111111111" type="curve" smooth="yes"/>
      <point x="1228.268253968254" y="102.16111111111111"/>
      <point x="1156.2722222222221" y="34.98412698412698"/>
      <point x="1114.945238095238" y="-101.15238095238095" type="curve"/>
      <point x="1146.0023809523807" y="-108.31825396825398" type="line"/>
      <point x="1158.4150793650795" y="-46.21587301587302"/>
      <point x="1190.0904761904762" y="-21.28492063492064"/>
      <point x="1224.6992063492066" y="-21.28492063492064" type="curve" smooth="yes"/>
      <point x="1257.611111111111" y="-21.28492063492064"/>
      <point x="1278.6976190476191" y="-43.05555555555555"/>
      <point x="1278.6976190476191" y="-83.08809523809524" type="curve" smooth="yes"/>
      <point x="1278.6976190476191" y="-256.88888888888886"/>
      <point x="1091.6396825396823" y="-383.5492063492064"/>
      <point x="891.5952380952382" y="-383.5492063492064" type="curve" smooth="yes"/>
      <point x="794.5214285714286" y="-383.5492063492064"/>
      <point x="719.6079365079365" y="-356.2674603174604"/>
      <point x="719.6079365079365" y="-290.9206349206349" type="curve" smooth="yes"/>
      <point x="719.6079365079365" y="-239.67222222222222"/>
      <point x="767.7849206349207" y="-212.84126984126982"/>
      <point x="835.0396825396826" y="-198.44920634920635" type="curve"/>
      <point x="823.452380952381" y="-135.0269841269841" type="line"/>
      <point x="716.0722222222223" y="-159.981746031746"/>
      <point x="646.8587301587303" y="-208.63174603174602"/>
      <point x="646.8587301587303" y="-299.2071428571428" type="curve" smooth="yes"/>
      <point x="646.8587301587303" y="-394.32222222222225"/>
      <point x="744.1698412698413" y="-451.8309523809524"/>
    </contour>
    <component base="a-tamil"/>
  </outline>
</glyph>
<glyph name="i-tamil" format="2">
  <advance width="1012.5166666666669"/>
  <unicode hex="0B87"/>
  <note>
uni0B87
</note>
  <anchor x="423.8349206349207" y="0.0" name="bottom"/>
  <anchor x="360.2666666666666" y="-291.4222222222222" name="nukta"/>
  <anchor x="574.929365079365" y="858.4404761904761" name="top"/>
  <anchor x="534.6285714285714" y="573.2253968253967" name="vedic"/>
  <outline>
    <contour>
      <point x="111.60079365079366" y="-328.3960317460318" type="curve" smooth="yes"/>
      <point x="450.80476190476196" y="-328.3960317460318"/>
      <point x="799.431746031746" y="-16.16031746031746"/>
      <point x="799.431746031746" y="314.07063492063486" type="curve" smooth="yes"/>
      <point x="799.431746031746" y="487.34047619047624"/>
      <point x="689.1452380952381" y="578.2253968253967"/>
      <point x="518.7126984126984" y="578.2253968253967" type="curve" smooth="yes"/>
      <point x="375.84999999999997" y="578.2253968253967"/>
      <point x="254.15000000000003" y="487.74841269841266"/>
      <point x="254.15000000000003" y="356.62063492063487" type="curve" smooth="yes"/>
      <point x="254.15000000000003" y="279.05873015873016"/>
      <point x="309.51825396825393" y="217.75555555555553"/>
      <point x="397.0190476190477" y="217.75555555555553" type="curve" smooth="yes"/>
      <point x="505.12539682539676" y="217.75555555555553"/>
      <point x="581.4198412698413" y="281.8373015873016"/>
      <point x="581.4198412698413" y="387.636507936508" type="curve" smooth="yes"/>
      <point x="581.4198412698413" y="457.44761904761907"/>
      <point x="536.1849206349207" y="514.4928571428571"/>
      <point x="470.11587301587304" y="539.3063492063492" type="curve"/>
      <point x="415.66190476190474" y="527.2412698412697" type="line"/>
      <point x="453.5992063492063" y="500.8285714285714"/>
      <point x="478.52142857142854" y="453.45158730158727"/>
      <point x="478.52142857142854" y="406.4" type="curve" smooth="yes"/>
      <point x="478.52142857142854" y="347.2547619047619"/>
      <point x="447.60555555555555" y="302.58968253968254"/>
      <point x="389.81190476190477" y="302.58968253968254" type="curve" smooth="yes"/>
      <point x="354.85079365079366" y="302.58968253968254"/>
      <point x="330.9896825396826" y="328.1126984126984"/>
      <point x="330.9896825396826" y="368.10317460317464" type="curve" smooth="yes"/>
      <point x="330.9896825396826" y="445.50873015873015"/>
      <point x="397.05952380952385" y="510.19603174603174"/>
      <point x="499.84841269841263" y="510.19603174603174" type="curve" smooth="yes"/>
      <point x="595.1642857142857" y="510.19603174603174"/>
      <point x="639.6746031746032" y="449.1325396825397"/>
      <point x="639.6746031746032" y="341.7309523809524" type="curve" smooth="yes"/>
      <point x="639.6746031746032" y="34.7063492063492"/>
      <point x="408.668253968254" y="-256.0444444444445"/>
      <point x="123.02460317460316" y="-256.0444444444445" type="curve" smooth="yes"/>
      <point x="56.27301587301587" y="-256.0444444444445"/>
      <point x="17.23888888888889" y="-224.83492063492068"/>
      <point x="17.23888888888889" y="-171.17857142857142" type="curve" smooth="yes"/>
      <point x="17.23888888888889" y="-29.53015873015873"/>
      <point x="239.40873015873018" y="42.22619047619047"/>
      <point x="416.4888888888889" y="42.22619047619047" type="curve" smooth="yes"/>
      <point x="589.7380952380953" y="42.22619047619047"/>
      <point x="779.1150793650793" y="-24.424603174603174"/>
      <point x="779.1150793650793" y="-145.8579365079365" type="curve" smooth="yes"/>
      <point x="779.1150793650793" y="-221.60793650793653"/>
      <point x="724.7960317460318" y="-256.0444444444445"/>
      <point x="639.0031746031747" y="-256.0444444444445" type="curve" smooth="yes"/>
      <point x="387.6952380952381" y="-256.0444444444445"/>
      <point x="134.4103174603175" y="17.332539682539682"/>
      <point x="134.4103174603175" y="293.9428571428572" type="curve" smooth="yes"/>
      <point x="134.4103174603175" y="551.5134920634921"/>
      <point x="293.99285714285713" y="721.4817460317461"/>
      <point x="559.9190476190475" y="721.4817460317461" type="curve" smooth="yes"/>
      <point x="802.8682539682541" y="721.4817460317461"/>
      <point x="955.6428571428572" y="572.2293650793652"/>
      <point x="902.5103174603175" y="324.2968253968254" type="curve" smooth="yes"/>
      <point x="855.0849206349206" y="101.81349206349205" type="line"/>
      <point x="928.2920634920636" y="101.81349206349205" type="line"/>
      <point x="978.0642857142857" y="333.10079365079366" type="line" smooth="yes"/>
      <point x="1046.1714285714286" y="647.6238095238097"/>
      <point x="883.497619047619" y="858.4404761904761"/>
      <point x="574.5825396825396" y="858.4404761904761" type="curve" smooth="yes"/>
      <point x="246.13412698412696" y="858.4404761904761"/>
      <point x="60.48571428571428" y="624.0857142857142"/>
      <point x="60.48571428571428" y="311.9079365079365" type="curve" smooth="yes"/>
      <point x="60.48571428571428" y="-27.550793650793644"/>
      <point x="363.43888888888887" y="-328.1095238095238"/>
      <point x="637.5936507936508" y="-328.1095238095238" type="curve" smooth="yes"/>
      <point x="765.5111111111112" y="-328.1095238095238"/>
      <point x="859.4063492063493" y="-269.4468253968254"/>
      <point x="859.7531746031747" y="-144.28015873015872" type="curve" smooth="yes"/>
      <point x="860.1000000000001" y="24.45158730158731"/>
      <point x="644.004761904762" y="105.70396825396824"/>
      <point x="423.5952380952381" y="105.70396825396824" type="curve" smooth="yes"/>
      <point x="191.45079365079363" y="105.70396825396824"/>
      <point x="-63.8373015873016" y="11.495238095238095"/>
      <point x="-63.8373015873016" y="-184.66587301587302" type="curve" smooth="yes"/>
      <point x="-63.8373015873016" y="-273.32222222222225"/>
      <point x="3.061111111111112" y="-328.3960317460318"/>
    </contour>
  </outline>
</glyph>
<glyph name="ii-tamil" format="2">
  <advance width="832.8452380952381"/>
  <unicode hex="0B88"/>
  <note>
uni0B88
</note>
  <anchor x="362.7849206349207" y="0.0" name="bottom"/>
  <anchor x="363.3325396825396" y="0.0" name="nukta"/>
  <anchor x="487.1468253968254" y="573.2253968253967" name="top"/>
  <anchor x="487.28730158730167" y="573.2253968253967" name="vedic"/>
  <outline>
    <contour>
      <point x="11.104761904761904" y="0.0" type="line"/>
      <point x="84.1857142857143" y="0.0" type="line"/>
      <point x="191.73333333333332" y="506.3309523809524" type="line"/>
      <point x="443.56349206349205" y="506.3309523809524" type="line"/>
      <point x="335.6690476190476" y="0.0" type="line"/>
      <point x="515.0920634920635" y="0.0" type="line"/>
      <point x="622.6396825396826" y="506.3309523809524" type="line"/>
      <point x="832.0753968253969" y="506.3309523809524" type="line"/>
      <point x="845.6833333333333" y="573.2253968253967" type="line"/>
      <point x="132.89365079365078" y="573.2253968253967" type="line"/>
    </contour>
    <contour>
      <point x="266.95238095238096" y="195.42460317460316" type="curve" smooth="yes"/>
      <point x="310.3960317460318" y="195.42460317460316"/>
      <point x="346.47222222222223" y="230.07380952380953"/>
      <point x="346.47222222222223" y="272.43174603174606" type="curve" smooth="yes"/>
      <point x="346.47222222222223" y="313.78968253968253"/>
      <point x="310.7428571428572" y="348.6198412698413"/>
      <point x="267.2992063492064" y="348.6198412698413" type="curve" smooth="yes"/>
      <point x="223.50873015873017" y="348.6198412698413"/>
      <point x="188.14603174603172" y="313.78968253968253"/>
      <point x="188.14603174603172" y="272.43174603174606" type="curve" smooth="yes"/>
      <point x="188.14603174603172" y="230.07380952380953"/>
      <point x="223.16190476190476" y="195.42460317460316"/>
    </contour>
    <contour>
      <point x="697.2801587301587" y="195.42460317460316" type="curve" smooth="yes"/>
      <point x="740.7238095238096" y="195.42460317460316"/>
      <point x="776.8" y="230.07380952380953"/>
      <point x="776.8" y="272.43174603174606" type="curve" smooth="yes"/>
      <point x="776.8" y="313.78968253968253"/>
      <point x="741.0706349206349" y="348.6198412698413"/>
      <point x="697.6269841269841" y="348.6198412698413" type="curve" smooth="yes"/>
      <point x="653.8365079365079" y="348.6198412698413"/>
      <point x="618.4738095238095" y="313.78968253968253"/>
      <point x="618.4738095238095" y="272.43174603174606" type="curve" smooth="yes"/>
      <point x="618.4738095238095" y="230.07380952380953"/>
      <point x="653.4896825396825" y="195.42460317460316"/>
    </contour>
  </outline>
</glyph>
<glyph name="u-tamil" format="2">
  <advance width="923.0825396825397"/>
  <unicode hex="0B89"/>
  <note>
uni0B89
</note>
  <anchor x="401.2166666666667" y="0.0" name="bottom"/>
  <anchor x="401.2166666666667" y="0.0" name="nukta"/>
  <anchor x="526.7190476190476" y="573.2253968253967" name="top"/>
  <anchor x="525.9198412698414" y="573.2253968253967" name="vedic"/>
  <outline>
    <contour>
      <point x="84.64999999999999" y="0.0" type="curve" smooth="yes"/>
      <point x="855.1079365079364" y="0.0" type="line"/>
      <point x="869.55" y="67.06031746031746" type="line"/>
      <point x="91.29920634920636" y="67.06031746031746" type="line" smooth="yes"/>
      <point x="74.4452380952381" y="67.06031746031746"/>
      <point x="59.8968253968254" y="77.97460317460317"/>
      <point x="59.8968253968254" y="96.47698412698414" type="curve" smooth="yes"/>
      <point x="59.8968253968254" y="119.51269841269841"/>
      <point x="78.34047619047618" y="130.41190476190476"/>
      <point x="99.28015873015872" y="130.41190476190476" type="curve" smooth="yes"/>
      <point x="352.2738095238095" y="130.41190476190476" type="line" smooth="yes"/>
      <point x="540.3436507936508" y="130.41190476190476"/>
      <point x="691.3888888888888" y="202.68571428571425"/>
      <point x="691.3888888888888" y="375.45476190476194" type="curve" smooth="yes"/>
      <point x="691.3888888888888" y="510.71507936507936"/>
      <point x="566.3857142857142" y="578.2253968253967"/>
      <point x="407.0373015873016" y="578.2253968253967" type="curve" smooth="yes"/>
      <point x="246.3166666666667" y="578.2253968253967"/>
      <point x="122.83412698412701" y="489.2357142857143"/>
      <point x="122.83412698412701" y="368.41428571428577" type="curve" smooth="yes"/>
      <point x="122.83412698412701" y="293.3738095238096"/>
      <point x="177.0857142857143" y="240.75873015873012"/>
      <point x="260.2261904761905" y="240.75873015873012" type="curve" smooth="yes"/>
      <point x="363.6119047619047" y="240.75873015873012"/>
      <point x="436.8539682539682" y="301.3484126984127"/>
      <point x="436.8539682539682" y="394.5380952380953" type="curve" smooth="yes"/>
      <point x="436.8539682539682" y="456.88015873015877"/>
      <point x="394.831746031746" y="510.89603174603184"/>
      <point x="337.0230158730159" y="534.486507936508" type="curve"/>
      <point x="272.1190476190476" y="529.104761904762" type="line"/>
      <point x="316.7182539682539" y="499.1166666666666"/>
      <point x="338.87619047619046" y="458.2619047619047"/>
      <point x="338.87619047619046" y="413.3928571428571" type="curve" smooth="yes"/>
      <point x="338.87619047619046" y="357.67857142857144"/>
      <point x="306.59761904761905" y="321.17698412698417"/>
      <point x="256.4063492063492" y="321.17698412698417" type="curve" smooth="yes"/>
      <point x="224.26349206349207" y="321.17698412698417"/>
      <point x="201.53888888888892" y="346.31349206349205"/>
      <point x="201.53888888888892" y="382.67063492063494" type="curve" smooth="yes"/>
      <point x="201.53888888888892" y="451.19603174603174"/>
      <point x="268.66825396825396" y="511.3912698412699"/>
      <point x="376.80238095238093" y="511.3912698412699" type="curve" smooth="yes"/>
      <point x="466.93571428571425" y="511.3912698412699"/>
      <point x="525.4468253968254" y="470.2365079365079"/>
      <point x="525.4468253968254" y="380.64523809523814" type="curve" smooth="yes"/>
      <point x="525.4468253968254" y="269.6261904761905"/>
      <point x="455.34603174603177" y="193.86428571428573"/>
      <point x="339.75079365079364" y="193.86428571428573" type="curve" smooth="yes"/>
      <point x="110.44126984126984" y="193.86428571428573" type="line" smooth="yes"/>
      <point x="37.08492063492064" y="193.86428571428573"/>
      <point x="-9.823015873015875" y="153.5388888888889"/>
      <point x="-9.823015873015875" y="90.00000000000001" type="curve" smooth="yes"/>
      <point x="-9.823015873015875" y="37.00079365079365"/>
      <point x="27.115079365079367" y="0.0"/>
    </contour>
  </outline>
</glyph>
<glyph name="uu-tamil" format="2">
  <advance width="1742.6285714285716"/>
  <unicode hex="0B8A"/>
  <note>
uni0B8A
</note>
  <anchor x="817.547619047619" y="0.0" name="bottom"/>
  <anchor x="817.547619047619" y="0.0" name="nukta"/>
  <anchor x="941.4063492063493" y="573.2253968253967" name="top"/>
  <anchor x="942.2507936507938" y="573.2253968253967" name="vedic"/>
  <outline>
    <contour>
      <point x="84.64999999999999" y="0.0" type="curve" smooth="yes"/>
      <point x="1626.347619047619" y="0.0" type="line"/>
      <point x="1640.7896825396826" y="67.06031746031746" type="line"/>
      <point x="91.29920634920636" y="67.06031746031746" type="line" smooth="yes"/>
      <point x="74.4452380952381" y="67.06031746031746"/>
      <point x="59.8968253968254" y="77.97460317460317"/>
      <point x="59.8968253968254" y="96.47698412698414" type="curve" smooth="yes"/>
      <point x="59.8968253968254" y="119.51269841269841"/>
      <point x="78.34047619047618" y="130.41190476190476"/>
      <point x="99.28015873015872" y="130.41190476190476" type="curve" smooth="yes"/>
      <point x="352.2738095238095" y="130.41190476190476" type="line" smooth="yes"/>
      <point x="540.3436507936508" y="130.41190476190476"/>
      <point x="691.3888888888888" y="202.68571428571425"/>
      <point x="691.3888888888888" y="375.45476190476194" type="curve" smooth="yes"/>
      <point x="691.3888888888888" y="510.71507936507936"/>
      <point x="566.3857142857142" y="578.2253968253967"/>
      <point x="407.0373015873016" y="578.2253968253967" type="curve" smooth="yes"/>
      <point x="246.3166666666667" y="578.2253968253967"/>
      <point x="122.83412698412701" y="489.2357142857143"/>
      <point x="122.83412698412701" y="368.41428571428577" type="curve" smooth="yes"/>
      <point x="122.83412698412701" y="293.3738095238096"/>
      <point x="177.0857142857143" y="240.75873015873012"/>
      <point x="260.2261904761905" y="240.75873015873012" type="curve" smooth="yes"/>
      <point x="363.6119047619047" y="240.75873015873012"/>
      <point x="436.8539682539682" y="301.3484126984127"/>
      <point x="436.8539682539682" y="394.5380952380953" type="curve" smooth="yes"/>
      <point x="436.8539682539682" y="456.88015873015877"/>
      <point x="394.831746031746" y="510.89603174603184"/>
      <point x="337.0230158730159" y="534.486507936508" type="curve"/>
      <point x="272.1190476190476" y="529.104761904762" type="line"/>
      <point x="316.7182539682539" y="499.1166666666666"/>
      <point x="338.87619047619046" y="458.2619047619047"/>
      <point x="338.87619047619046" y="413.3928571428571" type="curve" smooth="yes"/>
      <point x="338.87619047619046" y="357.67857142857144"/>
      <point x="306.59761904761905" y="321.17698412698417"/>
      <point x="256.4063492063492" y="321.17698412698417" type="curve" smooth="yes"/>
      <point x="224.26349206349207" y="321.17698412698417"/>
      <point x="201.53888888888892" y="346.31349206349205"/>
      <point x="201.53888888888892" y="382.67063492063494" type="curve" smooth="yes"/>
      <point x="201.53888888888892" y="451.19603174603174"/>
      <point x="268.66825396825396" y="511.3912698412699"/>
      <point x="376.80238095238093" y="511.3912698412699" type="curve" smooth="yes"/>
      <point x="466.93571428571425" y="511.3912698412699"/>
      <point x="525.4468253968254" y="470.2365079365079"/>
      <point x="525.4468253968254" y="380.64523809523814" type="curve" smooth="yes"/>
      <point x="525.4468253968254" y="269.6261904761905"/>
      <point x="455.34603174603177" y="193.86428571428573"/>
      <point x="339.75079365079364" y="193.86428571428573" type="curve" smooth="yes"/>
      <point x="110.44126984126984" y="193.86428571428573" type="line" smooth="yes"/>
      <point x="37.08492063492064" y="193.86428571428573"/>
      <point x="-9.823015873015875" y="153.5388888888889"/>
      <point x="-9.823015873015875" y="90.00000000000001" type="curve" smooth="yes"/>
      <point x="-9.823015873015875" y="37.00079365079365"/>
      <point x="27.115079365079367" y="0.0"/>
    </contour>
    <contour>
      <point x="924.6984126984127" y="121.82857142857145" type="curve" smooth="yes"/>
      <point x="1033.9531746031746" y="121.82857142857145"/>
      <point x="1107.4896825396827" y="183.94285714285712"/>
      <point x="1107.4896825396827" y="284.7460317460318" type="curve" smooth="yes"/>
      <point x="1107.4896825396827" y="361.5420634920635"/>
      <point x="1052.5373015873017" y="404.39126984126983"/>
      <point x="982.0825396825398" y="404.39126984126983" type="curve" smooth="yes"/>
      <point x="885.3174603174604" y="404.39126984126983"/>
      <point x="824.1960317460317" y="330.45873015873013"/>
      <point x="795.9928571428571" y="232.8936507936508" type="curve"/>
      <point x="827.7674603174604" y="210.1547619047619" type="line"/>
      <point x="851.4277777777779" y="284.9801587301588"/>
      <point x="890.3825396825397" y="333.39682539682536"/>
      <point x="938.5150793650796" y="333.39682539682536" type="curve" smooth="yes"/>
      <point x="972.2293650793652" y="333.39682539682536"/>
      <point x="992.6579365079366" y="308.2817460317461"/>
      <point x="992.6579365079366" y="273.3452380952381" type="curve" smooth="yes"/>
      <point x="992.6579365079366" y="223.61507936507937"/>
      <point x="958.1888888888891" y="190.52222222222224"/>
      <point x="908.2785714285715" y="190.52222222222224" type="curve" smooth="yes"/>
      <point x="857.6269841269841" y="190.52222222222224"/>
      <point x="813.3492063492065" y="234.46984126984125"/>
      <point x="813.3492063492065" y="308.4134920634921" type="curve" smooth="yes"/>
      <point x="813.3492063492065" y="427.5698412698412"/>
      <point x="895.4912698412697" y="511.87857142857143"/>
      <point x="1018.0896825396825" y="511.87857142857143" type="curve" smooth="yes"/>
      <point x="1128.6492063492065" y="511.87857142857143"/>
      <point x="1200.911111111111" y="442.57936507936506"/>
      <point x="1178.6555555555556" y="325.2603174603174" type="curve"/>
      <point x="1247.5166666666667" y="325.2603174603174" type="line"/>
      <point x="1271.8626984126986" y="481.97857142857146"/>
      <point x="1176.3603174603174" y="578.2253968253967"/>
      <point x="1021.2857142857143" y="578.2253968253967" type="curve" smooth="yes"/>
      <point x="860.8674603174604" y="578.2253968253967"/>
      <point x="741.6690476190477" y="461.1793650793651"/>
      <point x="741.6690476190477" y="302.5055555555556" type="curve" smooth="yes"/>
      <point x="741.6690476190477" y="197.94206349206348"/>
      <point x="819.1880952380952" y="121.82857142857145"/>
    </contour>
    <contour>
      <point x="1135.3349206349205" y="123.50714285714285" type="line"/>
      <point x="1284.919841269841" y="123.50714285714285" type="line"/>
      <point x="1367.6936507936507" y="511.3206349206349" type="line"/>
      <point x="1494.527777777778" y="511.3206349206349" type="line"/>
      <point x="1412.0404761904765" y="123.50714285714285" type="line"/>
      <point x="1562.127777777778" y="123.50714285714285" type="line"/>
      <point x="1644.434126984127" y="511.3206349206349" type="line"/>
      <point x="1733.29126984127" y="511.3206349206349" type="line"/>
      <point x="1746.4722222222224" y="573.2253968253967" type="line"/>
      <point x="1266.6373015873016" y="573.2253968253967" type="line"/>
      <point x="1227.4793650793652" y="379.9492063492064" type="line"/>
      <point x="1189.796031746032" y="379.4515873015873" type="line"/>
    </contour>
  </outline>
</glyph>
<glyph name="e-tamil" format="2">
  <advance width="927.913492063492"/>
  <unicode hex="0B8E"/>
  <note>
uni0B8E
</note>
  <anchor x="428.2801587301587" y="0.0" name="bottom"/>
  <anchor x="428.5666666666666" y="0.0" name="nukta"/>
  <anchor x="553.3357142857143" y="573.2253968253967" name="top"/>
  <anchor x="552.7825396825397" y="573.2253968253967" name="vedic"/>
  <outline>
    <contour>
      <point x="246.42380952380952" y="-5.0" type="curve" smooth="yes"/>
      <point x="362.3444444444445" y="-5.0"/>
      <point x="457.13650793650794" y="68.1984126984127"/>
      <point x="457.13650793650794" y="193.78174603174605" type="curve" smooth="yes"/>
      <point x="457.13650793650794" y="281.4761904761905"/>
      <point x="398.3198412698412" y="337.56666666666666"/>
      <point x="310.47380952380956" y="337.56666666666666" type="curve" smooth="yes"/>
      <point x="202.684126984127" y="337.56666666666666"/>
      <point x="127.33492063492064" y="250.03333333333333"/>
      <point x="94.10714285714286" y="129.46984126984128" type="curve"/>
      <point x="132.27539682539685" y="102.00396825396825" type="line"/>
      <point x="156.23253968253965" y="188.04444444444445"/>
      <point x="194.2904761904762" y="235.84444444444446"/>
      <point x="243.00317460317459" y="235.84444444444446" type="curve" smooth="yes"/>
      <point x="282.05634920634924" y="235.84444444444446"/>
      <point x="300.85079365079366" y="204.3357142857143"/>
      <point x="300.85079365079366" y="168.49603174603172" type="curve" smooth="yes"/>
      <point x="300.85079365079366" y="116.0"/>
      <point x="271.9214285714286" y="73.90873015873017"/>
      <point x="214.1738095238095" y="73.90873015873017" type="curve" smooth="yes"/>
      <point x="157.1095238095238" y="73.90873015873017"/>
      <point x="111.88253968253969" y="137.97698412698415"/>
      <point x="111.88253968253969" y="225.50714285714287" type="curve" smooth="yes"/>
      <point x="111.88253968253969" y="394.7833333333333"/>
      <point x="225.58253968253968" y="506.3309523809524"/>
      <point x="438.2246031746032" y="506.3309523809524" type="curve" smooth="yes"/>
      <point x="655.5309523809524" y="506.3309523809524" type="line"/>
      <point x="547.9833333333333" y="0.0" type="line"/>
      <point x="729.0658730158732" y="0.0" type="line"/>
      <point x="836.3269841269843" y="506.3309523809524" type="line"/>
      <point x="960.0436507936507" y="506.3309523809524" type="line"/>
      <point x="974.4857142857142" y="573.2253968253967" type="line"/>
      <point x="438.95396825396824" y="573.2253968253967" type="line" smooth="yes"/>
      <point x="187.48650793650793" y="573.2253968253967"/>
      <point x="41.11904761904762" y="428.4920634920635"/>
      <point x="41.11904761904762" y="218.40079365079362" type="curve" smooth="yes"/>
      <point x="41.11904761904762" y="94.18809523809523"/>
      <point x="121.90555555555554" y="-5.0"/>
    </contour>
  </outline>
</glyph>
<glyph name="ee-tamil" format="2">
  <advance width="927.7325396825396"/>
  <unicode hex="0B8F"/>
  <note>
uni0B8F
</note>
  <anchor x="429.4" y="0.0" name="bottom"/>
  <anchor x="384.3134920634921" y="-212.51349206349207" name="nukta"/>
  <anchor x="553.7563492063492" y="573.2253968253967" name="top"/>
  <anchor x="553.9023809523809" y="573.2253968253967" name="vedic"/>
  <outline>
    <contour>
      <point x="332.5793650793652" y="-266.56111111111113" type="line"/>
      <point x="735.6873015873017" y="31.857142857142854" type="line"/>
      <point x="836.6333333333333" y="506.3309523809524" type="line"/>
      <point x="960.063492063492" y="506.3309523809524" type="line"/>
      <point x="974.3047619047619" y="573.2253968253967" type="line"/>
      <point x="438.95396825396824" y="573.2253968253967" type="line" smooth="yes"/>
      <point x="187.48650793650793" y="573.2253968253967"/>
      <point x="41.11904761904762" y="428.4920634920635"/>
      <point x="41.11904761904762" y="218.40079365079362" type="curve" smooth="yes"/>
      <point x="41.11904761904762" y="94.18809523809523"/>
      <point x="119.89761904761903" y="-5.0"/>
      <point x="246.42380952380952" y="-5.0" type="curve" smooth="yes"/>
      <point x="362.3444444444445" y="-5.0"/>
      <point x="457.13650793650794" y="68.1984126984127"/>
      <point x="457.13650793650794" y="193.78174603174605" type="curve" smooth="yes"/>
      <point x="457.13650793650794" y="281.4761904761905"/>
      <point x="398.3198412698412" y="337.56666666666666"/>
      <point x="310.47380952380956" y="337.56666666666666" type="curve" smooth="yes"/>
      <point x="202.684126984127" y="337.56666666666666"/>
      <point x="127.33492063492064" y="250.03333333333333"/>
      <point x="94.10714285714286" y="129.46984126984128" type="curve"/>
      <point x="132.27539682539685" y="102.00396825396825" type="line"/>
      <point x="156.23253968253965" y="188.04444444444445"/>
      <point x="194.2904761904762" y="235.84444444444446"/>
      <point x="243.00317460317459" y="235.84444444444446" type="curve" smooth="yes"/>
      <point x="282.05634920634924" y="235.84444444444446"/>
      <point x="300.85079365079366" y="204.3357142857143"/>
      <point x="300.85079365079366" y="168.49603174603172" type="curve" smooth="yes"/>
      <point x="300.85079365079366" y="116.0"/>
      <point x="271.9214285714286" y="73.90873015873017"/>
      <point x="214.1738095238095" y="73.90873015873017" type="curve" smooth="yes"/>
      <point x="157.1095238095238" y="73.90873015873017"/>
      <point x="111.88253968253969" y="137.97698412698415"/>
      <point x="111.88253968253969" y="225.50714285714287" type="curve" smooth="yes"/>
      <point x="111.88253968253969" y="394.7833333333333"/>
      <point x="225.58253968253968" y="506.3309523809524"/>
      <point x="438.2246031746032" y="506.3309523809524" type="curve" smooth="yes"/>
      <point x="655.6968253968255" y="506.3309523809524" type="line"/>
      <point x="543.9333333333333" y="-22.853174603174605" type="line"/>
      <point x="292.1380952380953" y="-209.42857142857144" type="line"/>
    </contour>
  </outline>
</glyph>
<glyph name="ai-tamil" format="2">
  <advance width="994.2333333333332"/>
  <unicode hex="0B90"/>
  <note>
uni0B90
</note>
  <anchor x="440.72222222222223" y="0.0" name="bottom"/>
  <anchor x="365.77142857142854" y="-327.56190476190477" name="nukta"/>
  <anchor x="570.068253968254" y="573.2253968253967" name="top"/>
  <anchor x="568.7269841269841" y="573.2253968253967" name="vedic"/>
  <outline>
    <contour>
      <point x="171.68730158730156" y="-327.56190476190477" type="curve" smooth="yes"/>
      <point x="286.2087301587302" y="-327.56190476190477"/>
      <point x="372.6007936507936" y="-279.03015873015875"/>
      <point x="416.2650793650794" y="-183.40714285714287" type="curve"/>
      <point x="422.63174603174605" y="-264.3539682539682"/>
      <point x="493.9079365079364" y="-327.56190476190477"/>
      <point x="610.4928571428572" y="-327.56190476190477" type="curve" smooth="yes"/>
      <point x="761.2873015873016" y="-327.56190476190477"/>
      <point x="866.7650793650794" y="-231.31507936507938"/>
      <point x="866.7650793650794" y="-76.32857142857142" type="curve" smooth="yes"/>
      <point x="866.7650793650794" y="-23.47222222222222"/>
      <point x="853.8698412698413" y="22.446825396825403"/>
      <point x="835.4563492063493" y="65.21190476190475" type="curve"/>
      <point x="766.959523809524" y="34.768253968253966" type="line"/>
      <point x="782.3674603174604" y="-2.619047619047621"/>
      <point x="793.1214285714286" y="-39.15555555555556"/>
      <point x="793.1214285714286" y="-76.64365079365078" type="curve" smooth="yes"/>
      <point x="793.1214285714286" y="-185.09126984126982"/>
      <point x="721.4888888888889" y="-256.5674603174603"/>
      <point x="611.8031746031745" y="-256.5674603174603" type="curve" smooth="yes"/>
      <point x="518.7674603174604" y="-256.5674603174603"/>
      <point x="486.94206349206354" y="-193.87539682539682"/>
      <point x="507.35476190476203" y="-94.5047619047619" type="curve" smooth="yes"/>
      <point x="521.7198412698413" y="-24.764285714285712" type="line"/>
      <point x="373.6484126984127" y="-24.764285714285712" type="line"/>
      <point x="358.09682539682547" y="-97.56746031746033" type="line" smooth="yes"/>
      <point x="336.59841269841263" y="-198.49126984126983"/>
      <point x="289.002380952381" y="-256.0047619047619"/>
      <point x="212.8015873015873" y="-256.0047619047619" type="curve" smooth="yes"/>
      <point x="151.88730158730158" y="-256.0047619047619"/>
      <point x="125.41349206349207" y="-213.64126984126983"/>
      <point x="125.41349206349207" y="-151.27619047619046" type="curve" smooth="yes"/>
      <point x="125.41349206349207" y="27.530952380952378"/>
      <point x="268.46746031746034" y="55.42619047619047"/>
      <point x="491.0904761904762" y="76.64682539682539" type="curve" smooth="yes"/>
      <point x="762.0261904761904" y="102.5206349206349"/>
      <point x="966.281746031746" y="169.36904761904762"/>
      <point x="966.281746031746" y="394.64206349206347" type="curve" smooth="yes"/>
      <point x="966.281746031746" y="507.0571428571428"/>
      <point x="888.7253968253968" y="578.7126984126984"/>
      <point x="763.4396825396824" y="578.7126984126984" type="curve" smooth="yes"/>
      <point x="668.2841269841269" y="578.7126984126984"/>
      <point x="591.6880952380955" y="538.7373015873017"/>
      <point x="547.0738095238096" y="452.0150793650794" type="curve"/>
      <point x="526.8166666666666" y="535.1587301587301"/>
      <point x="448.68650793650795" y="578.7126984126984"/>
      <point x="341.3134920634921" y="578.7126984126984" type="curve" smooth="yes"/>
      <point x="182.45714285714286" y="578.7126984126984"/>
      <point x="61.646825396825385" y="467.94603174603174"/>
      <point x="61.646825396825385" y="314.3968253968254" type="curve" smooth="yes"/>
      <point x="61.646825396825385" y="224.00238095238095"/>
      <point x="120.1825396825397" y="153.49761904761903"/>
      <point x="213.6865079365079" y="153.49761904761903" type="curve" smooth="yes"/>
      <point x="306.0388888888889" y="153.49761904761903"/>
      <point x="382.2190476190476" y="209.1269841269841"/>
      <point x="382.2190476190476" y="303.46031746031747" type="curve" smooth="yes"/>
      <point x="382.2190476190476" y="369.4214285714285"/>
      <point x="337.8904761904762" y="409.8190476190475"/>
      <point x="271.6801587301588" y="409.8190476190475" type="curve" smooth="yes"/>
      <point x="195.19523809523812" y="409.8190476190475"/>
      <point x="134.25158730158728" y="359.94523809523815"/>
      <point x="99.24682539682539" y="244.30238095238093" type="curve"/>
      <point x="131.28888888888892" y="225.8246031746032" type="line"/>
      <point x="157.76190476190476" y="309.2968253968254"/>
      <point x="192.4873015873016" y="338.7190476190476"/>
      <point x="225.46984126984128" y="338.7190476190476" type="curve" smooth="yes"/>
      <point x="253.82857142857142" y="338.7190476190476"/>
      <point x="269.43809523809523" y="319.75317460317456"/>
      <point x="269.43809523809523" y="292.20476190476194" type="curve" smooth="yes"/>
      <point x="269.43809523809523" y="252.56984126984128"/>
      <point x="243.9436507936508" y="224.28095238095239"/>
      <point x="203.91746031746027" y="224.28095238095239" type="curve" smooth="yes"/>
      <point x="160.6015873015873" y="224.28095238095239"/>
      <point x="132.4015873015873" y="264.1277777777778"/>
      <point x="132.4015873015873" y="321.20714285714286" type="curve" smooth="yes"/>
      <point x="132.4015873015873" y="429.74047619047616"/>
      <point x="217.4277777777778" y="508.44206349206354"/>
      <point x="329.9214285714286" y="508.44206349206354" type="curve" smooth="yes"/>
      <point x="425.92857142857144" y="508.44206349206354"/>
      <point x="474.11507936507934" y="454.2357142857143"/>
      <point x="454.2698412698413" y="363.25158730158734" type="curve" smooth="yes"/>
      <point x="421.1563492063492" y="209.34206349206346" type="line"/>
      <point x="569.2277777777778" y="209.34206349206346" type="line"/>
      <point x="607.4230158730159" y="389.2746031746031" type="line" smooth="yes"/>
      <point x="623.463492063492" y="465.72857142857146"/>
      <point x="661.9944444444445" y="506.834126984127"/>
      <point x="718.2380952380952" y="506.834126984127" type="curve" smooth="yes"/>
      <point x="772.592857142857" y="506.834126984127"/>
      <point x="801.1428571428571" y="470.5373015873016"/>
      <point x="801.1428571428571" y="407.5388888888889" type="curve" smooth="yes"/>
      <point x="801.1428571428571" y="196.33888888888887"/>
      <point x="676.1880952380952" y="150.24523809523808"/>
      <point x="401.9412698412698" y="122.71746031746032" type="curve" smooth="yes"/>
      <point x="170.92301587301588" y="99.59682539682541"/>
      <point x="-39.92619047619048" y="53.97380952380952"/>
      <point x="-39.92619047619048" y="-143.58809523809526" type="curve" smooth="yes"/>
      <point x="-39.92619047619048" y="-254.28968253968253"/>
      <point x="40.747619047619054" y="-327.56190476190477"/>
    </contour>
  </outline>
</glyph>
<glyph name="o-tamil" format="2">
  <advance width="1033.0595238095239"/>
  <unicode hex="0B92"/>
  <note>
uni0B92
</note>
  <anchor x="453.44841269841265" y="0.0" name="bottom"/>
  <anchor x="379.9357142857143" y="-335.0" name="nukta"/>
  <anchor x="556.1738095238095" y="573.2253968253967" name="top"/>
  <anchor x="556.1738095238096" y="573.2253968253967" name="vedic"/>
  <outline>
    <contour>
      <point x="248.21190476190475" y="-361.50714285714287" type="curve" smooth="yes"/>
      <point x="478.56349206349216" y="-361.50714285714287"/>
      <point x="549.1492063492065" y="-150.39761904761903"/>
      <point x="714.3595238095239" y="-150.39761904761903" type="curve" smooth="yes"/>
      <point x="774.2682539682542" y="-150.39761904761903" type="line"/>
      <point x="788.7960317460318" y="-81.23095238095237" type="line"/>
      <point x="702.7857142857143" y="-81.23095238095237" type="line" smooth="yes"/>
      <point x="523.1357142857142" y="-81.23095238095237"/>
      <point x="481.3825396825397" y="83.05"/>
      <point x="608.0182539682539" y="228.79603174603176" type="curve"/>
      <point x="613.1841269841269" y="225.44920634920635" type="line"/>
      <point x="551.5373015873016" y="99.03650793650792"/>
      <point x="592.3071428571428" y="-3.392063492063492"/>
      <point x="731.6039682539683" y="-3.392063492063492" type="curve" smooth="yes"/>
      <point x="870.3420634920636" y="-3.392063492063492"/>
      <point x="976.454761904762" y="100.01269841269841"/>
      <point x="976.454761904762" y="252.85317460317464" type="curve" smooth="yes"/>
      <point x="976.454761904762" y="475.37857142857143"/>
      <point x="765.7436507936509" y="578.4261904761904"/>
      <point x="523.8333333333334" y="578.4261904761904" type="curve" smooth="yes"/>
      <point x="249.52539682539685" y="578.4261904761904"/>
      <point x="37.253968253968246" y="424.7738095238096"/>
      <point x="37.253968253968246" y="214.42222222222225" type="curve" smooth="yes"/>
      <point x="37.253968253968246" y="91.59682539682541"/>
      <point x="112.434126984127" y="-5.0"/>
      <point x="238.9603174603175" y="-5.0" type="curve" smooth="yes"/>
      <point x="354.8809523809523" y="-5.0"/>
      <point x="449.84444444444443" y="68.1984126984127"/>
      <point x="449.84444444444443" y="193.78174603174605" type="curve" smooth="yes"/>
      <point x="449.84444444444443" y="281.4761904761905"/>
      <point x="391.67063492063494" y="337.56666666666666"/>
      <point x="303.8246031746032" y="337.56666666666666" type="curve" smooth="yes"/>
      <point x="196.0349206349206" y="337.56666666666666"/>
      <point x="120.89126984126982" y="250.03333333333333"/>
      <point x="87.66349206349207" y="129.46984126984128" type="curve"/>
      <point x="125.83174603174604" y="102.00396825396825" type="line"/>
      <point x="149.7888888888889" y="188.04444444444445"/>
      <point x="187.97301587301584" y="235.84444444444446"/>
      <point x="236.68571428571428" y="235.84444444444446" type="curve" smooth="yes"/>
      <point x="275.7388888888889" y="235.84444444444446"/>
      <point x="293.55873015873016" y="204.3357142857143"/>
      <point x="293.55873015873016" y="168.49603174603172" type="curve" smooth="yes"/>
      <point x="293.55873015873016" y="116.0"/>
      <point x="264.4579365079365" y="73.90873015873017"/>
      <point x="206.71031746031744" y="73.90873015873017" type="curve" smooth="yes"/>
      <point x="149.64603174603178" y="73.90873015873017"/>
      <point x="108.01746031746032" y="135.3857142857143"/>
      <point x="108.01746031746032" y="221.52857142857144" type="curve" smooth="yes"/>
      <point x="108.01746031746032" y="389.3936507936508"/>
      <point x="294.2873015873016" y="507.6222222222222"/>
      <point x="501.4277777777778" y="507.6222222222222" type="curve" smooth="yes"/>
      <point x="684.1293650793651" y="507.6222222222222"/>
      <point x="815.2174603174603" y="424.64285714285717"/>
      <point x="815.2174603174603" y="265.6531746031746" type="curve" smooth="yes"/>
      <point x="815.2174603174603" y="168.20079365079368"/>
      <point x="774.9611111111112" y="80.01349206349208"/>
      <point x="696.8999999999999" y="80.01349206349208" type="curve" smooth="yes"/>
      <point x="623.0571428571428" y="80.01349206349208"/>
      <point x="639.6706349206349" y="197.7357142857143"/>
      <point x="697.9007936507937" y="280.5047619047619" type="curve"/>
      <point x="631.4309523809524" y="326.5373015873016" type="line"/>
      <point x="472.06904761904764" y="190.2468253968254"/>
      <point x="406.75793650793656" y="-18.747619047619054"/>
      <point x="566.1714285714286" y="-103.85317460317458" type="curve"/>
      <point x="565.1714285714286" y="-108.85317460317458" type="line"/>
      <point x="416.13650793650794" y="-132.56507936507938"/>
      <point x="346.8031746031745" y="-285.16031746031746"/>
      <point x="222.00238095238097" y="-285.16031746031746" type="curve" smooth="yes"/>
      <point x="170.16666666666666" y="-285.16031746031746"/>
      <point x="141.65317460317462" y="-252.29999999999998"/>
      <point x="141.65317460317462" y="-212.99206349206347" type="curve" smooth="yes"/>
      <point x="141.65317460317462" y="-167.44285714285712"/>
      <point x="167.50476190476195" y="-141.25079365079367"/>
      <point x="214.93412698412698" y="-108.60238095238094" type="curve"/>
      <point x="183.70396825396824" y="-62.85793650793651" type="line"/>
      <point x="119.27936507936508" y="-107.86825396825398"/>
      <point x="76.71349206349207" y="-150.49285714285716"/>
      <point x="76.71349206349207" y="-224.09761904761905" type="curve" smooth="yes"/>
      <point x="76.71349206349207" y="-298.7126984126984"/>
      <point x="136.86587301587304" y="-361.50714285714287"/>
    </contour>
  </outline>
</glyph>
<glyph name="oo-tamil" format="2">
  <advance width="1033.0595238095239"/>
  <unicode hex="0B93"/>
  <note>
uni0B93
</note>
  <anchor x="453.0761904761905" y="0.0" name="bottom"/>
  <anchor x="377.17936507936514" y="-347.60952380952386" name="nukta"/>
  <anchor x="556.0428571428571" y="573.2253968253967" name="top"/>
  <anchor x="556.0428571428572" y="573.2253968253967" name="vedic"/>
  <outline>
    <contour>
      <point x="212.07857142857145" y="-389.43095238095236" type="curve" smooth="yes"/>
      <point x="463.8968253968254" y="-389.43095238095236"/>
      <point x="549.1492063492063" y="-151.78492063492064"/>
      <point x="714.3595238095239" y="-151.78492063492064" type="curve" smooth="yes"/>
      <point x="770.2571428571429" y="-151.78492063492064" type="line"/>
      <point x="784.7849206349206" y="-82.61825396825397" type="line"/>
      <point x="702.7857142857142" y="-82.61825396825397" type="line" smooth="yes"/>
      <point x="523.1357142857144" y="-82.61825396825397"/>
      <point x="481.38253968253974" y="83.05"/>
      <point x="608.0182539682539" y="228.79603174603176" type="curve"/>
      <point x="613.1841269841269" y="225.44920634920635" type="line"/>
      <point x="551.5373015873016" y="99.03650793650792"/>
      <point x="592.3071428571428" y="-3.392063492063492"/>
      <point x="731.6039682539683" y="-3.392063492063492" type="curve" smooth="yes"/>
      <point x="870.3420634920636" y="-3.392063492063492"/>
      <point x="976.454761904762" y="100.01269841269841"/>
      <point x="976.454761904762" y="252.85317460317464" type="curve" smooth="yes"/>
      <point x="976.454761904762" y="475.37857142857143"/>
      <point x="765.7436507936509" y="578.4261904761904"/>
      <point x="523.8333333333334" y="578.4261904761904" type="curve" smooth="yes"/>
      <point x="249.52539682539685" y="578.4261904761904"/>
      <point x="37.253968253968246" y="424.7738095238096"/>
      <point x="37.253968253968246" y="214.42222222222225" type="curve" smooth="yes"/>
      <point x="37.253968253968246" y="91.59682539682541"/>
      <point x="112.434126984127" y="-5.0"/>
      <point x="238.9603174603175" y="-5.0" type="curve" smooth="yes"/>
      <point x="354.8809523809523" y="-5.0"/>
      <point x="449.84444444444443" y="68.1984126984127"/>
      <point x="449.84444444444443" y="193.78174603174605" type="curve" smooth="yes"/>
      <point x="449.84444444444443" y="281.4761904761905"/>
      <point x="391.67063492063494" y="337.56666666666666"/>
      <point x="303.8246031746032" y="337.56666666666666" type="curve" smooth="yes"/>
      <point x="196.0349206349206" y="337.56666666666666"/>
      <point x="120.89126984126982" y="250.03333333333333"/>
      <point x="87.66349206349207" y="129.46984126984128" type="curve"/>
      <point x="125.83174603174604" y="102.00396825396825" type="line"/>
      <point x="149.7888888888889" y="188.04444444444445"/>
      <point x="187.97301587301584" y="235.84444444444446"/>
      <point x="236.68571428571428" y="235.84444444444446" type="curve" smooth="yes"/>
      <point x="275.7388888888889" y="235.84444444444446"/>
      <point x="293.55873015873016" y="204.3357142857143"/>
      <point x="293.55873015873016" y="168.49603174603172" type="curve" smooth="yes"/>
      <point x="293.55873015873016" y="116.0"/>
      <point x="264.4579365079365" y="73.90873015873017"/>
      <point x="206.71031746031744" y="73.90873015873017" type="curve" smooth="yes"/>
      <point x="149.64603174603178" y="73.90873015873017"/>
      <point x="108.01746031746032" y="135.3857142857143"/>
      <point x="108.01746031746032" y="221.52857142857144" type="curve" smooth="yes"/>
      <point x="108.01746031746032" y="389.3936507936508"/>
      <point x="294.2873015873016" y="507.6222222222222"/>
      <point x="501.4277777777778" y="507.6222222222222" type="curve" smooth="yes"/>
      <point x="684.1293650793651" y="507.6222222222222"/>
      <point x="815.2174603174603" y="424.64285714285717"/>
      <point x="815.2174603174603" y="265.6531746031746" type="curve" smooth="yes"/>
      <point x="815.2174603174603" y="168.20079365079368"/>
      <point x="774.9611111111112" y="80.01349206349208"/>
      <point x="696.8999999999999" y="80.01349206349208" type="curve" smooth="yes"/>
      <point x="623.0571428571428" y="80.01349206349208"/>
      <point x="639.6706349206349" y="197.7357142857143"/>
      <point x="697.9007936507937" y="280.5047619047619" type="curve"/>
      <point x="631.4309523809524" y="326.5373015873016" type="line"/>
      <point x="472.0690476190476" y="190.2468253968254"/>
      <point x="406.7579365079365" y="-20.13492063492064"/>
      <point x="566.1714285714286" y="-105.24047619047617" type="curve"/>
      <point x="565.1714285714286" y="-110.24047619047617" type="line"/>
      <point x="416.136507936508" y="-133.95238095238096"/>
      <point x="326.54523809523806" y="-313.9436507936508"/>
      <point x="184.4031746031746" y="-313.9436507936508" type="curve" smooth="yes"/>
      <point x="120.4436507936508" y="-313.9436507936508"/>
      <point x="92.13492063492063" y="-276.22777777777776"/>
      <point x="92.13492063492063" y="-231.94365079365082" type="curve" smooth="yes"/>
      <point x="92.13492063492063" y="-184.78174603174602"/>
      <point x="122.7642857142857" y="-146.9404761904762"/>
      <point x="169.80714285714288" y="-146.9404761904762" type="curve" smooth="yes"/>
      <point x="212.74920634920636" y="-146.9404761904762"/>
      <point x="244.31507936507938" y="-174.62539682539685"/>
      <point x="249.4357142857143" y="-228.4674603174603" type="curve"/>
      <point x="300.518253968254" y="-211.365873015873"/>
      <point x="335.58095238095245" y="-178.05793650793655"/>
      <point x="335.58095238095245" y="-130.32142857142853" type="curve" smooth="yes"/>
      <point x="335.58095238095245" y="-81.59047619047618"/>
      <point x="287.9452380952381" y="-53.9968253968254"/>
      <point x="225.99761904761905" y="-53.9968253968254" type="curve" smooth="yes"/>
      <point x="113.77698412698413" y="-53.9968253968254"/>
      <point x="28.807936507936507" y="-134.4666666666667"/>
      <point x="28.807936507936507" y="-240.85396825396825" type="curve" smooth="yes"/>
      <point x="28.807936507936507" y="-329.12857142857143"/>
      <point x="100.40396825396826" y="-389.43095238095236"/>
    </contour>
  </outline>
</glyph>
<glyph name="nga-tamil" format="2">
  <advance width="1009.9111111111112"/>
  <unicode hex="0B99"/>
  <note>
uni0B99
</note>
  <anchor x="438.3150793650794" y="0.0" name="bottom"/>
  <anchor x="601.6285714285714" y="573.2253968253967" name="imatra"/>
  <anchor x="439.7468253968254" y="0.0" name="nukta"/>
  <anchor x="581.7087301587302" y="573.2253968253967" name="top"/>
  <anchor x="565.5761904761905" y="573.2253968253967" name="vedic"/>
  <outline>
    <contour>
      <point x="11.104761904761904" y="0.0" type="line"/>
      <point x="84.24603174603173" y="0.0" type="line"/>
      <point x="191.7936507936508" y="506.3309523809524" type="line"/>
      <point x="310.87222222222226" y="506.3309523809524" type="line"/>
      <point x="240.65634920634918" y="176.65873015873015" type="line"/>
      <point x="404.17539682539683" y="176.65873015873015" type="line"/>
      <point x="416.71190476190475" y="234.62222222222223" type="line" smooth="yes"/>
      <point x="423.33571428571435" y="265.1936507936508"/>
      <point x="439.28253968253966" y="285.5571428571428"/>
      <point x="466.3301587301587" y="285.5571428571428" type="curve" smooth="yes"/>
      <point x="489.7595238095237" y="285.5571428571428"/>
      <point x="507.51507936507926" y="269.62619047619046"/>
      <point x="507.51507936507926" y="235.4126984126984" type="curve" smooth="yes"/>
      <point x="507.51507936507926" y="139.2214285714286"/>
      <point x="440.61904761904765" y="67.06031746031746"/>
      <point x="346.5563492063492" y="67.06031746031746" type="curve" smooth="yes"/>
      <point x="217.565873015873" y="67.06031746031746" type="line"/>
      <point x="203.32460317460317" y="0.0" type="line"/>
      <point x="877.3039682539682" y="0.0" type="line"/>
      <point x="999.092857142857" y="573.2253968253967" type="line"/>
      <point x="819.7849206349207" y="573.2253968253967" type="line"/>
      <point x="712.036507936508" y="67.06031746031746" type="line"/>
      <point x="504.5468253968254" y="67.06031746031746" type="line"/>
      <point x="602.9785714285715" y="96.2515873015873"/>
      <point x="680.8484126984127" y="170.4079365079365"/>
      <point x="680.8484126984127" y="273.29285714285714" type="curve" smooth="yes"/>
      <point x="680.8484126984127" y="350.113492063492"/>
      <point x="631.3238095238095" y="393.25"/>
      <point x="560.9436507936508" y="393.25" type="curve" smooth="yes"/>
      <point x="505.75" y="393.25"/>
      <point x="468.9531746031746" y="366.6801587301587"/>
      <point x="443.73253968253965" y="336.9825396825397" type="curve"/>
      <point x="479.8785714285714" y="506.3309523809524" type="line"/>
      <point x="614.1666666666667" y="506.3309523809524" type="line"/>
      <point x="628.4079365079365" y="573.2253968253967" type="line"/>
      <point x="132.89365079365078" y="573.2253968253967" type="line"/>
    </contour>
  </outline>
</glyph>
<glyph name="ja-tamil" format="2">
  <advance width="999.0825396825396"/>
  <unicode hex="0B9C"/>
  <note>
uni0B9C
</note>
  <anchor x="438.89126984126983" y="0.0" name="bottom"/>
  <anchor x="363.94047619047615" y="-327.56190476190477" name="nukta"/>
  <anchor x="557.6174603174604" y="573.2253968253967" name="top"/>
  <anchor x="552.7984126984127" y="573.2253968253967" name="vedic"/>
  <outline>
    <contour>
      <point x="151.765873015873" y="-327.56190476190477" type="curve" smooth="yes"/>
      <point x="371.3349206349206" y="-327.56190476190477"/>
      <point x="448.1547619047619" y="-27.77857142857143"/>
      <point x="614.2111111111111" y="-27.77857142857143" type="curve" smooth="yes"/>
      <point x="672.4317460317459" y="-27.77857142857143"/>
      <point x="700.7309523809524" y="-65.92301587301588"/>
      <point x="700.7309523809524" y="-120.73095238095239" type="curve" smooth="yes"/>
      <point x="700.7309523809524" y="-196.35000000000002"/>
      <point x="651.9031746031746" y="-250.95476190476188"/>
      <point x="576.9126984126984" y="-250.95476190476188" type="curve" smooth="yes"/>
      <point x="545.7603174603175" y="-250.95476190476188"/>
      <point x="513.7642857142857" y="-239.4579365079365"/>
      <point x="484.55158730158735" y="-219.28571428571428" type="curve"/>
      <point x="446.0936507936508" y="-272.88253968253963" type="line"/>
      <point x="493.3880952380952" y="-310.64365079365075"/>
      <point x="549.5" y="-327.56190476190477"/>
      <point x="617.6476190476192" y="-327.56190476190477" type="curve" smooth="yes"/>
      <point x="751.1690476190475" y="-327.56190476190477"/>
      <point x="866.1309523809525" y="-251.67936507936506"/>
      <point x="866.1309523809525" y="-115.91190476190476" type="curve" smooth="yes"/>
      <point x="866.1309523809525" y="-11.266666666666666"/>
      <point x="788.6253968253968" y="48.93412698412699"/>
      <point x="676.2579365079366" y="49.280952380952385" type="curve" smooth="yes"/>
      <point x="423.55634920634924" y="50.32142857142858"/>
      <point x="345.89523809523814" y="-247.99999999999997"/>
      <point x="204.41904761904763" y="-247.99999999999997" type="curve" smooth="yes"/>
      <point x="151.76111111111106" y="-247.99999999999997"/>
      <point x="127.22777777777779" y="-205.71666666666664"/>
      <point x="127.22777777777779" y="-141.67777777777775" type="curve" smooth="yes"/>
      <point x="127.22777777777779" y="22.364285714285714"/>
      <point x="259.61428571428564" y="58.41190476190477"/>
      <point x="489.4" y="81.47222222222221" type="curve" smooth="yes"/>
      <point x="760.3357142857143" y="108.6126984126984"/>
      <point x="964.6277777777777" y="169.36904761904762"/>
      <point x="964.6277777777777" y="394.64206349206347" type="curve" smooth="yes"/>
      <point x="964.6277777777777" y="507.0571428571428"/>
      <point x="887.0714285714287" y="578.7126984126984"/>
      <point x="761.7857142857142" y="578.7126984126984" type="curve" smooth="yes"/>
      <point x="666.6301587301587" y="578.7126984126984"/>
      <point x="590.034126984127" y="538.7373015873017"/>
      <point x="545.4198412698412" y="452.0150793650794" type="curve"/>
      <point x="525.1626984126984" y="535.1587301587301"/>
      <point x="447.0325396825397" y="578.7126984126984"/>
      <point x="339.6595238095239" y="578.7126984126984" type="curve" smooth="yes"/>
      <point x="180.80317460317463" y="578.7126984126984"/>
      <point x="59.99285714285714" y="467.94603174603174"/>
      <point x="59.99285714285714" y="314.3968253968254" type="curve" smooth="yes"/>
      <point x="59.99285714285714" y="224.00238095238095"/>
      <point x="118.52857142857144" y="153.49761904761903"/>
      <point x="212.0325396825397" y="153.49761904761903" type="curve" smooth="yes"/>
      <point x="304.3849206349207" y="153.49761904761903"/>
      <point x="380.56507936507944" y="209.1269841269841"/>
      <point x="380.56507936507944" y="303.46031746031747" type="curve" smooth="yes"/>
      <point x="380.56507936507944" y="369.4214285714285"/>
      <point x="336.236507936508" y="409.8190476190475"/>
      <point x="270.0261904761905" y="409.8190476190475" type="curve" smooth="yes"/>
      <point x="193.54126984126984" y="409.8190476190475"/>
      <point x="132.59761904761902" y="359.94523809523815"/>
      <point x="97.59285714285714" y="244.30238095238093" type="curve"/>
      <point x="129.63492063492066" y="225.8246031746032" type="line"/>
      <point x="156.1079365079365" y="309.2968253968254"/>
      <point x="190.83333333333331" y="338.7190476190476"/>
      <point x="223.81587301587302" y="338.7190476190476" type="curve" smooth="yes"/>
      <point x="252.17460317460316" y="338.7190476190476"/>
      <point x="267.784126984127" y="319.75317460317456"/>
      <point x="267.784126984127" y="292.20476190476194" type="curve" smooth="yes"/>
      <point x="267.784126984127" y="252.56984126984128"/>
      <point x="242.28968253968256" y="224.28095238095239"/>
      <point x="202.26349206349207" y="224.28095238095239" type="curve" smooth="yes"/>
      <point x="158.94761904761904" y="224.28095238095239"/>
      <point x="130.74761904761905" y="264.1277777777778"/>
      <point x="130.74761904761905" y="321.20714285714286" type="curve" smooth="yes"/>
      <point x="130.74761904761905" y="429.74047619047616"/>
      <point x="215.77380952380952" y="508.44206349206354"/>
      <point x="328.2674603174603" y="508.44206349206354" type="curve" smooth="yes"/>
      <point x="424.27460317460327" y="508.44206349206354"/>
      <point x="472.4611111111112" y="454.2357142857143"/>
      <point x="452.6158730158729" y="363.25158730158734" type="curve" smooth="yes"/>
      <point x="419.5023809523809" y="209.34206349206346" type="line"/>
      <point x="567.5738095238096" y="209.34206349206346" type="line"/>
      <point x="605.7690476190476" y="389.2746031746031" type="line" smooth="yes"/>
      <point x="621.8095238095239" y="465.72857142857146"/>
      <point x="660.626984126984" y="506.834126984127"/>
      <point x="716.870634920635" y="506.834126984127" type="curve" smooth="yes"/>
      <point x="771.2253968253968" y="506.834126984127"/>
      <point x="799.4888888888889" y="470.5373015873016"/>
      <point x="799.4888888888889" y="407.5388888888889" type="curve" smooth="yes"/>
      <point x="799.4888888888889" y="196.3388888888889"/>
      <point x="674.4976190476191" y="151.16507936507938"/>
      <point x="400.2507936507937" y="122.94365079365082" type="curve" smooth="yes"/>
      <point x="159.86825396825395" y="98.43571428571428"/>
      <point x="-38.11190476190477" y="42.9563492063492"/>
      <point x="-38.11190476190477" y="-138.87539682539682" type="curve" smooth="yes"/>
      <point x="-38.11190476190477" y="-247.0952380952381"/>
      <point x="27.419047619047614" y="-327.56190476190477"/>
    </contour>
  </outline>
</glyph>
<glyph name="nya-tamil" format="2">
  <advance width="1355.8166666666666"/>
  <unicode hex="0B9E"/>
  <note>
uni0B9E
</note>
  <anchor x="636.6920634920637" y="0.0" name="bottom"/>
  <anchor x="1086.427777777778" y="573.2253968253967" name="imatra"/>
  <anchor x="568.3952380952381" y="-366.52063492063496" name="nukta"/>
  <anchor x="782.5000000000001" y="573.2253968253967" name="top"/>
  <anchor x="742.236507936508" y="573.2253968253967" name="vedic"/>
  <outline>
    <contour>
      <point x="568.3952380952381" y="-366.52063492063496" type="curve" smooth="yes"/>
      <point x="963.9079365079364" y="-366.52063492063496"/>
      <point x="1280.6730158730159" y="-149.97301587301587"/>
      <point x="1280.6730158730159" y="171.83730158730157" type="curve" smooth="yes"/>
      <point x="1280.6730158730159" y="287.79603174603176"/>
      <point x="1220.7261904761906" y="346.5023809523809"/>
      <point x="1133.3785714285714" y="346.5023809523809" type="curve" smooth="yes"/>
      <point x="1035.3761904761907" y="346.5023809523809"/>
      <point x="966.313492063492" y="260.2952380952381"/>
      <point x="944.7857142857143" y="167.44682539682537" type="curve" smooth="yes"/>
      <point x="938.9214285714286" y="141.33174603174604" type="line"/>
      <point x="968.8230158730161" y="141.33174603174604" type="line"/>
      <point x="974.2349206349206" y="167.4015873015873" type="line" smooth="yes"/>
      <point x="984.0142857142858" y="212.67460317460316"/>
      <point x="1009.0055555555556" y="240.09126984126988"/>
      <point x="1046.9460317460318" y="240.09126984126988" type="curve" smooth="yes"/>
      <point x="1087.4301587301584" y="240.09126984126988"/>
      <point x="1109.5738095238096" y="209.36190476190478"/>
      <point x="1109.5738095238096" y="148.72857142857143" type="curve" smooth="yes"/>
      <point x="1109.5738095238096" y="-99.7126984126984"/>
      <point x="890.420634920635" y="-294.4904761904762"/>
      <point x="571.1976190476191" y="-294.4904761904762" type="curve" smooth="yes"/>
      <point x="296.9595238095239" y="-294.4904761904762"/>
      <point x="101.14285714285715" y="-126.6888888888889"/>
      <point x="101.14285714285715" y="140.33650793650796" type="curve" smooth="yes"/>
      <point x="101.14285714285715" y="333.0301587301587"/>
      <point x="186.16746031746035" y="486.0690476190476"/>
      <point x="347.8753968253968" y="639.2253968253968" type="curve"/>
      <point x="300.8150793650794" y="686.3166666666667" type="line"/>
      <point x="127.14285714285714" y="522.252380952381"/>
      <point x="25.232539682539684" y="345.0206349206349"/>
      <point x="25.232539682539684" y="128.97063492063492" type="curve" smooth="yes"/>
      <point x="25.232539682539684" y="-162.4325396825397"/>
      <point x="251.5714285714286" y="-366.52063492063496"/>
    </contour>
    <component base="e-tamil" xOffset="211.64682539682542"/>
  </outline>
</glyph>
<glyph name="tta-tamil" format="2">
  <advance width="888.4746031746033"/>
  <unicode hex="0B9F"/>
  <note>
uni0B9F
</note>
  <anchor x="389.4380952380952" y="0.0" name="bottom"/>
  <anchor x="389.4380952380952" y="0.0" name="nukta"/>
  <anchor x="537.502380952381" y="573.2253968253967" name="top"/>
  <anchor x="537.5007936507936" y="573.2253968253967" name="vedic"/>
  <outline>
    <contour>
      <point x="11.104761904761904" y="0.0" type="line"/>
      <point x="820.8769841269841" y="0.0" type="line"/>
      <point x="835.1182539682541" y="67.06031746031746" type="line"/>
      <point x="203.96031746031744" y="67.06031746031746" type="line"/>
      <point x="311.8547619047619" y="573.2253968253967" type="line"/>
      <point x="132.89365079365078" y="573.2253968253967" type="line"/>
    </contour>
  </outline>
</glyph>
<glyph name="nna-tamil" format="2">
  <advance width="1779.8579365079368"/>
  <unicode hex="0BA3"/>
  <note>
uni0BA3
</note>
  <anchor x="878.9285714285714" y="0.0" name="bottom"/>
  <anchor x="1694.9634920634921" y="573.2253968253967" name="imatra"/>
  <anchor x="878.7626984126985" y="0.0" name="nukta"/>
  <anchor x="990.686507936508" y="573.2253968253967" name="top"/>
  <anchor x="973.6158730158731" y="573.2253968253967" name="vedic"/>
  <outline>
    <contour>
      <point x="679.7420634920636" y="-4.286507936507936" type="curve" smooth="yes"/>
      <point x="803.8769841269842" y="-4.286507936507936"/>
      <point x="900.5095238095238" y="81.92698412698414"/>
      <point x="900.5095238095238" y="232.1984126984127" type="curve" smooth="yes"/>
      <point x="900.5095238095238" y="458.2031746031746"/>
      <point x="709.0349206349206" y="578.4261904761904"/>
      <point x="471.2206349206349" y="578.4261904761904" type="curve" smooth="yes"/>
      <point x="239.25238095238097" y="578.4261904761904"/>
      <point x="38.68650793650794" y="424.95396825396824"/>
      <point x="38.68650793650794" y="220.40873015873015" type="curve" smooth="yes"/>
      <point x="38.68650793650794" y="96.19603174603174"/>
      <point x="117.46507936507938" y="-5.0"/>
      <point x="243.99126984126985" y="-5.0" type="curve" smooth="yes"/>
      <point x="359.9119047619048" y="-5.0"/>
      <point x="454.7039682539683" y="68.1984126984127"/>
      <point x="454.7039682539683" y="193.78174603174605" type="curve" smooth="yes"/>
      <point x="454.7039682539683" y="281.4761904761905"/>
      <point x="395.8873015873016" y="337.56666666666666"/>
      <point x="308.04126984126987" y="337.56666666666666" type="curve" smooth="yes"/>
      <point x="200.2515873015873" y="337.56666666666666"/>
      <point x="124.90238095238095" y="250.03333333333333"/>
      <point x="91.67460317460316" y="129.46984126984128" type="curve"/>
      <point x="129.84285714285716" y="102.00396825396825" type="line"/>
      <point x="153.8" y="188.04444444444445"/>
      <point x="191.8579365079365" y="235.84444444444446"/>
      <point x="240.57063492063492" y="235.84444444444446" type="curve" smooth="yes"/>
      <point x="279.62380952380954" y="235.84444444444446"/>
      <point x="298.4182539682539" y="204.3357142857143"/>
      <point x="298.4182539682539" y="168.49603174603172" type="curve" smooth="yes"/>
      <point x="298.4182539682539" y="116.0"/>
      <point x="269.4888888888889" y="73.90873015873017"/>
      <point x="211.74126984126988" y="73.90873015873017" type="curve" smooth="yes"/>
      <point x="154.67698412698414" y="73.90873015873017"/>
      <point x="109.45" y="139.98492063492066"/>
      <point x="109.45" y="227.51507936507937" type="curve" smooth="yes"/>
      <point x="109.45" y="385.8928571428571"/>
      <point x="272.8031746031746" y="507.0547619047619"/>
      <point x="452.4555555555556" y="507.0547619047619" type="curve" smooth="yes"/>
      <point x="633.5674603174602" y="507.0547619047619"/>
      <point x="743.0007936507938" y="406.9293650793651"/>
      <point x="742.6690476190477" y="247.3396825396825" type="curve" smooth="yes"/>
      <point x="742.5031746031747" y="149.6214285714286"/>
      <point x="707.5539682539683" y="79.784126984127"/>
      <point x="644.368253968254" y="79.784126984127" type="curve" smooth="yes"/>
      <point x="607.1992063492064" y="79.784126984127"/>
      <point x="586.6198412698413" y="117.02857142857142"/>
      <point x="586.6198412698413" y="178.03650793650795" type="curve" smooth="yes"/>
      <point x="586.6198412698413" y="367.3373015873016"/>
      <point x="767.9936507936509" y="507.0547619047619"/>
      <point x="944.2936507936507" y="507.0547619047619" type="curve" smooth="yes"/>
      <point x="1110.6214285714286" y="507.0547619047619"/>
      <point x="1186.384920634921" y="410.49444444444447"/>
      <point x="1186.053174603175" y="251.8095238095238" type="curve" smooth="yes"/>
      <point x="1185.8873015873019" y="151.4809523809524"/>
      <point x="1150.606349206349" y="79.784126984127"/>
      <point x="1087.7523809523811" y="79.784126984127" type="curve" smooth="yes"/>
      <point x="1050.5833333333333" y="79.784126984127"/>
      <point x="1030.0039682539684" y="115.91746031746031"/>
      <point x="1030.0039682539684" y="176.92539682539683" type="curve" smooth="yes"/>
      <point x="1030.0039682539684" y="378.47063492063495"/>
      <point x="1237.8031746031745" y="506.3309523809524"/>
      <point x="1441.9246031746031" y="506.3309523809524" type="curve" smooth="yes"/>
      <point x="1812.1888888888889" y="506.3309523809524" type="line"/>
      <point x="1826.2642857142855" y="573.2253968253967" type="line"/>
      <point x="1448.1761904761902" y="573.2253968253967" type="line" smooth="yes"/>
      <point x="1196.9563492063492" y="573.2253968253967"/>
      <point x="959.209523809524" y="414.31031746031744"/>
      <point x="959.209523809524" y="174.85079365079366" type="curve" smooth="yes"/>
      <point x="959.209523809524" y="77.18095238095239"/>
      <point x="1008.9928571428574" y="-4.286507936507936"/>
      <point x="1123.1261904761905" y="-4.286507936507936" type="curve" smooth="yes"/>
      <point x="1248.6333333333334" y="-4.286507936507936"/>
      <point x="1343.8936507936507" y="87.8"/>
      <point x="1343.8936507936507" y="241.10158730158727" type="curve" smooth="yes"/>
      <point x="1343.8936507936507" y="463.102380952381"/>
      <point x="1184.8658730158731" y="578.4261904761904"/>
      <point x="960.6309523809523" y="578.4261904761904" type="curve" smooth="yes"/>
      <point x="734.0626984126984" y="578.4261904761904"/>
      <point x="515.8253968253968" y="403.17698412698417"/>
      <point x="515.8253968253968" y="175.96190476190475" type="curve" smooth="yes"/>
      <point x="515.8253968253968" y="78.29206349206348"/>
      <point x="565.6087301587302" y="-4.286507936507936"/>
    </contour>
    <contour>
      <point x="1399.927777777778" y="0.0" type="line"/>
      <point x="1580.552380952381" y="0.0" type="line"/>
      <point x="1695.220634920635" y="539.9944444444444" type="line"/>
      <point x="1514.5357142857144" y="539.9944444444444" type="line"/>
    </contour>
  </outline>
</glyph>
<glyph name="ta-tamil" format="2">
  <advance width="865.5920634920635"/>
  <unicode hex="0BA4"/>
  <note>
uni0BA4
</note>
  <anchor x="357.1468253968255" y="0.0" name="bottom"/>
  <anchor x="632.3039682539683" y="573.2253968253967" name="imatra"/>
  <anchor x="398.6674603174604" y="-134.27142857142857" name="nukta"/>
  <anchor x="500.60158730158724" y="573.2253968253967" name="top"/>
  <anchor x="492.8888888888889" y="573.2253968253967" name="vedic"/>
  <outline>
    <contour>
      <point x="91.73412698412699" y="-288.22936507936504" type="curve"/>
      <point x="110.81984126984128" y="-189.05"/>
      <point x="151.64444444444445" y="-130.2214285714286"/>
      <point x="267.67777777777775" y="-130.2214285714286" type="curve" smooth="yes"/>
      <point x="417.2896825396826" y="-130.2214285714286" type="line" smooth="yes"/>
      <point x="623.1293650793651" y="-130.2214285714286"/>
      <point x="788.7738095238095" y="-39.04841269841271"/>
      <point x="788.7738095238095" y="147.14126984126986" type="curve" smooth="yes"/>
      <point x="788.7738095238095" y="284.3960317460317"/>
      <point x="687.7142857142857" y="338.37142857142857"/>
      <point x="556.5539682539684" y="338.37142857142857" type="curve" smooth="yes"/>
      <point x="537.8968253968254" y="338.37142857142857" type="line"/>
      <point x="573.3690476190477" y="505.818253968254" type="line"/>
      <point x="713.636507936508" y="505.818253968254" type="line"/>
      <point x="728.0785714285716" y="573.2253968253967" type="line"/>
      <point x="213.42539682539683" y="573.2253968253967" type="line"/>
      <point x="155.9984126984127" y="302.7888888888889" type="line"/>
      <point x="228.16507936507935" y="302.7888888888889" type="line"/>
      <point x="270.984126984127" y="505.818253968254" type="line"/>
      <point x="393.7857142857143" y="505.818253968254" type="line"/>
      <point x="358.22777777777776" y="338.37142857142857" type="line"/>
      <point x="232.8904761904762" y="338.37142857142857" type="line" smooth="yes"/>
      <point x="117.57619047619049" y="338.37142857142857"/>
      <point x="30.249206349206357" y="267.2444444444444"/>
      <point x="30.249206349206357" y="157.5031746031746" type="curve" smooth="yes"/>
      <point x="30.249206349206357" y="69.44603174603175"/>
      <point x="100.07301587301588" y="-4.0"/>
      <point x="242.28571428571433" y="-4.0" type="curve" smooth="yes"/>
      <point x="404.42301587301586" y="-4.0"/>
      <point x="480.14285714285717" y="71.85238095238094"/>
      <point x="510.28968253968253" y="209.0404761904762" type="curve" smooth="yes"/>
      <point x="523.6555555555556" y="270.9642857142857" type="line"/>
      <point x="535.4896825396827" y="270.9642857142857" type="line" smooth="yes"/>
      <point x="584.463492063492" y="270.9642857142857"/>
      <point x="622.786507936508" y="236.74682539682541"/>
      <point x="622.786507936508" y="148.3785714285714" type="curve" smooth="yes"/>
      <point x="622.786507936508" y="5.123015873015875"/>
      <point x="535.2261904761905" y="-71.70873015873016"/>
      <point x="365.54603174603176" y="-71.70873015873016" type="curve" smooth="yes"/>
      <point x="217.34444444444443" y="-71.70873015873016" type="line" smooth="yes"/>
      <point x="80.33015873015873" y="-71.70873015873016"/>
      <point x="-27.55" y="-99.7238095238095"/>
      <point x="-27.55" y="-200.0690476190476" type="curve" smooth="yes"/>
      <point x="-27.55" y="-257.01904761904757"/>
      <point x="19.350793650793655" y="-288.22936507936504"/>
    </contour>
    <contour>
      <point x="202.8420634920635" y="72.54126984126985" type="curve" smooth="yes"/>
      <point x="143.77380952380955" y="72.54126984126985"/>
      <point x="103.28015873015872" y="106.86825396825398"/>
      <point x="103.28015873015872" y="166.42222222222222" type="curve" smooth="yes"/>
      <point x="103.28015873015872" y="231.6095238095238"/>
      <point x="145.66507936507935" y="270.9642857142857"/>
      <point x="227.13174603174605" y="270.9642857142857" type="curve" smooth="yes"/>
      <point x="343.7857142857143" y="270.9642857142857" type="line"/>
      <point x="330.0333333333333" y="204.29365079365078" type="line" smooth="yes"/>
      <point x="310.7206349206349" y="112.84761904761905"/>
      <point x="275.60714285714283" y="72.54126984126985"/>
    </contour>
  </outline>
</glyph>
<glyph name="na-tamil" format="2">
  <advance width="814.4182539682539"/>
  <unicode hex="0BA8"/>
  <note>
uni0BA8
</note>
  <anchor x="322.28333333333336" y="0.0" name="bottom"/>
  <anchor x="573.5190476190477" y="573.2253968253967" name="imatra"/>
  <anchor x="291.44682539682543" y="-235.29523809523812" name="nukta"/>
  <anchor x="448.1436507936508" y="573.2253968253967" name="top"/>
  <anchor x="477.1349206349206" y="573.2253968253967" name="vedic"/>
  <outline>
    <contour>
      <point x="87.96031746031748" y="-289.39047619047614" type="curve"/>
      <point x="107.04603174603174" y="-190.2111111111111"/>
      <point x="149.33730158730162" y="-129.99523809523808"/>
      <point x="265.3706349206349" y="-129.99523809523808" type="curve" smooth="yes"/>
      <point x="373.07142857142856" y="-129.99523809523808" type="line" smooth="yes"/>
      <point x="571.8642857142858" y="-129.99523809523808"/>
      <point x="745.7476190476191" y="-17.515079365079366"/>
      <point x="745.7476190476191" y="187.85158730158733" type="curve" smooth="yes"/>
      <point x="745.7476190476191" y="294.08492063492065"/>
      <point x="686.9698412698413" y="353.2809523809524"/>
      <point x="599.5761904761905" y="353.2809523809524" type="curve" smooth="yes"/>
      <point x="533.1722222222223" y="353.2809523809524"/>
      <point x="495.3706349206349" y="321.1706349206349"/>
      <point x="460.70793650793655" y="281.82380952380953" type="curve"/>
      <point x="508.2357142857143" y="506.3309523809524" type="line"/>
      <point x="637.831746031746" y="506.3309523809524" type="line"/>
      <point x="652.073015873016" y="573.2253968253967" type="line"/>
      <point x="137.44206349206348" y="573.2253968253967" type="line"/>
      <point x="15.653174603174605" y="0.0" type="line"/>
      <point x="88.53333333333333" y="0.0" type="line"/>
      <point x="195.79444444444442" y="506.3309523809524" type="line"/>
      <point x="328.86746031746026" y="506.3309523809524" type="line"/>
      <point x="221.6063492063492" y="0.0" type="line"/>
      <point x="400.68809523809523" y="0.0" type="line"/>
      <point x="437.51190476190476" y="173.98412698412696" type="line" smooth="yes"/>
      <point x="447.4865079365079" y="221.18412698412698"/>
      <point x="474.93412698412703" y="246.53809523809528"/>
      <point x="510.3793650793651" y="246.53809523809528" type="curve" smooth="yes"/>
      <point x="551.5873015873016" y="246.53809523809528"/>
      <point x="573.1468253968255" y="218.0095238095238"/>
      <point x="573.1468253968255" y="167.17857142857142" type="curve" smooth="yes"/>
      <point x="573.1468253968255" y="19.618253968253963"/>
      <point x="481.0650793650793" y="-71.9952380952381"/>
      <point x="332.33730158730157" y="-71.9952380952381" type="curve" smooth="yes"/>
      <point x="215.2031746031746" y="-71.9952380952381" type="line" smooth="yes"/>
      <point x="78.1888888888889" y="-71.9952380952381"/>
      <point x="-31.323809523809526" y="-101.05079365079365"/>
      <point x="-31.323809523809526" y="-201.39603174603178" type="curve" smooth="yes"/>
      <point x="-31.323809523809526" y="-258.34603174603177"/>
      <point x="15.576984126984131" y="-289.39047619047614"/>
    </contour>
  </outline>
</glyph>
<glyph name="nnna-tamil" format="2">
  <advance width="1348.0698412698412"/>
  <unicode hex="0BA9"/>
  <note>
uni0BA9
</note>
  <anchor x="591.7833333333333" y="0.0" name="bottom"/>
  <anchor x="1248.7269841269842" y="573.2253968253967" name="imatra"/>
  <anchor x="593.5571428571428" y="0.0" name="nukta"/>
  <anchor x="761.6825396825396" y="573.2253968253967" name="top"/>
  <anchor x="753.497619047619" y="573.2253968253967" name="vedic"/>
  <outline>
    <contour>
      <point x="243.99126984126985" y="-5.0" type="curve" smooth="yes"/>
      <point x="359.9119047619048" y="-5.0"/>
      <point x="454.7039682539683" y="68.1984126984127"/>
      <point x="454.7039682539683" y="193.78174603174605" type="curve" smooth="yes"/>
      <point x="454.7039682539683" y="281.4761904761905"/>
      <point x="395.8873015873016" y="337.56666666666666"/>
      <point x="308.04126984126987" y="337.56666666666666" type="curve" smooth="yes"/>
      <point x="200.2515873015873" y="337.56666666666666"/>
      <point x="124.90238095238095" y="250.03333333333333"/>
      <point x="91.67460317460316" y="129.46984126984128" type="curve"/>
      <point x="129.84285714285716" y="102.00396825396825" type="line"/>
      <point x="153.8" y="188.04444444444445"/>
      <point x="191.8579365079365" y="235.84444444444446"/>
      <point x="240.57063492063492" y="235.84444444444446" type="curve" smooth="yes"/>
      <point x="279.62380952380954" y="235.84444444444446"/>
      <point x="298.4182539682539" y="204.3357142857143"/>
      <point x="298.4182539682539" y="168.49603174603172" type="curve" smooth="yes"/>
      <point x="298.4182539682539" y="116.0"/>
      <point x="269.4888888888889" y="73.90873015873017"/>
      <point x="211.74126984126988" y="73.90873015873017" type="curve" smooth="yes"/>
      <point x="154.67698412698414" y="73.90873015873017"/>
      <point x="109.45" y="139.98492063492066"/>
      <point x="109.45" y="227.51507936507937" type="curve" smooth="yes"/>
      <point x="109.45" y="385.8928571428571"/>
      <point x="268.30952380952385" y="507.0547619047619"/>
      <point x="447.37380952380954" y="507.0547619047619" type="curve" smooth="yes"/>
      <point x="625.0174603174605" y="507.0547619047619"/>
      <point x="743.0007936507936" y="406.9293650793651"/>
      <point x="742.6690476190477" y="247.3396825396825" type="curve" smooth="yes"/>
      <point x="742.5031746031746" y="149.6214285714286"/>
      <point x="707.5539682539682" y="79.784126984127"/>
      <point x="644.3682539682541" y="79.784126984127" type="curve" smooth="yes"/>
      <point x="607.1992063492063" y="79.784126984127"/>
      <point x="586.6198412698412" y="115.91746031746031"/>
      <point x="586.6198412698412" y="176.92539682539683" type="curve" smooth="yes"/>
      <point x="586.6198412698412" y="378.47063492063495"/>
      <point x="794.1626984126985" y="506.3309523809524"/>
      <point x="1006.879365079365" y="506.3309523809524" type="curve" smooth="yes"/>
      <point x="1380.4007936507937" y="506.3309523809524" type="line"/>
      <point x="1394.4761904761906" y="573.2253968253967" type="line"/>
      <point x="1013.1309523809523" y="573.2253968253967" type="line" smooth="yes"/>
      <point x="753.315873015873" y="573.2253968253967"/>
      <point x="515.825396825397" y="414.31031746031744"/>
      <point x="515.825396825397" y="174.85079365079366" type="curve" smooth="yes"/>
      <point x="515.825396825397" y="77.18095238095239"/>
      <point x="565.6087301587302" y="-4.286507936507936"/>
      <point x="679.7420634920636" y="-4.286507936507936" type="curve" smooth="yes"/>
      <point x="804.9174603174604" y="-4.286507936507936"/>
      <point x="900.5095238095239" y="80.07222222222224"/>
      <point x="900.5095238095239" y="232.77142857142857" type="curve" smooth="yes"/>
      <point x="900.5095238095239" y="458.77619047619044"/>
      <point x="700.4849206349207" y="578.4261904761904"/>
      <point x="466.1388888888889" y="578.4261904761904" type="curve" smooth="yes"/>
      <point x="234.75873015873015" y="578.4261904761904"/>
      <point x="38.68650793650794" y="424.95396825396824"/>
      <point x="38.68650793650794" y="220.40873015873015" type="curve" smooth="yes"/>
      <point x="38.68650793650794" y="96.19603174603174"/>
      <point x="117.46507936507938" y="-5.0"/>
    </contour>
    <contour>
      <point x="968.1396825396823" y="0.0" type="line"/>
      <point x="1148.7642857142855" y="0.0" type="line"/>
      <point x="1263.4325396825395" y="539.9944444444444" type="line"/>
      <point x="1082.7476190476193" y="539.9944444444444" type="line"/>
    </contour>
  </outline>
</glyph>
<glyph name="pa-tamil" format="2">
  <advance width="889.8579365079366"/>
  <unicode hex="0BAA"/>
  <note>
uni0BAA
</note>
  <anchor x="388.01190476190476" y="0.0" name="bottom"/>
  <anchor x="870.4063492063493" y="573.2253968253967" name="imatra"/>
  <anchor x="388.01190476190476" y="0.0" name="nukta"/>
  <anchor x="510.03095238095244" y="573.2253968253967" name="top"/>
  <anchor x="507.15317460317465" y="573.2253968253967" name="vedic"/>
  <outline>
    <contour>
      <point x="11.104761904761904" y="0.0" type="line"/>
      <point x="757.2507936507936" y="0.0" type="line"/>
      <point x="878.7531746031746" y="573.2253968253967" type="line"/>
      <point x="701.1936507936509" y="573.2253968253967" type="line"/>
      <point x="593.6460317460318" y="67.06031746031746" type="line"/>
      <point x="203.50793650793653" y="67.06031746031746" type="line"/>
      <point x="311.05555555555554" y="573.2253968253967" type="line"/>
      <point x="132.89365079365078" y="573.2253968253967" type="line"/>
    </contour>
  </outline>
</glyph>
<glyph name="ma-tamil" format="2">
  <advance width="886.0095238095238"/>
  <unicode hex="0BAE"/>
  <note>
uni0BAE
</note>
  <anchor x="376.1373015873016" y="0.0" name="bottom"/>
  <anchor x="889.1214285714285" y="573.2253968253967" name="imatra"/>
  <anchor x="376.85079365079366" y="0.0" name="nukta"/>
  <anchor x="518.1047619047619" y="573.2253968253967" name="top"/>
  <anchor x="518.3833333333333" y="573.2253968253967" name="vedic"/>
  <outline>
    <contour>
      <point x="11.104761904761904" y="0.0" type="line"/>
      <point x="617.0722222222223" y="0.0" type="line" smooth="yes"/>
      <point x="772.9246031746031" y="0.0"/>
      <point x="834.7388888888888" y="159.8920634920635"/>
      <point x="834.7388888888888" y="335.87936507936513" type="curve" smooth="yes"/>
      <point x="834.7388888888888" y="485.9547619047619"/>
      <point x="769.8769841269842" y="578.7126984126984"/>
      <point x="640.2706349206348" y="578.7126984126984" type="curve" smooth="yes"/>
      <point x="523.4388888888889" y="578.7126984126984"/>
      <point x="454.3880952380953" y="509.31190476190477"/>
      <point x="431.8944444444445" y="401.52222222222224" type="curve" smooth="yes"/>
      <point x="361.02142857142854" y="67.06031746031746" type="line"/>
      <point x="204.3071428571429" y="67.06031746031746" type="line"/>
      <point x="311.8547619047619" y="573.2253968253967" type="line"/>
      <point x="132.89365079365078" y="573.2253968253967" type="line"/>
    </contour>
    <contour>
      <point x="540.3039682539684" y="67.06031746031746" type="line"/>
      <point x="612.8103174603176" y="410.3571428571429" type="line" smooth="yes"/>
      <point x="625.2285714285714" y="470.0912698412699"/>
      <point x="644.4769841269842" y="494.82698412698414"/>
      <point x="682.7722222222221" y="494.82698412698414" type="curve" smooth="yes"/>
      <point x="731.5515873015872" y="494.82698412698414"/>
      <point x="762.6531746031748" y="440.99841269841266"/>
      <point x="762.6531746031748" y="326.8888888888889" type="curve" smooth="yes"/>
      <point x="762.6531746031748" y="205.40238095238092"/>
      <point x="724.0253968253967" y="67.06031746031746"/>
      <point x="626.5142857142857" y="67.06031746031746" type="curve" smooth="yes"/>
    </contour>
  </outline>
</glyph>
<glyph name="ya-tamil" format="2">
  <advance width="999.8849206349207"/>
  <unicode hex="0BAF"/>
  <note>
uni0BAF
</note>
  <anchor x="462.2587301587301" y="0.0" name="bottom"/>
  <anchor x="982.3666666666668" y="573.2253968253967" name="imatra"/>
  <anchor x="460.04841269841273" y="0.0" name="nukta"/>
  <anchor x="555.8142857142858" y="573.2253968253967" name="top"/>
  <anchor x="554.2261904761905" y="573.2253968253967" name="vedic"/>
  <outline>
    <contour>
      <point x="182.90079365079364" y="-11.110317460317459" type="curve" smooth="yes"/>
      <point x="256.4134920634921" y="-11.110317460317459"/>
      <point x="301.71984126984125" y="20.650793650793645"/>
      <point x="335.80952380952385" y="58.39285714285715" type="curve"/>
      <point x="323.3420634920635" y="0.0" type="line"/>
      <point x="867.2777777777778" y="0.0" type="line"/>
      <point x="988.7801587301587" y="573.2253968253967" type="line"/>
      <point x="810.0452380952381" y="573.2253968253967" type="line"/>
      <point x="702.2968253968255" y="67.06031746031746" type="line"/>
      <point x="493.4698412698412" y="67.06031746031746" type="line"/>
      <point x="600.8968253968255" y="573.2253968253967" type="line"/>
      <point x="427.5785714285715" y="573.2253968253967" type="line"/>
      <point x="336.0214285714286" y="141.5404761904762" type="line" smooth="yes"/>
      <point x="326.9507936507937" y="98.48412698412699"/>
      <point x="298.8833333333334" y="74.71269841269842"/>
      <point x="264.8753968253969" y="74.71269841269842" type="curve" smooth="yes"/>
      <point x="228.03333333333333" y="74.71269841269842"/>
      <point x="209.43333333333337" y="103.64444444444446"/>
      <point x="221.45873015873016" y="158.68571428571428" type="curve" smooth="yes"/>
      <point x="309.3476190476191" y="573.2253968253967" type="line"/>
      <point x="130.89365079365078" y="573.2253968253967" type="line"/>
      <point x="47.618253968253974" y="180.71190476190475" type="line" smooth="yes"/>
      <point x="23.28174603174603" y="65.40555555555555"/>
      <point x="84.36349206349206" y="-11.110317460317459"/>
    </contour>
  </outline>
</glyph>
<glyph name="ra-tamil" format="2">
  <advance width="630.3777777777779"/>
  <unicode hex="0BB0"/>
  <note>
uni0BB0
</note>
  <anchor x="250.51190476190476" y="0.0" name="bottom"/>
  <anchor x="598.7626984126983" y="573.2253968253967" name="imatra"/>
  <anchor x="198.73333333333335" y="-245.46587301587303" name="nukta"/>
  <anchor x="389.37063492063487" y="573.2253968253967" name="top"/>
  <anchor x="406.2619047619047" y="573.2253968253967" name="vedic"/>
  <outline>
    <contour>
      <point x="34.12380952380952" y="-266.56111111111113" type="line"/>
      <point x="437.23174603174607" y="31.857142857142854" type="line"/>
      <point x="537.8309523809525" y="506.3309523809524" type="line"/>
      <point x="662.7087301587302" y="506.3309523809524" type="line"/>
      <point x="676.9499999999999" y="573.2253968253967" type="line"/>
      <point x="136.70873015873013" y="573.2253968253967" type="line"/>
      <point x="14.919841269841271" y="0.0" type="line"/>
      <point x="88.16666666666667" y="0.0" type="line"/>
      <point x="195.7142857142857" y="506.3309523809524" type="line"/>
      <point x="358.6436507936508" y="506.3309523809524" type="line"/>
      <point x="246.36746031746034" y="-22.49126984126984" type="line"/>
      <point x="-6.317460317460313" y="-209.42857142857144" type="line"/>
    </contour>
  </outline>
</glyph>
<glyph name="rra-tamil" format="2">
  <advance width="886.9738095238095"/>
  <unicode hex="0BB1"/>
  <note>
uni0BB1
</note>
  <anchor x="406.9047619047619" y="0.0" name="bottom"/>
  <anchor x="401.46587301587306" y="-146.58333333333331" name="nukta"/>
  <anchor x="501.7428571428571" y="575.6531746031745" name="top"/>
  <anchor x="499.4769841269842" y="573.2253968253967" name="vedic"/>
  <outline>
    <contour>
      <point x="79.28015873015875" y="-289.831746031746" type="curve"/>
      <point x="98.36587301587304" y="-190.65238095238095"/>
      <point x="140.65714285714287" y="-131.82380952380953"/>
      <point x="256.6904761904762" y="-131.82380952380953" type="curve" smooth="yes"/>
      <point x="379.1150793650794" y="-131.82380952380953" type="line" smooth="yes"/>
      <point x="671.7825396825397" y="-131.82380952380953"/>
      <point x="851.1507936507936" y="44.496825396825386"/>
      <point x="851.1507936507936" y="326.2547619047619" type="curve" smooth="yes"/>
      <point x="851.1507936507936" y="491.99761904761914"/>
      <point x="759.4611111111111" y="579.1198412698412"/>
      <point x="625.4666666666666" y="579.1198412698412" type="curve" smooth="yes"/>
      <point x="526.4825396825396" y="579.1198412698412"/>
      <point x="453.4293650793651" y="528.3579365079365"/>
      <point x="417.16349206349213" y="455.4825396825397" type="curve"/>
      <point x="406.9928571428572" y="529.1428571428571"/>
      <point x="357.15238095238084" y="578.2857142857143"/>
      <point x="276.234126984127" y="578.2857142857143" type="curve" smooth="yes"/>
      <point x="183.7214285714286" y="578.2857142857143"/>
      <point x="118.42460317460319" y="519.3373015873016"/>
      <point x="95.6952380952381" y="411.54523809523806" type="curve" smooth="yes"/>
      <point x="8.073809523809519" y="0.0" type="line"/>
      <point x="81.82857142857144" y="0.0" type="line"/>
      <point x="167.615873015873" y="403.20873015873025" type="line" smooth="yes"/>
      <point x="182.25" y="470.9468253968254"/>
      <point x="211.11666666666667" y="504.8944444444445"/>
      <point x="257.1944444444444" y="504.8944444444445" type="curve" smooth="yes"/>
      <point x="313.2373015873016" y="504.8944444444445"/>
      <point x="327.0587301587302" y="454.3357142857143"/>
      <point x="313.4396825396825" y="389.70793650793655" type="curve" smooth="yes"/>
      <point x="230.5261904761905" y="0.0" type="line"/>
      <point x="412.1698412698413" y="0.0" type="line"/>
      <point x="493.7468253968255" y="383.16190476190485" type="line" smooth="yes"/>
      <point x="510.7825396825398" y="463.42063492063494"/>
      <point x="543.5190476190476" y="505.38174603174605"/>
      <point x="596.1492063492063" y="505.38174603174605" type="curve" smooth="yes"/>
      <point x="653.981746031746" y="505.38174603174605"/>
      <point x="676.2095238095238" y="453.88253968253974"/>
      <point x="676.2095238095238" y="370.4436507936508" type="curve" smooth="yes"/>
      <point x="676.2095238095238" y="125.3515873015873"/>
      <point x="588.7015873015872" y="-73.32619047619048"/>
      <point x="356.1111111111112" y="-73.32619047619048" type="curve" smooth="yes"/>
      <point x="206.8095238095238" y="-73.32619047619048" type="line" smooth="yes"/>
      <point x="69.50873015873015" y="-73.32619047619048"/>
      <point x="-40.00396825396826" y="-101.32619047619048"/>
      <point x="-40.00396825396826" y="-201.67142857142858" type="curve" smooth="yes"/>
      <point x="-40.00396825396826" y="-258.62142857142857"/>
      <point x="6.896825396825398" y="-289.831746031746"/>
    </contour>
  </outline>
</glyph>
<glyph name="la-tamil" format="2">
  <advance width="1064.9055555555556"/>
  <unicode hex="0BB2"/>
  <note>
uni0BB2
</note>
  <anchor x="470.56984126984133" y="0.0" name="bottom"/>
  <anchor x="468.9269841269842" y="0.0" name="nukta"/>
  <anchor x="589.3817460317459" y="573.2253968253967" name="top"/>
  <anchor x="593.0063492063493" y="573.2253968253967" name="vedic"/>
  <outline>
    <contour>
      <point x="245.11190476190475" y="-5.0" type="curve" smooth="yes"/>
      <point x="361.03253968253966" y="-5.0"/>
      <point x="455.8246031746032" y="68.1984126984127"/>
      <point x="455.8246031746032" y="193.78174603174605" type="curve" smooth="yes"/>
      <point x="455.8246031746032" y="281.4761904761905"/>
      <point x="396.67619047619047" y="337.56666666666666"/>
      <point x="308.8301587301588" y="337.56666666666666" type="curve" smooth="yes"/>
      <point x="201.0404761904762" y="337.56666666666666"/>
      <point x="126.02301587301585" y="250.03333333333333"/>
      <point x="92.7952380952381" y="129.46984126984128" type="curve"/>
      <point x="130.96349206349205" y="102.00396825396825" type="line"/>
      <point x="154.92063492063494" y="188.04444444444445"/>
      <point x="192.97857142857143" y="235.84444444444446"/>
      <point x="241.69126984126984" y="235.84444444444446" type="curve" smooth="yes"/>
      <point x="280.74444444444447" y="235.84444444444446"/>
      <point x="299.53888888888883" y="204.3357142857143"/>
      <point x="299.53888888888883" y="168.49603174603172" type="curve" smooth="yes"/>
      <point x="299.53888888888883" y="116.0"/>
      <point x="270.6095238095238" y="73.90873015873017"/>
      <point x="212.86190476190478" y="73.90873015873017" type="curve" smooth="yes"/>
      <point x="155.79761904761904" y="73.90873015873017"/>
      <point x="110.57063492063493" y="139.98492063492066"/>
      <point x="110.57063492063493" y="227.51507936507937" type="curve" smooth="yes"/>
      <point x="110.57063492063493" y="387.3253968253968"/>
      <point x="237.97301587301587" y="504.16587301587305"/>
      <point x="399.9555555555556" y="504.16587301587305" type="curve" smooth="yes"/>
      <point x="540.3761904761905" y="504.16587301587305"/>
      <point x="594.6103174603174" y="416.11111111111103"/>
      <point x="562.3738095238097" y="273.0690476190476" type="curve" smooth="yes"/>
      <point x="545.2698412698413" y="197.08095238095237" type="line" smooth="yes"/>
      <point x="517.495238095238" y="74.13809523809525"/>
      <point x="587.3777777777779" y="-4.502380952380952"/>
      <point x="717.7984126984127" y="-4.502380952380952" type="curve" smooth="yes"/>
      <point x="903.6603174603175" y="-4.502380952380952"/>
      <point x="1028.8333333333333" y="159.11984126984126"/>
      <point x="1028.8333333333333" y="365.5253968253968" type="curve" smooth="yes"/>
      <point x="1028.8333333333333" y="450.61746031746037"/>
      <point x="1006.902380952381" y="515.0039682539682"/>
      <point x="975.3277777777778" y="577.8785714285715" type="curve"/>
      <point x="909.6150793650793" y="546.0936507936507" type="line"/>
      <point x="937.2444444444445" y="488.1785714285714"/>
      <point x="956.6523809523809" y="429.61666666666673"/>
      <point x="956.6523809523809" y="358.3087301587301" type="curve" smooth="yes"/>
      <point x="956.6523809523809" y="199.78809523809525"/>
      <point x="861.2166666666667" y="75.00793650793652"/>
      <point x="769.9309523809524" y="75.00793650793652" type="curve" smooth="yes"/>
      <point x="714.7698412698413" y="75.00793650793652"/>
      <point x="707.802380952381" y="122.60873015873015"/>
      <point x="723.3063492063492" y="188.19206349206345" type="curve" smooth="yes"/>
      <point x="745.15873015873" y="282.1333333333333" type="line" smooth="yes"/>
      <point x="791.7174603174603" y="479.27222222222224"/>
      <point x="653.7761904761905" y="578.2253968253967"/>
      <point x="447.83412698412695" y="578.2253968253967" type="curve" smooth="yes"/>
      <point x="211.6325396825397" y="578.2253968253967"/>
      <point x="39.807142857142864" y="427.6230158730159"/>
      <point x="39.807142857142864" y="220.40873015873015" type="curve" smooth="yes"/>
      <point x="39.807142857142864" y="96.19603174603174"/>
      <point x="118.5857142857143" y="-5.0"/>
    </contour>
  </outline>
</glyph>
<glyph name="lla-tamil" format="2">
  <advance width="1268.3595238095236"/>
  <unicode hex="0BB3"/>
  <note>
uni0BB3
</note>
  <anchor x="572.7198412698414" y="0.0" name="bottom"/>
  <anchor x="1179.8912698412698" y="573.2253968253967" name="imatra"/>
  <anchor x="568.0698412698413" y="0.0" name="nukta"/>
  <anchor x="706.3674603174603" y="573.2253968253967" name="top"/>
  <anchor x="714.7507936507938" y="573.2253968253967" name="vedic"/>
  <outline>
    <contour>
      <point x="245.99126984126985" y="-5.0" type="curve" smooth="yes"/>
      <point x="361.9119047619048" y="-5.0"/>
      <point x="456.7039682539683" y="68.1984126984127"/>
      <point x="456.7039682539683" y="193.78174603174605" type="curve" smooth="yes"/>
      <point x="456.7039682539683" y="281.4761904761905"/>
      <point x="397.8873015873015" y="337.56666666666666"/>
      <point x="310.04126984126987" y="337.56666666666666" type="curve" smooth="yes"/>
      <point x="202.25158730158734" y="337.56666666666666"/>
      <point x="126.90238095238094" y="250.03333333333333"/>
      <point x="93.67460317460316" y="129.46984126984128" type="curve"/>
      <point x="131.84285714285716" y="102.00396825396825" type="line"/>
      <point x="155.8" y="188.04444444444445"/>
      <point x="193.8579365079365" y="235.84444444444446"/>
      <point x="242.57063492063492" y="235.84444444444446" type="curve" smooth="yes"/>
      <point x="281.6238095238096" y="235.84444444444446"/>
      <point x="300.4182539682539" y="204.3357142857143"/>
      <point x="300.4182539682539" y="168.49603174603172" type="curve" smooth="yes"/>
      <point x="300.4182539682539" y="116.0"/>
      <point x="271.4888888888889" y="73.90873015873017"/>
      <point x="213.74126984126985" y="73.90873015873017" type="curve" smooth="yes"/>
      <point x="156.67698412698414" y="73.90873015873017"/>
      <point x="111.44999999999999" y="139.98492063492066"/>
      <point x="111.44999999999999" y="227.51507936507937" type="curve" smooth="yes"/>
      <point x="111.44999999999999" y="384.2793650793651"/>
      <point x="225.48333333333335" y="503.39761904761906"/>
      <point x="394.56190476190477" y="503.39761904761906" type="curve" smooth="yes"/>
      <point x="540.9015873015871" y="503.39761904761906"/>
      <point x="632.7507936507936" y="417.55793650793646"/>
      <point x="605.5444444444445" y="282.33730158730157" type="curve"/>
      <point x="678.9674603174602" y="297.17619047619047" type="line"/>
      <point x="702.2539682539683" y="473.56031746031755"/>
      <point x="574.2150793650794" y="578.2253968253967"/>
      <point x="397.5761904761905" y="578.2253968253967" type="curve" smooth="yes"/>
      <point x="187.98888888888885" y="578.2253968253967"/>
      <point x="40.68650793650794" y="422.30000000000007"/>
      <point x="40.68650793650794" y="220.40873015873015" type="curve" smooth="yes"/>
      <point x="40.68650793650794" y="96.19603174603174"/>
      <point x="119.46507936507938" y="-5.0"/>
    </contour>
    <contour>
      <point x="545.0579365079365" y="0.0" type="line"/>
      <point x="724.5873015873016" y="0.0" type="line"/>
      <point x="832.3007936507937" y="506.3309523809524" type="line"/>
      <point x="995.9968253968254" y="506.3309523809524" type="line"/>
      <point x="887.936507936508" y="0.0" type="line"/>
      <point x="1068.013492063492" y="0.0" type="line"/>
      <point x="1175.7269841269842" y="506.3309523809524" type="line"/>
      <point x="1300.690476190476" y="506.3309523809524" type="line"/>
      <point x="1314.765873015873" y="573.2253968253967" type="line"/>
      <point x="709.7714285714286" y="573.2253968253967" type="line"/>
      <point x="658.3293650793651" y="326.9079365079365" type="line"/>
      <point x="618.8214285714286" y="344.52539682539685" type="line"/>
    </contour>
  </outline>
</glyph>
<glyph name="llla-tamil" format="2">
  <advance width="886.0095238095238"/>
  <unicode hex="0BB4"/>
  <note>
uni0BB4
</note>
  <anchor x="397.65317460317465" y="0.0" name="bottom"/>
  <anchor x="323.7238095238095" y="-363.586507936508" name="nukta"/>
  <anchor x="530.4492063492063" y="573.2253968253967" name="top"/>
  <anchor x="514.2452380952382" y="573.2253968253967" name="vedic"/>
  <anchor x="889.1214285714285" y="573.2253968253967" name="imatra"/>
  <outline>
    <contour>
      <point x="197.18333333333337" y="-394.9579365079365" type="curve" smooth="yes"/>
      <point x="427.62698412698415" y="-394.9579365079365"/>
      <point x="487.17301587301586" y="-187.16349206349204"/>
      <point x="658.2325396825397" y="-187.16349206349204" type="curve" smooth="yes"/>
      <point x="686.1269841269842" y="-187.16349206349204" type="line"/>
      <point x="700.9761904761904" y="-119.87698412698411" type="line"/>
      <point x="660.9317460317461" y="-119.87698412698411" type="line" smooth="yes"/>
      <point x="571.8809523809525" y="-119.87698412698411"/>
      <point x="508.98174603174607" y="-80.5404761904762"/>
      <point x="527.55" y="8.134920634920636" type="curve" smooth="yes"/>
      <point x="551.0174603174603" y="119.8436507936508" type="line"/>
      <point x="372.2825396825397" y="119.8436507936508" type="line"/>
      <point x="350.61428571428576" y="13.350793650793651" type="line" smooth="yes"/>
      <point x="333.9055555555555" y="-67.51031746031747"/>
      <point x="408.51428571428573" y="-128.04206349206348"/>
      <point x="510.02539682539674" y="-143.61984126984126" type="curve"/>
      <point x="508.6785714285714" y="-149.33333333333331" type="line"/>
      <point x="343.4222222222223" y="-170.56825396825397"/>
      <point x="292.6857142857143" y="-315.97857142857134"/>
      <point x="165.44841269841274" y="-315.97857142857134" type="curve" smooth="yes"/>
      <point x="111.91746031746031" y="-315.97857142857134"/>
      <point x="73.77063492063492" y="-280.5587301587302"/>
      <point x="73.77063492063492" y="-230.8436507936508" type="curve" smooth="yes"/>
      <point x="73.77063492063492" y="-181.00238095238095"/>
      <point x="108.87301587301587" y="-142.47777777777776"/>
      <point x="162.65873015873015" y="-142.47777777777776" type="curve" smooth="yes"/>
      <point x="197.60000000000002" y="-142.47777777777776"/>
      <point x="228.9373015873016" y="-158.98571428571427"/>
      <point x="253.05873015873019" y="-185.18809523809526" type="curve"/>
      <point x="301.6833333333333" y="-135.7563492063492" type="line"/>
      <point x="266.89365079365075" y="-98.29206349206349"/>
      <point x="220.3293650793651" y="-77.23095238095237"/>
      <point x="164.02539682539683" y="-77.23095238095237" type="curve" smooth="yes"/>
      <point x="70.00714285714285" y="-77.23095238095237"/>
      <point x="3.890476190476186" y="-146.55"/>
      <point x="3.890476190476186" y="-238.06904761904758" type="curve" smooth="yes"/>
      <point x="3.890476190476186" y="-324.8960317460318"/>
      <point x="77.35952380952382" y="-394.9579365079365"/>
    </contour>
    <component base="ma-tamil"/>
  </outline>
</glyph>
<glyph name="va-tamil" format="2">
  <advance width="1127.9166666666665"/>
  <unicode hex="0BB5"/>
  <note>
uni0BB5
</note>
  <anchor x="531.3730158730159" y="0.0" name="bottom"/>
  <anchor x="956.0452380952382" y="573.2253968253967" name="imatra"/>
  <anchor x="525.047619047619" y="0.0" name="nukta"/>
  <anchor x="630.8261904761904" y="573.2253968253967" name="top"/>
  <anchor x="624.9428571428573" y="573.2253968253967" name="vedic"/>
  <outline>
    <contour>
      <point x="244.47857142857146" y="-5.0" type="curve" smooth="yes"/>
      <point x="360.3992063492064" y="-5.0"/>
      <point x="455.19126984126984" y="68.1984126984127"/>
      <point x="455.19126984126984" y="193.78174603174605" type="curve" smooth="yes"/>
      <point x="455.19126984126984" y="281.4761904761905"/>
      <point x="396.0428571428571" y="337.56666666666666"/>
      <point x="308.19682539682543" y="337.56666666666666" type="curve" smooth="yes"/>
      <point x="200.40714285714284" y="337.56666666666666"/>
      <point x="125.38968253968255" y="250.03333333333333"/>
      <point x="92.16190476190476" y="129.46984126984128" type="curve"/>
      <point x="130.33015873015876" y="102.00396825396825" type="line"/>
      <point x="154.28730158730158" y="188.04444444444445"/>
      <point x="192.3452380952381" y="235.84444444444446"/>
      <point x="241.05793650793652" y="235.84444444444446" type="curve" smooth="yes"/>
      <point x="280.1111111111112" y="235.84444444444446"/>
      <point x="298.9055555555555" y="204.3357142857143"/>
      <point x="298.9055555555555" y="168.49603174603172" type="curve" smooth="yes"/>
      <point x="298.9055555555555" y="116.0"/>
      <point x="269.9761904761905" y="73.90873015873017"/>
      <point x="212.22857142857143" y="73.90873015873017" type="curve" smooth="yes"/>
      <point x="155.1642857142857" y="73.90873015873017"/>
      <point x="109.93730158730159" y="139.98492063492066"/>
      <point x="109.93730158730159" y="227.51507936507937" type="curve" smooth="yes"/>
      <point x="109.93730158730159" y="378.66984126984124"/>
      <point x="245.16349206349204" y="504.85952380952386"/>
      <point x="397.7365079365079" y="504.85952380952386" type="curve" smooth="yes"/>
      <point x="519.2206349206349" y="504.85952380952386"/>
      <point x="596.3507936507938" y="435.94126984126984"/>
      <point x="596.0190476190477" y="305.47698412698406" type="curve" smooth="yes"/>
      <point x="595.6873015873017" y="204.42142857142858"/>
      <point x="553.0777777777778" y="122.30952380952381"/>
      <point x="492.7" y="46.88412698412698" type="curve"/>
      <point x="506.24206349206355" y="0.0" type="line"/>
      <point x="995.3095238095239" y="0.0" type="line"/>
      <point x="1116.8119047619045" y="573.2253968253967" type="line"/>
      <point x="938.4238095238094" y="573.2253968253967" type="line"/>
      <point x="830.6753968253968" y="67.06031746031746" type="line"/>
      <point x="625.1920634920637" y="67.06031746031746" type="line"/>
      <point x="706.8253968253969" y="131.16587301587302"/>
      <point x="770.7134920634921" y="214.6198412698413"/>
      <point x="770.7134920634921" y="329.3333333333333" type="curve" smooth="yes"/>
      <point x="770.7134920634921" y="496.65952380952376"/>
      <point x="624.7007936507936" y="578.4261904761904"/>
      <point x="439.4404761904762" y="578.4261904761904" type="curve" smooth="yes"/>
      <point x="213.20873015873016" y="578.4261904761904"/>
      <point x="39.173809523809524" y="417.23333333333335"/>
      <point x="39.173809523809524" y="220.40873015873015" type="curve" smooth="yes"/>
      <point x="39.173809523809524" y="96.19603174603174"/>
      <point x="117.95238095238093" y="-5.0"/>
    </contour>
  </outline>
</glyph>
<glyph name="ssa-tamil" format="2">
  <advance width="1511.94126984127"/>
  <unicode hex="0BB7"/>
  <note>
uni0BB7
</note>
  <anchor x="699.7626984126983" y="0.0" name="bottom"/>
  <anchor x="574.168253968254" y="0.0" name="nukta"/>
  <anchor x="847.1301587301588" y="573.2253968253967" name="top"/>
  <anchor x="821.3555555555556" y="573.2253968253967" name="vedic"/>
  <outline>
    <contour>
      <point x="244.47857142857146" y="-5.0" type="curve" smooth="yes"/>
      <point x="360.3992063492064" y="-5.0"/>
      <point x="455.19126984126984" y="68.1984126984127"/>
      <point x="455.19126984126984" y="193.78174603174605" type="curve" smooth="yes"/>
      <point x="455.19126984126984" y="281.4761904761905"/>
      <point x="396.0428571428571" y="337.56666666666666"/>
      <point x="308.19682539682543" y="337.56666666666666" type="curve" smooth="yes"/>
      <point x="200.40714285714284" y="337.56666666666666"/>
      <point x="125.38968253968255" y="250.03333333333333"/>
      <point x="92.16190476190476" y="129.46984126984128" type="curve"/>
      <point x="130.33015873015876" y="102.00396825396825" type="line"/>
      <point x="154.28730158730158" y="188.04444444444445"/>
      <point x="192.3452380952381" y="235.84444444444446"/>
      <point x="241.05793650793652" y="235.84444444444446" type="curve" smooth="yes"/>
      <point x="280.1111111111112" y="235.84444444444446"/>
      <point x="298.9055555555555" y="204.3357142857143"/>
      <point x="298.9055555555555" y="168.49603174603172" type="curve" smooth="yes"/>
      <point x="298.9055555555555" y="116.0"/>
      <point x="269.9761904761905" y="73.90873015873017"/>
      <point x="212.22857142857143" y="73.90873015873017" type="curve" smooth="yes"/>
      <point x="155.1642857142857" y="73.90873015873017"/>
      <point x="109.93730158730159" y="139.98492063492066"/>
      <point x="109.93730158730159" y="227.51507936507937" type="curve" smooth="yes"/>
      <point x="109.93730158730159" y="378.66984126984124"/>
      <point x="243.42936507936506" y="504.85952380952386"/>
      <point x="394.26825396825393" y="504.85952380952386" type="curve" smooth="yes"/>
      <point x="514.0182539682542" y="504.85952380952386"/>
      <point x="596.3507936507938" y="435.94126984126984"/>
      <point x="596.0190476190477" y="305.4769841269841" type="curve" smooth="yes"/>
      <point x="595.6873015873017" y="204.42142857142855"/>
      <point x="553.0777777777778" y="122.30952380952381"/>
      <point x="492.7" y="46.88412698412698" type="curve"/>
      <point x="506.24206349206355" y="0.0" type="line"/>
      <point x="1404.845238095238" y="0.0" type="line"/>
      <point x="1475.8555555555556" y="332.3436507936508" type="line"/>
      <point x="1300.104761904762" y="281.33333333333337" type="line"/>
      <point x="1254.2500000000002" y="67.06031746031746" type="line"/>
      <point x="625.1920634920637" y="67.06031746031746" type="line"/>
      <point x="706.8253968253969" y="131.16587301587302"/>
      <point x="770.7134920634921" y="213.23253968253968"/>
      <point x="770.7134920634921" y="327.9460317460317" type="curve" smooth="yes"/>
      <point x="770.7134920634921" y="495.27222222222224"/>
      <point x="619.4984126984126" y="578.4261904761904"/>
      <point x="435.9722222222222" y="578.4261904761904" type="curve" smooth="yes"/>
      <point x="209.74047619047616" y="578.4261904761904"/>
      <point x="39.173809523809524" y="418.9674603174603"/>
      <point x="39.173809523809524" y="220.40873015873015" type="curve" smooth="yes"/>
      <point x="39.173809523809524" y="96.19603174603174"/>
      <point x="117.95238095238093" y="-5.0"/>
    </contour>
    <contour>
      <point x="894.2055555555556" y="-308.1896825396826" type="line"/>
      <point x="1060.176984126984" y="-308.1896825396826" type="line"/>
      <point x="1208.7761904761905" y="389.5039682539683" type="line" smooth="yes"/>
      <point x="1233.611111111111" y="504.8642857142857"/>
      <point x="1183.4269841269843" y="578.7126984126984"/>
      <point x="1069.7714285714285" y="578.7126984126984" type="curve" smooth="yes"/>
      <point x="941.4920634920635" y="578.7126984126984"/>
      <point x="862.0007936507936" y="482.42539682539683"/>
      <point x="862.0007936507936" y="374.79603174603176" type="curve" smooth="yes"/>
      <point x="862.0007936507936" y="268.8833333333334"/>
      <point x="942.6920634920635" y="195.77222222222218"/>
      <point x="1082.7420634920636" y="195.77222222222218" type="curve" smooth="yes"/>
      <point x="1220.6587301587301" y="195.77222222222218"/>
      <point x="1331.1650793650792" y="242.96031746031747"/>
      <point x="1474.368253968254" y="325.3436507936508" type="curve"/>
      <point x="1476.2880952380954" y="336.8563492063492" type="line"/>
      <point x="1446.472222222222" y="383.95634920634916" type="line"/>
      <point x="1316.1992063492064" y="307.9349206349207"/>
      <point x="1202.0444444444445" y="259.86746031746026"/>
      <point x="1091.0992063492063" y="259.86746031746026" type="curve" smooth="yes"/>
      <point x="983.5119047619047" y="259.86746031746026"/>
      <point x="930.4888888888889" y="304.4603174603174"/>
      <point x="930.4888888888889" y="381.84999999999997" type="curve" smooth="yes"/>
      <point x="930.4888888888889" y="430.4936507936508"/>
      <point x="957.8460317460318" y="477.1563492063492"/>
      <point x="1002.2039682539684" y="477.1563492063492" type="curve" smooth="yes"/>
      <point x="1038.6230158730157" y="477.1563492063492"/>
      <point x="1054.5738095238094" y="447.11031746031745"/>
      <point x="1045.352380952381" y="403.82698412698414" type="curve" smooth="yes"/>
    </contour>
  </outline>
</glyph>
